<?xml version="1.0" encoding="UTF-8" standalone="no"?>
<!-- Created with Inkscape (http://www.inkscape.org/) -->

<svg
   width="201.20462mm"
   height="111.58959mm"
   viewBox="0 0 201.20462 111.58959"
   version="1.1"
   id="svg5"
   sodipodi:docname="bubbletest.svg"
   inkscape:version="1.1.2 (0a00cf5339, 2022-02-04, custom)"
   xmlns:inkscape="http://www.inkscape.org/namespaces/inkscape"
   xmlns:sodipodi="http://sodipodi.sourceforge.net/DTD/sodipodi-0.dtd"
   xmlns="http://www.w3.org/2000/svg"
   xmlns:svg="http://www.w3.org/2000/svg">
  <sodipodi:namedview
     id="namedview7"
     pagecolor="#505050"
     bordercolor="#ffffff"
     borderopacity="1"
     inkscape:pageshadow="0"
     inkscape:pageopacity="0"
     inkscape:pagecheckerboard="1"
     inkscape:document-units="mm"
     showgrid="false"
     inkscape:zoom="1.8814578"
     inkscape:cx="572.69423"
     inkscape:cy="262.03086"
     inkscape:window-width="1916"
     inkscape:window-height="997"
     inkscape:window-x="0"
     inkscape:window-y="0"
     inkscape:window-maximized="1"
     inkscape:current-layer="layer1" />
  <defs
     id="defs2" />
  <g
     inkscape:label="Layer 1"
     inkscape:groupmode="layer"
     id="layer1"
     transform="translate(-3.433526,-95.108673)">
    <path
       id="path157"
       style="fill:#0000ff;stroke-width:0.264583"
       d="m 182.664,157.255 c 0,3.209 -0.662,6.334 -1.914,9.336 -1.178,2.824 -2.879,5.539 -5.044,8.116 -1.951,2.32 -4.277,4.527 -6.939,6.597 -2.406,1.873 -5.085,3.633 -8.006,5.266 -2.683,1.499 -13.16768,5.25155 -16.23468,6.52055 -2.86,1.185 -6.7783,-50.31287 -9.9323,-49.35087 -2.978,0.908 2.41998,51.92832 -0.78602,52.62032 -3.057,0.66 -6.21,1.217 -9.444,1.663 -3.109,0.429 -6.294,0.756 -9.541,0.974 -3.141,0.211 -6.34,0.319 -9.585,0.319 -3.246,0 -6.4447,-0.108 -9.5853,-0.319 -3.247,-0.218 -6.4318,-0.545 -9.5414,-0.974 -3.2343,-0.446 -6.3872,-1.003 -9.4445,-1.663 -3.2055,-0.692 -6.3058,-1.497 -9.2842,-2.405 -3.153,-0.962 -6.1694,-2.04 -9.0295,-3.224 -3.0669,-1.27 -5.954,-2.661 -8.6371,-4.16 -2.9216,-1.633 -5.6013,-3.394 -8.0077,-5.266 -2.6613,-2.071 -4.9883,-4.278 -6.9385,-6.598 -2.1654,-2.576 -3.8662,-5.292 -5.0442,-8.115 -1.2527,-3.003 -1.914,-6.128 -1.914,-9.337 0,-3.208 0.6613,-6.333 1.9139,-9.335 1.1779,-2.824 2.8787,-5.539 5.0441,-8.116 1.9501,-2.32 4.277,-4.527 6.9383,-6.598 2.4059,-1.872 5.0852,-3.632 8.0062,-5.265 2.6833,-1.499 5.5707,-2.891 8.6378,-4.16 2.8605,-1.185 5.8774,-2.263 9.0308,-3.225 2.9785,-0.909 6.0787,-1.713 9.2842,-2.405 3.057,-0.66 5.179742,65.56508 8.413742,65.11908 3.1095,-0.429 7.324258,-67.53808 10.571158,-67.75608 3.1409,-0.211 6.3402,-0.319 9.5862,-0.319 3.245,0 6.444,0.108 9.584,0.319 3.247,0.218 6.432,0.545 9.542,0.974 3.234,0.446 6.387,1.003 9.444,1.663 3.206,0.692 6.00252,61.40468 8.98152,62.31268 3.153,0.962 -6.75941,-61.75227 -3.89941,-60.56827 3.067,1.27 19.18589,6.54559 21.86889,8.04459 2.922,1.633 5.601,3.394 8.008,5.266 2.661,2.071 4.988,4.278 6.938,6.598 2.166,2.576 3.867,5.292 5.045,8.115 1.252,3.003 1.914,6.128 1.914,9.336 v 0"
       sodipodi:nodetypes="ccccccccccsccsccccscscccccccccscccccccccsc" />
    <path
       id="path203"
       style="fill:#ff0000;stroke-width:0.264583"
       d="M 76.2243 160.431 C 76.2243 162.43 75.8552 164.387 75.1572 166.2 C 74.4476 168.044 73.398 169.738 72.0508 171.175 C 70.7264 172.587 69.1682 173.692 67.4732 174.448 C 65.7481 175.218 63.8813 175.625 61.9751 175.625 C 60.069 175.625 58.2022 175.218 56.4771 174.448 C 54.7821 173.692 53.2239 172.587 51.8995 171.175 C 50.5523 169.738 49.5027 168.044 48.7931 166.2 C 48.0951 164.387 47.726 162.43 47.726 160.431 C 47.726 157.738 48.3836 155.207 49.5368 153.014 C 50.7581 150.69 52.5353 148.744 54.6763 147.38 C 56.8111 146.02 59.3075 145.238 61.9751 145.238 C 64.6428 145.238 67.1393 146.02 69.2741 147.38 C 71.4149 148.744 73.192 150.69 74.4132 153.013 C 75.5667 155.207 76.2243 157.737 76.2243 160.432 C 76.2243 160.432 76.2243 160.431 76.2243 160.431" />
    <path
       id="path205"
       style="fill:#ff0000;stroke-width:0.264583"
       d="m 175.83465,157.98664 c 0,2.545 -0.736,4.927 -2.017,6.967 -1.291,2.054 -3.136,3.76 -5.339,4.934 -2.088,1.112 -4.498,1.747 -7.065,1.747 -2.566,0 -4.976,-0.635 -7.064,-1.747 -2.203,-1.174 -4.047,-2.88 -5.338,-4.933 -1.282,-2.04 -2.018,-4.423 -2.018,-6.968 0,-1.824 0.385,-3.61 1.114,-5.26 0.717,-1.626 1.767,-3.121 3.109,-4.391 1.362,-1.289 2.968,-2.293 4.716,-2.973 1.723,-0.67 3.583,-1.025 5.481,-1.025 1.899,0 3.759,0.355 5.482,1.025 1.748,0.68 3.354,1.684 4.716,2.973 1.341,1.27 2.392,2.765 3.109,4.391 0.729,1.65 1.114,3.436 1.114,5.26 0,0 0,0 0,0" />
    <path
       id="path207"
       style="fill:#ff0000;stroke-width:0.264583"
       d="m 130.29647,165.3493 c 0,2.382 -0.517,4.715 -1.495,6.87 -0.956,2.108 -2.353,4.047 -4.136,5.694 -1.821,1.683 -3.97,2.994 -6.308,3.879 -2.291,0.867 -4.764,1.326 -7.288,1.326 -2.524,0 -4.998,-0.459 -7.289,-1.327 -2.338,-0.884 -4.486004,-2.195 -6.307004,-3.878 -1.7835,-1.647 -3.1802,-3.586 -4.1367,-5.694 -0.9777,-2.155 -1.4953,-4.488 -1.4953,-6.87 0,-2.382 0.5176,-4.715 1.4953,-6.87 0.9565,-2.108 2.3532,-4.046 4.1367,-5.694 1.821,-1.683 3.969004,-2.993 6.307004,-3.878 2.291,-0.868 4.765,-1.326 7.289,-1.326 2.524,0 4.997,0.458 7.288,1.326 2.338,0.885 4.487,2.195 6.308,3.878 1.783,1.648 3.18,3.586 4.136,5.694 0.978,2.155 1.495,4.488 1.495,6.87 0,0 0,0 0,0" />
    <path
       id="path297"
       style="fill:#ffff00;stroke-width:0.264583"
       d="m 120.33947,167.8383 c 0,2.356 -1.101,4.481 -2.868,5.982 -1.646,1.4 -3.869,2.259 -6.316,2.259 -2.448,0 -4.671,-0.859 -6.317,-2.259 -1.767,-1.501 -2.868,-3.626 -2.868,-5.982 0,-2.355 1.101,-4.48 2.868,-5.982 1.646,-1.399 3.869,-2.258 6.317,-2.258 2.447,0 4.67,0.859 6.316,2.258 1.767,1.502 2.868,3.627 2.868,5.982 0,0 0,0 0,0" />
    <path
       id="path299"
       style="fill:#ffff00;stroke-width:0.264583"
       d="M 70.559 162.062 C 70.559 164.248 69.6456 166.344 68.0197 167.889 C 66.3938 169.435 64.1886 170.303 61.8893 170.303 C 59.59 170.303 57.3848 169.435 55.7589 167.889 C 54.1331 166.344 53.2196 164.248 53.2197 162.062 C 53.2197 159.749 54.2225 157.658 55.8376 156.162 C 57.3999 154.714 59.535 153.822 61.8893 153.822 C 64.2436 153.822 66.3787 154.714 67.941 156.162 C 69.5561 157.658 70.559 159.749 70.559 162.062 C 70.559 162.062 70.559 162.062 70.559 162.062" />
    <path
       id="path367"
       style="fill:#00ff00;stroke-width:0.264583"
       d="M 65.237 162.406 C 65.237 164.397 63.546 166.011 61.4601 166.011 C 59.3742 166.011 57.6832 164.397 57.6832 162.406 C 57.6832 161.45 58.0812 160.533 58.7895 159.857 C 59.4978 159.18 60.4584 158.801 61.4601 158.801 C 62.4618 158.801 63.4225 159.18 64.1308 159.857 C 64.8391 160.533 65.237 161.45 65.237 162.406 C 65.237 162.406 65.237 162.406 65.237 162.406" />
    <path
       id="path122"
       style="fill:#0000ff;stroke-width:0.264583"
       d="m 196.05704,196.45856 a 8.8891497,8.2560549 0 0 1 -8.88915,8.25605 8.8891497,8.2560549 0 0 1 -8.88915,-8.25605 8.8891497,8.2560549 0 0 1 8.88915,-8.25606 8.8891497,8.2560549 0 0 1 8.88915,8.25606 z" />
    <path
       id="path124"
       style="fill:#0000ff;stroke-width:0.264583"
       d="m 198.67511,117.66499 a 13.389482,13.697927 0 0 1 -13.38948,13.69793 13.389482,13.697927 0 0 1 -13.38948,-13.69793 13.389482,13.697927 0 0 1 13.38948,-13.69792 13.389482,13.697927 0 0 1 13.38948,13.69792 z" />
    <path
       id="path279"
       style="fill:#0000ff;stroke-width:0.264583"
       d="m 140.49519,188.38075 a 2.1679046,2.0212352 0 0 1 -2.1679,2.02124 2.1679046,2.0212352 0 0 1 -2.16791,-2.02124 2.1679046,2.0212352 0 0 1 2.16791,-2.02123 2.1679046,2.0212352 0 0 1 2.1679,2.02123 z" />
  </g>
</svg>
