<svg id="svg" version="1.1" width="512" height="356" xmlns="http://www.w3.org/2000/svg"><path d="M21.636 4.750 C 24.311 7.362,27.730 11.750,29.234 14.500 C 30.737 17.250,33.437 21.228,35.234 23.341 C 38.350 27.005,38.516 27.621,38.853 36.776 C 39.382 51.177,36.345 59.547,27.225 68.822 C 20.667 75.491,12.695 79.775,5.189 80.664 L 0.000 81.279 0.000 85.639 C 0.000 89.828,0.120 90.000,3.032 90.000 C 4.700 90.000,7.737 89.285,9.782 88.412 C 13.378 86.876,23.244 84.000,24.919 84.000 C 25.371 84.000,26.307 86.026,27.001 88.502 C 29.824 98.587,25.262 106.019,15.819 106.718 C 10.434 107.116,9.643 106.806,2.250 101.401 C 0.004 99.759,-0.000 99.765,-0.000 104.365 C 0.000 108.729,0.199 109.061,3.750 110.629 C 5.813 111.540,10.254 112.494,13.621 112.751 C 20.838 113.300,24.947 111.716,30.091 106.401 C 33.257 103.130,33.488 102.453,33.325 96.910 C 33.217 93.228,32.355 89.298,31.075 86.655 C 28.496 81.328,28.475 81.666,31.615 78.302 C 41.142 68.093,49.222 49.307,48.581 38.856 C 48.354 35.167,47.669 32.405,46.853 31.888 C 45.906 31.288,46.307 31.026,48.191 31.015 C 49.671 31.007,51.160 31.450,51.500 32.000 C 51.840 32.550,53.104 33.020,54.309 33.045 C 55.514 33.070,57.850 33.666,59.500 34.370 L 62.500 35.650 58.258 38.075 C 52.479 41.378,52.898 42.405,59.037 39.985 C 64.259 37.927,69.506 37.392,70.393 38.826 C 70.674 39.281,70.638 40.669,70.313 41.911 C 69.886 43.544,69.501 43.810,68.922 42.874 C 68.282 41.838,67.761 41.888,66.311 43.125 C 65.315 43.975,63.150 45.217,61.500 45.885 C 55.928 48.141,53.127 51.462,47.907 62.000 C 43.434 71.030,42.698 73.340,42.652 78.500 C 42.581 86.438,45.763 93.569,51.966 99.371 C 58.463 105.449,64.186 108.165,71.777 108.774 C 77.435 109.228,78.274 109.054,79.613 107.141 C 81.743 104.101,82.556 104.472,82.834 108.611 C 83.137 113.102,81.022 114.930,75.500 114.953 C 58.424 115.022,42.806 103.495,37.950 87.238 C 36.638 82.847,34.000 79.447,34.000 82.148 C 34.000 84.703,38.106 98.471,39.516 100.644 C 40.787 102.603,40.737 102.744,38.940 102.274 C 37.183 101.815,37.034 102.144,37.543 105.349 C 38.057 108.582,37.686 109.366,33.807 113.240 C 26.716 120.321,15.931 122.703,5.409 119.511 C 2.709 118.692,0.388 118.017,0.250 118.011 C 0.112 118.005,0.011 119.912,0.025 122.250 C 0.058 127.861,5.114 134.909,11.231 137.870 C 16.063 140.209,24.028 140.696,28.685 138.936 C 34.998 136.551,41.363 127.629,43.033 118.826 C 43.581 115.935,44.469 113.213,45.007 112.777 C 45.544 112.340,45.777 112.272,45.526 112.624 C 45.274 112.977,46.180 114.141,47.540 115.210 C 52.579 119.174,52.492 120.403,46.757 126.320 C 41.660 131.579,39.604 134.835,36.935 141.873 C 35.234 146.358,30.806 148.130,21.207 148.168 C 14.488 148.194,12.946 147.814,6.840 144.624 L -0.000 141.051 0.000 144.909 C 0.000 147.868,0.446 148.883,1.914 149.267 C 9.319 151.204,9.771 175.169,2.531 181.971 C 0.017 184.332,-1.063 190.000,1.001 190.000 C 1.552 190.000,3.802 188.146,6.001 185.879 C 8.200 183.613,10.000 182.096,10.000 182.508 C 10.000 183.957,4.039 193.654,2.032 195.471 C 0.291 197.047,-0.000 198.535,0.000 205.877 C 0.000 216.115,0.546 215.679,6.515 200.678 C 8.665 195.276,10.831 190.604,11.330 190.296 C 11.859 189.969,12.070 194.055,11.835 200.118 C 11.379 211.891,9.130 217.923,3.276 223.062 C 0.480 225.517,0.000 226.603,0.000 230.469 C 0.000 232.961,0.170 235.000,0.378 235.000 C 2.303 235.000,8.116 231.503,10.638 228.828 C 17.314 221.748,19.810 212.117,17.952 200.604 C 17.297 196.542,16.963 192.612,17.209 191.872 C 17.960 189.621,22.782 197.998,24.456 204.460 C 26.375 211.869,26.385 214.339,24.522 220.614 C 21.462 230.918,13.130 239.541,3.809 242.051 C 0.649 242.902,0.000 243.516,0.000 245.652 C 0.000 248.156,0.131 248.208,4.750 247.524 C 15.471 245.936,23.044 240.536,28.557 230.548 C 30.060 227.825,33.200 222.806,35.535 219.395 C 37.870 215.984,40.328 211.535,40.997 209.508 L 42.213 205.824 44.766 209.412 C 46.262 211.514,48.161 213.000,49.351 213.000 C 51.212 213.000,51.240 213.105,49.690 214.250 C 48.736 214.956,47.760 217.460,47.450 220.000 C 46.839 225.019,44.157 232.000,42.841 232.000 C 42.371 232.000,42.197 228.737,42.454 224.750 C 42.922 217.505,42.922 217.504,42.003 223.200 C 40.176 234.533,33.462 244.159,24.238 248.672 C 19.646 250.919,16.902 251.499,9.306 251.832 L 0.000 252.239 -0.000 256.259 C -0.000 258.834,0.591 260.711,1.643 261.481 C 3.164 262.593,3.153 263.032,1.504 267.350 C -1.023 273.966,-0.092 280.805,4.661 290.561 C 9.667 300.835,11.435 301.370,8.749 291.800 C 7.437 287.123,6.667 281.266,6.607 275.500 C 6.526 267.696,6.837 265.933,8.948 262.237 C 11.472 257.819,13.206 256.967,22.374 255.644 C 26.829 255.002,26.730 255.180,20.290 259.394 C 17.666 261.111,14.840 263.862,14.010 265.508 C 11.681 270.123,12.062 283.006,14.778 291.500 C 17.904 301.276,21.382 305.873,28.530 309.677 C 31.813 311.424,35.400 313.582,36.500 314.473 C 37.600 315.363,39.288 315.888,40.250 315.640 C 41.213 315.391,42.007 315.708,42.015 316.344 C 42.025 317.044,42.379 316.950,42.914 316.104 C 43.596 315.028,44.171 315.429,45.425 317.854 C 46.319 319.584,47.377 321.000,47.776 321.000 C 48.174 321.000,48.618 317.962,48.762 314.250 C 49.160 304.027,51.483 298.694,58.277 292.404 C 68.056 283.350,80.782 281.519,92.331 287.504 C 95.174 288.978,99.075 291.001,101.000 292.000 C 104.818 293.982,110.052 299.016,107.856 298.593 C 107.110 298.449,105.375 297.850,104.000 297.260 C 102.625 296.671,97.059 294.738,91.631 292.966 C 83.443 290.292,80.750 289.836,75.815 290.283 C 66.242 291.151,58.504 297.255,55.408 306.381 C 53.186 312.931,53.998 318.747,58.425 327.983 C 62.469 336.422,62.592 337.167,60.477 340.394 C 59.114 342.475,59.114 342.850,60.477 343.981 C 61.495 344.826,62.000 347.027,62.000 350.622 L 62.000 356.000 65.500 356.000 C 69.438 356.000,69.755 355.083,67.616 349.872 C 66.657 347.535,66.279 342.664,66.384 334.000 C 66.557 319.761,67.981 315.306,74.438 308.814 C 80.896 302.321,85.963 300.518,98.161 300.375 C 110.440 300.230,110.163 299.860,105.560 310.269 L 103.109 315.810 97.126 315.673 C 91.830 315.551,90.703 315.889,87.321 318.615 C 84.110 321.204,83.140 322.945,81.249 329.516 C 78.191 340.139,77.180 340.778,76.266 332.668 C 74.879 320.362,85.508 309.484,98.305 310.113 C 102.961 310.342,103.464 310.168,103.155 308.434 C 102.648 305.594,102.395 305.496,95.667 305.545 C 85.754 305.618,77.471 311.285,73.079 321.000 C 70.029 327.744,70.396 333.296,74.451 341.757 C 76.349 345.717,78.199 350.542,78.562 352.479 C 79.073 355.204,79.706 356.000,81.361 356.000 C 83.392 356.000,83.500 355.533,83.500 346.750 C 83.500 339.144,83.889 336.772,85.691 333.405 C 88.298 328.534,93.978 323.323,98.927 321.263 C 100.892 320.445,102.831 319.263,103.235 318.638 C 103.639 318.012,103.976 318.931,103.985 320.679 C 103.998 323.388,103.149 324.500,98.250 328.193 C 89.479 334.804,86.526 342.378,88.625 352.875 C 89.104 355.272,89.778 356.000,91.516 356.000 C 93.670 356.000,93.779 355.640,93.704 348.750 C 93.620 341.010,95.218 336.667,100.421 330.500 C 102.550 327.977,103.113 327.739,103.961 329.000 C 104.516 329.825,104.976 331.370,104.985 332.434 C 104.993 333.498,106.012 336.423,107.250 338.934 C 108.965 342.415,109.451 344.985,109.292 349.750 C 109.091 355.786,109.169 356.000,111.554 356.000 C 113.875 356.000,113.985 355.760,113.384 352.000 C 112.550 346.783,114.167 346.769,117.760 351.962 L 120.500 355.924 132.867 355.962 L 145.233 356.000 144.545 353.750 C 144.166 352.512,143.619 348.350,143.329 344.500 C 142.409 332.269,148.450 321.385,159.209 315.892 C 164.336 313.273,174.732 312.299,180.599 313.887 C 188.969 316.152,195.605 322.824,192.537 325.891 C 191.345 327.084,190.882 327.024,189.338 325.481 C 188.345 324.488,185.109 322.566,182.147 321.210 C 177.701 319.174,175.739 318.837,170.906 319.275 C 154.879 320.728,145.312 335.821,150.594 351.322 L 152.188 356.000 157.607 356.000 L 163.025 356.000 160.482 351.971 C 156.932 346.348,156.431 342.778,158.450 337.492 C 162.426 327.082,174.212 324.259,182.962 331.621 C 185.089 333.412,186.184 335.568,187.028 339.633 C 188.110 344.846,188.020 345.510,185.591 350.190 C 184.166 352.937,183.000 355.368,183.000 355.592 C 183.000 355.817,185.925 356.000,189.500 356.000 C 193.075 356.000,195.989 355.663,195.976 355.250 C 195.964 354.837,195.064 351.155,193.976 347.068 C 191.188 336.582,191.413 332.016,195.098 324.295 C 198.554 317.052,198.546 316.311,194.855 303.268 L 192.526 295.036 194.513 291.343 C 199.312 282.423,210.236 273.000,215.778 273.000 C 218.178 273.000,217.974 273.371,212.778 278.444 C 209.711 281.438,205.975 286.397,204.474 289.464 C 201.944 294.634,201.793 295.641,202.394 303.270 C 202.751 307.797,203.060 312.299,203.082 313.275 C 203.118 314.914,203.318 314.895,205.691 313.029 C 209.094 310.351,215.037 308.830,221.358 309.018 C 230.624 309.293,230.863 309.214,227.314 307.050 C 221.678 303.613,220.420 298.103,223.950 292.314 C 226.236 288.564,228.121 287.419,233.374 286.586 L 237.249 285.971 235.492 288.736 C 234.526 290.256,232.833 292.495,231.731 293.710 C 230.090 295.520,229.851 296.699,230.415 300.210 C 230.794 302.570,231.267 305.518,231.465 306.763 C 231.664 308.008,235.004 312.428,238.886 316.585 C 242.892 320.874,246.340 325.570,246.856 327.440 C 247.798 330.853,246.035 345.146,244.017 350.455 C 242.793 353.674,244.547 356.000,248.198 356.000 C 250.472 356.000,250.528 355.791,250.171 348.721 C 249.687 339.137,251.125 334.276,256.123 328.598 C 262.353 321.520,266.511 319.796,277.081 319.909 C 281.920 319.961,286.919 320.413,288.189 320.913 C 289.460 321.413,292.944 324.321,295.931 327.376 C 301.336 332.902,301.370 332.977,302.757 342.215 C 303.523 347.322,304.121 352.512,304.086 353.750 C 304.029 355.759,304.504 356.000,308.511 356.000 C 313.441 356.000,314.008 355.222,311.035 352.532 C 308.192 349.959,306.069 341.485,306.710 335.275 C 307.682 325.859,314.721 321.032,325.677 322.267 C 332.966 323.089,338.356 328.186,340.088 335.897 C 341.333 341.439,339.732 346.785,335.262 352.008 L 331.844 356.000 337.172 355.983 L 342.500 355.966 345.000 350.233 C 351.345 335.683,345.039 320.117,331.579 317.105 C 321.256 314.795,307.513 317.990,302.978 323.755 C 301.890 325.138,300.999 325.872,300.997 325.385 C 300.996 324.898,299.647 323.600,298.000 322.500 C 296.353 321.400,295.004 320.110,295.003 319.632 C 295.001 319.155,296.797 316.968,298.993 314.772 C 302.622 311.143,303.327 310.836,306.743 311.399 C 319.361 313.478,324.032 313.161,332.049 309.681 C 335.310 308.266,335.921 308.287,339.549 309.939 C 352.641 315.896,360.048 334.004,355.622 349.229 C 354.730 352.297,354.000 355.076,354.000 355.404 C 354.000 355.732,355.512 356.000,357.359 356.000 C 360.617 356.000,360.785 355.799,362.910 349.324 C 364.116 345.652,366.426 341.140,368.045 339.296 C 369.663 337.453,371.934 334.089,373.091 331.821 C 374.683 328.702,375.411 328.039,376.081 329.099 C 377.818 331.845,374.723 343.227,370.337 350.230 C 369.051 352.282,368.000 354.419,368.000 354.980 C 368.000 355.569,370.749 356.000,374.500 356.000 C 378.167 356.000,381.000 355.564,381.000 355.000 C 381.000 354.416,384.432 353.990,389.250 353.976 C 395.583 353.958,398.828 353.406,403.214 351.602 L 408.928 349.252 410.042 352.626 L 411.155 356.000 420.694 356.000 C 429.322 356.000,430.181 355.833,429.684 354.250 C 425.463 340.803,424.815 333.191,427.459 328.080 C 428.340 326.376,429.654 320.986,430.380 316.102 C 431.955 305.506,433.690 302.390,442.713 293.950 C 459.628 278.126,483.603 275.478,504.784 287.095 L 512.069 291.089 511.784 280.438 L 511.500 269.787 505.162 267.406 C 478.191 257.276,450.697 262.331,430.577 281.121 L 423.298 287.919 418.303 283.105 C 413.181 278.168,403.805 273.000,399.969 273.000 C 398.043 273.000,398.276 272.448,402.156 267.813 C 416.536 250.638,439.717 237.611,462.413 233.950 C 473.165 232.215,494.484 233.223,503.737 235.903 C 507.718 237.057,511.205 238.000,511.487 238.000 C 511.769 238.000,512.000 233.087,512.000 227.083 L 512.000 216.166 507.098 215.114 C 504.402 214.536,498.538 213.758,494.067 213.385 C 486.017 212.714,483.457 211.592,486.122 209.904 C 487.850 208.809,502.081 208.813,507.750 209.909 C 511.953 210.722,512.000 210.699,512.000 207.866 C 512.000 205.164,511.757 204.999,507.750 204.980 C 500.037 204.943,491.361 203.229,485.891 200.661 C 482.926 199.269,479.150 197.805,477.500 197.407 C 470.494 195.718,465.833 189.803,465.833 182.602 C 465.833 179.318,466.914 176.228,470.118 170.355 C 472.475 166.035,474.774 162.346,475.228 162.158 C 476.541 161.613,480.143 154.000,479.088 154.000 C 478.564 154.000,477.878 154.787,477.563 155.750 C 477.249 156.713,475.476 158.479,473.624 159.675 C 469.620 162.262,463.541 169.447,462.058 173.347 C 461.476 174.878,461.000 178.730,461.000 181.908 C 461.000 193.523,468.694 201.989,479.995 202.806 C 483.298 203.045,486.000 203.565,486.000 203.963 C 486.000 204.360,484.313 205.499,482.250 206.494 C 480.188 207.490,477.306 208.910,475.846 209.652 C 471.368 211.926,469.418 211.258,464.455 205.750 C 456.557 196.983,451.000 186.064,451.000 179.308 C 451.000 177.424,450.590 176.135,450.088 176.445 C 449.587 176.755,447.675 174.644,445.839 171.754 C 444.003 168.864,442.160 165.973,441.745 165.329 C 441.187 164.465,441.841 164.374,444.245 164.982 C 446.035 165.435,448.696 166.073,450.157 166.399 C 452.214 166.858,452.696 167.445,452.291 168.996 C 451.374 172.503,453.881 171.154,456.000 167.000 C 457.122 164.800,458.384 163.000,458.805 163.000 C 461.022 163.000,463.001 156.811,463.010 149.846 C 463.026 137.821,468.709 127.613,478.446 122.117 C 483.352 119.349,484.864 119.000,491.956 119.000 C 498.301 119.000,501.105 119.514,505.596 121.500 C 508.705 122.875,511.418 124.000,511.624 124.000 C 511.831 124.000,512.000 119.080,512.000 113.067 C 512.000 103.061,511.833 102.082,510.026 101.508 C 508.940 101.164,507.069 99.446,505.867 97.691 C 500.245 89.479,492.796 83.922,488.500 84.734 C 484.507 85.489,480.933 87.299,481.288 88.387 C 481.488 88.999,483.842 90.665,486.520 92.090 C 489.197 93.514,493.053 96.555,495.088 98.849 C 498.566 102.769,500.747 107.586,499.574 108.760 C 498.877 109.456,495.076 104.843,495.033 103.250 C 495.015 102.563,494.550 102.000,494.000 102.000 C 493.450 102.000,493.000 101.298,493.000 100.441 C 493.000 99.584,492.597 99.131,492.105 99.435 C 491.612 99.740,490.974 99.374,490.685 98.622 C 488.610 93.215,468.000 90.811,468.000 95.976 C 468.000 96.293,469.816 96.380,472.035 96.168 C 483.161 95.107,491.565 99.935,493.935 108.750 C 494.563 111.088,495.622 113.007,496.289 113.015 C 497.091 113.025,497.022 113.333,496.085 113.926 C 494.862 114.701,491.087 114.602,490.543 113.781 C 490.440 113.627,489.188 111.458,487.761 108.963 C 483.894 102.203,478.782 100.237,471.169 102.583 C 467.809 103.619,463.976 103.853,457.500 103.420 C 452.550 103.090,446.589 103.261,444.254 103.802 L 440.008 104.786 440.437 101.325 C 440.673 99.422,442.044 96.320,443.484 94.432 C 446.011 91.119,446.337 91.000,452.863 91.000 C 462.074 91.000,474.301 87.677,480.782 83.413 C 489.056 77.968,490.814 77.970,497.915 83.434 C 501.243 85.996,505.330 90.073,506.996 92.495 C 508.663 94.916,510.470 97.172,511.013 97.508 C 511.643 97.897,512.000 93.510,512.000 85.392 C 512.000 78.393,511.716 72.951,511.369 73.298 C 511.021 73.645,509.784 73.399,508.619 72.750 C 507.453 72.102,506.275 71.552,506.000 71.528 C 505.725 71.505,504.403 70.712,503.063 69.768 L 500.626 68.050 504.815 59.275 C 507.119 54.449,509.678 50.355,510.502 50.177 C 511.784 49.900,512.000 46.249,512.000 24.860 L 512.000 -0.133 509.250 0.184 C 506.756 0.471,506.532 0.826,506.840 4.000 C 507.027 5.925,508.072 11.278,509.162 15.895 C 511.073 23.989,511.011 29.000,509.000 29.000 C 508.471 29.000,507.745 27.763,507.387 26.250 C 507.028 24.738,505.662 19.301,504.350 14.168 C 503.038 9.036,501.874 3.749,501.764 2.418 C 501.582 0.226,501.118 0.000,496.782 0.000 C 494.152 0.000,492.000 0.298,492.000 0.662 C 492.000 1.026,493.088 3.181,494.418 5.450 C 502.928 19.972,503.286 38.621,495.354 54.284 C 489.924 65.008,476.017 75.370,462.907 78.460 C 454.658 80.405,449.198 80.386,441.064 78.386 C 409.249 70.564,393.574 35.665,409.045 7.100 C 410.670 4.100,412.000 1.275,412.000 0.822 C 412.000 0.370,410.486 0.000,408.636 0.000 C 405.688 0.000,405.081 0.465,403.733 3.750 L 402.194 7.500 402.097 3.750 C 401.960 -1.537,398.941 -1.454,397.275 3.882 C 396.609 6.018,394.663 10.018,392.952 12.771 C 388.352 20.170,388.165 24.081,391.959 33.566 C 393.705 37.930,396.083 42.515,397.245 43.755 C 398.822 45.438,399.406 47.465,399.547 51.755 C 399.769 58.456,400.786 61.342,404.955 67.096 C 408.630 72.169,408.721 74.197,405.526 79.786 C 397.661 93.541,384.620 103.178,368.000 107.515 C 359.011 109.861,342.963 109.149,334.109 106.012 C 315.134 99.288,300.551 83.492,295.570 64.269 C 293.804 57.456,293.535 42.812,295.050 36.000 C 297.331 25.741,303.230 15.220,311.872 6.000 L 317.026 0.500 307.847 0.210 C 302.798 0.051,298.405 0.321,298.084 0.811 C 297.763 1.300,296.492 2.232,295.259 2.881 C 293.469 3.823,292.422 3.753,290.059 2.530 C 286.166 0.517,278.681 0.583,274.285 2.669 C 272.350 3.587,269.470 6.130,267.884 8.319 C 265.443 11.688,265.000 13.253,265.000 18.502 C 265.000 27.046,267.425 30.554,277.444 36.500 C 278.370 37.050,279.264 38.749,279.430 40.275 C 279.690 42.681,279.450 42.967,277.615 42.432 C 268.040 39.638,262.161 33.802,259.418 24.367 C 257.539 17.902,258.223 13.301,262.109 6.265 C 263.699 3.386,265.000 0.798,265.000 0.515 C 265.000 0.232,263.497 0.000,261.661 0.000 C 259.034 0.000,258.068 0.555,257.135 2.603 L 255.949 5.205 253.902 2.603 L 251.855 0.000 214.567 0.000 L 177.280 0.000 173.569 3.500 C 171.528 5.425,169.490 7.000,169.040 7.000 C 168.590 7.000,167.927 5.425,167.566 3.500 C 166.966 0.302,166.611 -0.000,163.455 -0.000 C 159.481 0.000,159.518 -0.089,161.500 4.654 C 163.970 10.565,163.400 13.958,158.750 21.023 C 155.253 26.337,150.424 30.757,149.320 29.653 C 149.184 29.518,149.732 27.219,150.537 24.544 C 152.304 18.673,152.405 11.907,150.828 5.076 C 149.709 0.226,149.508 -0.000,146.328 -0.000 C 144.498 -0.000,143.000 0.168,143.000 0.374 C 143.000 0.580,143.675 2.662,144.500 5.000 C 148.340 15.884,145.273 28.931,137.154 36.250 C 133.295 39.729,129.000 41.220,129.000 39.082 C 129.000 38.577,128.738 37.480,128.417 36.645 C 128.032 35.642,129.040 34.342,131.386 32.813 C 139.763 27.356,142.728 15.110,138.079 5.174 L 135.658 -0.000 116.876 -0.000 L 98.094 0.000 96.008 4.715 C 93.802 9.701,93.219 15.027,94.472 18.740 C 95.080 20.541,94.764 21.156,92.864 21.875 C 89.596 23.112,88.228 21.701,87.411 16.252 L 86.723 11.668 85.112 14.584 C 83.090 18.241,82.522 18.317,77.004 15.663 C 71.487 13.009,69.747 9.939,70.534 4.250 L 71.123 -0.000 64.061 -0.000 L 57.000 0.000 57.010 5.250 C 57.032 17.399,68.103 30.076,77.179 28.345 L 80.500 27.712 78.076 30.356 C 75.006 33.704,71.713 33.732,65.399 30.465 C 55.864 25.532,52.000 18.311,52.000 5.424 L 52.000 0.000 48.500 0.000 C 46.575 0.000,45.000 0.450,45.000 1.000 C 45.000 1.550,46.302 6.050,47.894 11.000 C 49.486 15.950,50.409 20.000,49.945 20.000 C 47.684 20.000,41.551 9.454,40.474 3.715 C 39.897 0.637,39.360 -0.000,37.343 -0.000 C 35.080 -0.000,34.956 0.263,35.569 3.750 C 36.386 8.393,39.233 15.114,42.072 19.102 C 45.017 23.237,43.911 23.738,39.801 20.131 C 35.768 16.589,31.446 9.001,30.473 3.750 L 29.777 0.000 23.275 0.000 L 16.773 0.000 21.636 4.750 M328.000 3.653 C 310.832 14.740,302.000 30.313,302.000 49.500 C 302.000 71.289,313.961 89.156,334.366 97.847 C 339.936 100.220,341.696 100.459,353.500 100.445 C 368.478 100.427,373.310 99.035,383.730 91.738 C 392.954 85.279,401.863 73.413,400.384 69.558 C 399.420 67.047,398.353 67.708,395.228 72.750 C 390.354 80.616,382.699 87.545,374.299 91.697 L 366.604 95.500 353.552 95.500 C 340.516 95.500,340.491 95.495,332.881 91.776 C 327.336 89.065,323.728 86.393,319.623 81.959 C 310.239 71.823,307.000 63.460,307.000 49.364 C 307.000 37.415,309.465 29.611,315.986 20.919 C 321.327 13.799,324.346 11.307,334.155 5.915 C 340.512 2.420,341.302 2.241,351.093 2.073 C 356.742 1.975,362.070 1.483,362.932 0.978 C 363.930 0.394,358.867 0.068,349.000 0.081 L 333.500 0.101 328.000 3.653 M365.405 1.155 C 364.962 1.870,365.130 2.038,365.845 1.595 C 366.480 1.203,367.000 1.381,367.000 1.992 C 367.000 3.186,372.946 6.000,375.468 6.000 C 377.508 6.000,377.400 4.768,375.133 2.153 C 373.079 -0.215,366.658 -0.874,365.405 1.155 M384.409 4.768 C 382.709 7.371,380.707 11.300,379.960 13.500 C 379.180 15.795,378.453 16.811,378.253 15.883 C 377.787 13.721,369.776 9.539,363.146 7.996 C 356.038 6.343,344.924 7.205,337.683 9.971 C 330.190 12.834,320.429 21.842,316.179 29.815 C 307.732 45.664,310.305 64.453,322.790 78.090 C 338.642 95.404,366.957 95.948,383.349 79.255 C 391.304 71.153,394.123 65.393,395.503 54.417 C 396.114 49.558,395.934 49.031,391.443 42.471 C 385.532 33.837,383.634 28.386,384.204 21.680 C 384.785 14.840,387.462 9.482,392.902 4.269 L 397.358 0.000 392.429 0.018 C 387.660 0.035,387.399 0.190,384.409 4.768 M429.386 4.295 C 421.141 12.721,417.824 20.159,417.824 30.217 C 417.824 38.806,420.138 45.730,425.112 52.023 C 429.811 57.967,434.753 61.415,441.514 63.466 C 460.510 69.228,480.377 58.321,485.583 39.273 C 488.839 27.356,485.476 15.613,475.909 5.497 L 470.710 0.000 452.105 0.045 L 433.500 0.091 429.386 4.295 M482.000 1.122 C 482.000 1.959,483.347 4.411,484.992 6.572 C 491.271 14.814,493.771 30.760,490.632 42.546 C 488.890 49.089,487.607 51.422,482.356 57.595 C 474.288 67.080,461.880 71.291,446.213 69.863 C 436.755 69.001,430.112 65.717,422.753 58.266 C 415.058 50.476,412.648 44.028,412.562 31.000 C 412.491 20.199,414.269 13.690,419.115 6.999 C 420.767 4.720,421.963 2.388,421.773 1.818 C 421.161 -0.016,414.132 11.671,411.929 18.186 C 409.097 26.562,409.585 38.769,413.098 47.410 C 420.817 66.399,444.102 77.270,463.875 71.116 C 476.031 67.333,485.384 59.325,490.763 48.096 C 493.205 42.997,493.446 41.429,493.472 30.448 L 493.500 18.396 488.635 9.948 C 483.153 0.429,482.000 -1.105,482.000 1.122 M78.115 2.632 C 74.518 5.151,75.894 11.000,80.083 11.000 C 82.850 11.000,84.217 2.681,81.615 1.682 C 80.853 1.390,79.278 1.817,78.115 2.632 M227.217 2.985 C 234.422 5.211,243.834 10.980,248.794 16.212 C 250.831 18.360,252.798 22.031,253.948 25.828 C 254.971 29.206,257.538 34.331,259.654 37.217 C 263.433 42.372,263.498 42.612,263.401 50.982 C 263.340 56.211,262.720 60.796,261.796 62.858 C 260.293 66.209,260.289 66.196,259.769 57.081 C 259.168 46.549,256.315 39.606,248.553 29.794 C 244.942 25.229,243.186 23.871,239.770 23.003 C 237.421 22.407,232.394 20.520,228.597 18.810 C 222.520 16.074,220.640 15.707,212.883 15.740 C 205.200 15.773,203.239 16.168,197.561 18.824 C 186.914 23.807,179.527 32.972,177.099 44.212 C 176.073 48.964,177.062 57.462,178.849 59.249 C 179.482 59.882,180.000 61.023,180.000 61.784 C 180.000 62.675,178.631 62.084,176.158 60.125 C 174.044 58.451,170.107 56.264,167.408 55.264 L 162.500 53.446 162.201 47.764 C 161.629 36.881,169.147 21.234,178.830 13.156 C 184.460 8.459,192.295 4.262,198.746 2.487 C 206.219 0.431,219.711 0.667,227.217 2.985 M0.000 3.493 C 0.000 4.257,1.916 5.051,4.750 5.462 C 7.362 5.841,11.975 7.527,15.000 9.209 C 19.714 11.829,20.218 11.950,18.525 10.055 C 14.837 5.928,-0.000 0.672,0.000 3.493 M125.250 7.954 C 128.937 12.080,129.020 18.035,125.464 23.268 C 124.069 25.321,122.144 27.000,121.185 27.000 C 119.368 27.000,106.511 21.844,105.294 20.627 C 103.806 19.139,105.189 12.441,107.651 9.213 C 110.843 5.028,113.397 3.907,118.500 4.450 C 121.379 4.757,123.271 5.739,125.250 7.954 M464.687 7.994 C 487.391 21.015,479.066 55.868,453.177 56.185 C 444.778 56.287,439.425 54.284,434.012 49.012 C 421.349 36.677,424.511 15.406,440.168 7.603 C 447.901 3.750,457.556 3.904,464.687 7.994 M286.851 7.098 C 290.226 8.274,290.869 10.430,288.720 13.368 C 287.654 14.825,286.962 14.936,284.580 14.031 C 282.237 13.140,281.376 13.255,279.812 14.670 C 277.283 16.959,277.738 22.077,280.595 23.492 C 282.137 24.256,282.501 25.055,281.971 26.515 C 281.574 27.607,281.426 28.806,281.641 29.181 C 282.533 30.732,279.859 30.979,277.178 29.592 C 273.119 27.493,271.000 23.777,271.000 18.758 C 271.000 12.847,274.006 8.636,279.500 6.850 C 282.511 5.871,283.419 5.901,286.851 7.098 M203.000 8.369 C 194.670 10.189,188.140 13.861,181.428 20.496 C 174.264 27.580,169.654 36.322,169.562 43.000 C 169.474 49.355,171.201 49.118,172.688 42.572 C 176.659 25.086,190.839 12.614,208.244 11.298 C 217.341 10.610,223.963 11.981,233.211 16.467 C 240.699 20.100,242.477 20.290,239.639 17.153 C 236.730 13.939,228.324 9.964,221.280 8.471 C 213.278 6.776,210.368 6.759,203.000 8.369 M251.989 8.487 C 252.713 9.359,252.906 10.704,252.457 11.737 C 251.754 13.353,251.653 13.334,251.238 11.500 C 250.989 10.400,250.328 8.938,249.770 8.250 C 249.101 7.427,249.096 7.000,249.755 7.000 C 250.305 7.000,251.311 7.669,251.989 8.487 M-0.000 13.066 C -0.000 16.734,0.205 16.981,4.250 18.190 C 15.239 21.473,21.778 35.354,17.869 47.101 C 16.183 52.165,9.483 58.637,4.359 60.149 C 0.181 61.383,-0.000 61.598,-0.000 65.330 L 0.000 69.223 3.750 68.537 C 12.919 66.860,22.909 57.561,25.642 48.159 C 30.523 31.369,20.650 13.832,4.250 10.163 L 0.000 9.213 -0.000 13.066 M114.000 12.000 C 112.900 13.100,112.000 14.350,112.000 14.777 C 112.000 16.372,115.165 20.000,116.557 20.000 C 118.199 20.000,122.000 16.509,122.000 15.000 C 122.000 13.703,118.297 10.000,117.000 10.000 C 116.450 10.000,115.100 10.900,114.000 12.000 M444.530 15.101 C 442.346 16.168,440.096 17.547,439.530 18.167 C 438.791 18.975,438.925 19.089,440.000 18.573 C 440.917 18.132,440.820 18.409,439.750 19.286 C 438.788 20.075,438.000 21.260,438.000 21.919 C 438.000 22.579,437.625 22.886,437.167 22.603 C 436.132 21.963,435.808 23.843,435.635 31.503 C 435.511 37.004,435.781 37.816,438.850 41.187 C 442.861 45.593,447.592 48.008,452.151 47.978 C 459.641 47.929,468.645 41.155,467.712 36.272 C 467.473 35.023,467.665 34.000,468.139 34.000 C 468.612 34.000,469.000 31.854,469.000 29.232 C 469.000 25.767,468.302 23.437,466.446 20.706 C 465.042 18.639,463.467 17.211,462.946 17.533 C 462.426 17.855,462.000 17.750,462.000 17.300 C 462.000 15.671,457.561 13.763,453.079 13.465 C 450.055 13.264,447.152 13.819,444.530 15.101 M291.408 21.510 C 290.691 24.366,287.605 26.446,285.360 25.585 C 284.059 25.086,284.069 24.740,285.438 22.785 C 286.297 21.559,287.000 19.620,287.000 18.477 C 287.000 17.335,287.547 15.853,288.214 15.186 C 289.922 13.478,292.262 18.110,291.408 21.510 M458.983 17.851 C 464.521 20.821,465.950 23.565,466.282 31.864 C 466.444 35.915,466.430 38.789,466.251 38.252 C 466.072 37.715,464.447 38.753,462.641 40.559 C 456.784 46.416,447.003 46.403,441.464 40.530 C 435.311 34.006,437.554 20.843,445.401 17.428 C 449.768 15.526,454.949 15.688,458.983 17.851 M363.177 19.033 C 368.773 20.587,376.291 26.073,378.206 30.000 C 385.624 45.213,386.226 47.006,385.514 51.758 C 383.711 63.780,378.178 71.878,367.942 77.477 C 363.123 80.113,361.527 80.456,354.000 80.471 C 346.716 80.485,344.690 80.091,339.839 77.713 C 333.320 74.518,327.704 68.758,324.640 62.122 C 321.378 55.058,321.666 42.295,325.243 35.392 C 328.475 29.155,336.571 21.674,342.275 19.654 C 347.234 17.898,357.945 17.579,363.177 19.033 M398.000 22.059 C 398.000 23.741,397.610 24.877,397.134 24.583 C 396.329 24.085,396.768 19.000,397.617 19.000 C 397.827 19.000,398.000 20.377,398.000 22.059 M446.455 24.455 C 441.326 29.583,444.851 39.000,451.899 39.000 C 459.491 39.000,463.320 29.253,457.646 24.372 C 454.028 21.260,449.617 21.293,446.455 24.455 M0.000 26.213 C 0.000 27.907,0.841 28.879,3.017 29.701 C 6.237 30.916,9.468 36.736,8.637 39.823 C 8.389 40.746,7.924 42.684,7.604 44.131 C 7.221 45.859,5.817 47.334,3.511 48.428 C 1.263 49.494,-0.000 50.797,-0.000 52.047 C 0.000 54.517,1.642 54.516,5.701 52.040 C 16.032 45.741,13.833 28.243,2.250 24.577 C 0.353 23.977,0.000 24.234,0.000 26.213 M205.946 26.832 C 199.291 31.071,193.982 36.849,191.088 43.000 C 188.833 47.793,188.500 49.812,188.500 58.698 C 188.500 69.091,187.457 70.764,185.924 62.830 C 184.264 54.240,184.844 44.876,187.374 39.444 C 190.228 33.316,196.828 27.429,202.969 25.536 C 209.964 23.380,210.797 23.742,205.946 26.832 M111.780 29.578 C 122.478 34.909,128.788 47.658,126.572 59.468 C 125.870 63.209,119.774 71.000,117.549 71.000 C 116.880 71.000,113.669 72.907,110.416 75.237 C 105.188 78.982,103.861 79.476,99.000 79.487 C 95.295 79.496,92.010 78.766,88.934 77.250 C 86.423 76.013,83.914 75.000,83.359 75.000 C 80.144 75.000,74.812 64.598,73.483 55.735 C 72.552 49.527,75.172 41.328,79.821 35.896 C 87.411 27.029,101.197 24.304,111.780 29.578 M237.067 29.886 C 242.887 32.641,248.036 37.503,251.653 43.656 C 254.270 48.108,254.500 49.309,254.500 58.500 C 254.500 70.526,252.995 74.062,244.616 81.720 C 231.730 93.497,212.632 92.282,200.618 78.920 C 194.647 72.279,192.621 66.046,193.210 56.127 C 193.725 47.451,195.284 43.816,201.290 37.301 C 205.463 32.775,211.034 29.324,216.500 27.879 C 221.628 26.524,232.133 27.549,237.067 29.886 M346.976 28.482 C 331.885 33.307,327.092 53.155,338.312 64.359 C 350.153 76.182,369.982 71.191,374.625 55.218 C 376.540 48.630,375.795 43.646,372.003 37.666 C 366.725 29.343,356.276 25.509,346.976 28.482 M30.883 39.500 C 30.548 48.530,30.059 51.306,28.152 55.000 C 23.276 64.446,13.904 71.632,5.102 72.674 C 1.608 73.088,0.000 73.732,0.000 74.719 C 0.000 78.386,16.450 71.315,22.882 64.882 C 31.545 56.220,36.287 40.430,32.757 32.000 C 31.325 28.580,31.282 28.750,30.883 39.500 M0.000 39.115 C 0.000 45.657,1.388 46.632,3.766 41.757 C 5.170 38.879,3.900 34.559,1.365 33.586 C 0.304 33.180,0.000 34.413,0.000 39.115 M94.500 33.853 C 86.129 36.589,81.064 42.966,80.339 51.682 C 79.943 56.436,80.279 58.320,82.177 61.987 C 87.519 72.305,98.191 75.292,108.892 69.464 C 118.792 64.072,122.553 53.904,118.071 44.646 C 113.913 36.058,103.018 31.069,94.500 33.853 M151.965 38.191 C 151.544 40.496,150.393 42.971,149.408 43.691 C 147.313 45.223,137.403 45.460,136.500 44.000 C 136.160 43.450,136.343 43.000,136.906 43.000 C 137.470 43.000,139.466 41.652,141.342 40.005 C 144.968 36.821,149.771 34.016,151.616 34.006 C 152.381 34.002,152.491 35.315,151.965 38.191 M361.759 35.995 C 367.026 39.206,369.171 43.543,368.750 50.128 C 368.297 57.205,366.079 60.635,360.303 63.190 C 345.547 69.717,332.578 54.089,341.109 40.061 C 344.706 34.146,355.304 32.059,361.759 35.995 M215.637 37.465 C 201.081 42.654,196.998 65.247,208.818 75.194 C 215.814 81.080,227.092 82.589,234.698 78.656 C 247.464 72.055,250.152 53.939,240.101 42.236 C 235.359 36.715,223.971 34.494,215.637 37.465 M347.360 40.460 C 344.415 42.523,342.656 47.350,343.401 51.323 C 345.377 61.857,361.058 62.694,363.895 52.417 C 365.118 47.990,363.467 43.141,359.883 40.631 C 356.991 38.605,350.142 38.512,347.360 40.460 M106.798 42.673 C 109.817 44.559,112.992 49.856,112.996 53.016 C 113.005 59.208,106.291 65.994,100.151 65.998 C 96.743 66.001,91.357 63.193,89.587 60.492 C 84.867 53.289,88.442 43.439,96.643 41.053 C 99.977 40.082,103.567 40.655,106.798 42.673 M231.034 44.250 C 242.845 50.212,242.823 66.739,230.996 72.807 C 225.788 75.479,221.176 75.216,215.609 71.932 C 211.583 69.557,208.000 63.006,208.000 58.022 C 208.000 52.951,212.214 46.598,217.223 44.119 C 222.665 41.425,225.490 41.452,231.034 44.250 M274.527 47.111 C 279.775 48.433,281.256 49.950,280.822 53.561 L 280.500 56.244 275.315 52.372 C 272.463 50.242,269.313 47.964,268.315 47.309 C 266.569 46.163,266.568 46.115,268.307 46.059 C 269.301 46.026,272.100 46.500,274.527 47.111 M97.011 50.487 C 96.290 51.356,96.045 53.044,96.423 54.548 C 96.973 56.740,97.546 57.076,100.284 56.811 C 102.766 56.571,103.575 55.974,103.827 54.195 C 104.451 49.793,99.722 47.221,97.011 50.487 M152.000 51.042 C 152.000 51.963,150.575 52.472,143.920 53.929 C 141.401 54.481,138.648 55.198,137.801 55.523 C 136.135 56.162,134.751 53.021,135.889 51.180 C 137.061 49.283,152.000 49.156,152.000 51.042 M68.000 52.565 C 68.000 53.426,65.756 56.446,63.014 59.276 C 56.819 65.669,55.000 69.415,55.000 75.779 C 55.000 83.961,58.295 89.439,66.251 94.486 C 69.673 96.657,77.601 96.776,81.577 94.716 C 83.184 93.883,86.155 91.356,88.177 89.101 C 91.540 85.350,91.668 85.000,89.677 85.004 C 88.480 85.006,85.286 86.131,82.581 87.504 C 76.642 90.517,74.847 90.588,69.544 88.021 C 60.931 83.852,59.255 73.006,66.064 65.500 C 67.896 63.481,68.000 63.212,68.000 60.500 C 68.000 57.082,69.805 59.353,70.704 63.903 C 71.431 67.578,71.348 69.394,70.372 71.153 C 66.234 78.615,73.172 85.190,80.848 81.081 C 82.723 80.078,88.680 81.436,92.305 83.694 C 92.962 84.103,94.625 84.293,96.000 84.115 C 98.213 83.830,97.856 84.468,92.890 89.675 C 89.804 92.911,86.541 96.987,85.637 98.734 C 83.734 102.415,79.595 103.628,72.334 102.632 C 61.392 101.133,53.128 94.437,50.118 84.634 C 46.327 72.285,50.129 60.791,60.500 53.246 C 64.060 50.656,68.000 50.298,68.000 52.565 M220.655 54.829 C 218.413 57.306,218.573 60.304,221.068 62.562 C 222.957 64.271,223.370 64.303,225.818 62.933 C 229.064 61.117,229.785 57.525,227.425 54.918 C 225.242 52.505,222.787 52.473,220.655 54.829 M281.000 58.131 C 281.000 60.743,279.698 61.909,277.872 60.932 C 276.812 60.364,276.184 59.511,276.478 59.035 C 276.772 58.560,276.447 57.935,275.756 57.646 C 275.065 57.358,275.962 57.190,277.750 57.274 C 279.538 57.357,281.000 57.743,281.000 58.131 M168.086 62.823 C 174.303 65.864,180.444 72.169,183.755 78.911 C 186.131 83.749,186.500 85.710,186.500 93.500 C 186.500 101.310,186.134 103.246,183.730 108.142 C 180.693 114.325,174.345 120.782,168.349 123.787 C 164.343 125.795,159.000 127.383,159.000 126.567 C 159.000 125.156,168.356 113.000,169.442 113.000 C 174.281 113.000,181.001 101.500,180.999 93.221 C 180.998 83.006,172.335 71.146,162.286 67.601 C 155.724 65.286,151.000 65.209,151.000 67.417 C 151.000 69.538,149.282 69.840,140.500 69.260 C 129.313 68.522,128.494 67.798,135.069 64.460 C 143.089 60.388,144.645 60.057,154.500 60.331 C 161.433 60.523,164.553 61.095,168.086 62.823 M507.217 63.422 C 506.261 65.521,506.435 66.055,508.522 67.422 C 511.861 69.610,512.000 69.513,512.000 65.000 C 512.000 61.783,511.640 61.000,510.161 61.000 C 509.149 61.000,507.824 62.090,507.217 63.422 M281.722 66.750 C 282.792 67.713,284.459 71.149,285.427 74.387 C 290.060 89.873,309.322 110.880,320.562 112.704 C 323.982 113.259,324.141 113.423,322.457 114.655 C 321.446 115.395,319.881 116.000,318.980 116.000 C 316.131 116.000,307.937 122.139,303.744 127.415 L 299.703 132.500 300.409 127.077 C 300.797 124.094,301.539 120.861,302.057 119.893 C 304.844 114.685,300.518 106.195,288.440 93.167 C 283.452 87.787,273.100 80.200,268.784 78.761 C 267.623 78.374,270.734 68.409,272.596 66.546 C 274.662 64.481,279.318 64.585,281.722 66.750 M191.652 74.750 C 194.105 80.018,202.708 91.271,205.349 92.666 C 209.763 94.997,219.543 96.112,226.177 95.041 C 232.581 94.008,242.462 90.682,244.750 88.789 C 245.526 88.148,246.000 88.126,246.000 88.733 C 246.000 90.360,239.817 95.089,234.338 97.652 C 226.893 101.134,213.745 102.706,204.842 101.180 C 194.816 99.460,194.000 98.861,194.000 93.212 C 194.000 89.208,192.497 82.444,189.532 73.102 C 188.445 69.676,189.769 70.706,191.652 74.750 M419.000 75.690 C 419.000 77.659,416.588 76.787,416.177 74.671 C 415.952 73.511,416.331 73.190,417.427 73.610 C 418.292 73.942,419.000 74.878,419.000 75.690 M144.437 77.425 C 154.880 82.535,160.446 91.754,160.479 104.000 C 160.496 110.228,160.022 112.474,157.682 117.239 C 155.044 122.611,149.688 128.085,144.380 130.834 C 141.551 132.298,134.000 133.962,134.000 133.120 C 134.000 132.549,137.434 129.002,147.188 119.500 C 152.601 114.226,154.608 102.785,151.447 95.218 C 147.079 84.762,136.587 80.113,121.938 82.142 C 118.304 82.646,114.323 82.685,113.090 82.229 C 111.029 81.466,111.263 81.175,116.011 78.590 C 123.361 74.590,125.702 74.006,132.755 74.411 C 136.915 74.650,140.829 75.660,144.437 77.425 M273.096 75.385 C 272.177 76.491,272.471 76.901,274.558 77.425 C 275.995 77.786,278.116 77.781,279.272 77.414 C 281.308 76.767,281.315 76.704,279.496 75.373 C 277.095 73.617,274.559 73.622,273.096 75.385 M160.689 76.946 C 163.401 78.177,165.861 80.374,167.663 83.174 C 170.039 86.867,170.450 88.554,170.473 94.697 C 170.490 99.103,170.022 102.374,169.267 103.131 C 167.511 104.890,167.060 104.061,165.922 96.999 C 164.645 89.067,162.928 85.679,157.180 79.750 C 151.996 74.403,153.117 73.508,160.689 76.946 M426.166 84.636 C 431.174 87.755,431.376 88.344,429.017 92.966 C 426.956 97.007,424.655 97.956,420.645 96.417 C 418.603 95.634,419.730 93.000,422.107 93.000 C 423.148 93.000,424.000 92.325,424.000 91.500 C 424.000 90.675,424.563 89.968,425.250 89.930 C 425.938 89.891,425.600 89.478,424.500 89.011 C 422.587 88.200,421.177 89.258,417.190 94.500 C 415.569 96.630,412.000 105.067,412.000 106.768 C 412.000 107.752,409.188 111.289,405.750 114.626 C 400.318 119.901,398.715 120.867,393.500 122.009 C 386.896 123.456,383.266 124.916,386.142 124.970 C 387.070 124.987,388.072 126.152,388.449 127.654 C 390.955 137.636,374.154 144.333,366.920 136.236 C 365.465 134.608,363.960 131.601,363.576 129.555 C 362.413 123.356,364.093 122.002,378.439 117.576 C 385.434 115.418,393.120 112.407,395.519 110.886 C 400.196 107.920,409.185 97.071,415.199 87.135 C 419.253 80.439,419.379 80.410,426.166 84.636 M125.286 90.322 C 135.947 96.569,140.664 111.832,135.231 122.500 C 130.228 132.325,123.523 136.431,112.467 136.439 C 106.611 136.444,104.657 135.989,100.791 133.723 C 92.129 128.647,87.977 121.383,88.022 111.384 C 88.062 102.508,94.264 93.179,103.146 88.635 C 108.247 86.025,119.404 86.875,125.286 90.322 M272.713 92.424 C 280.277 96.875,287.097 103.816,290.811 110.846 C 294.521 117.866,298.367 131.402,297.563 134.606 C 297.035 136.707,296.383 137.001,292.231 137.011 C 289.629 137.017,285.700 137.279,283.500 137.594 C 280.743 137.988,279.932 137.861,280.892 137.186 C 282.813 135.834,281.889 123.632,279.514 118.992 C 274.971 110.119,267.392 103.774,259.115 101.915 C 255.601 101.125,253.043 101.481,247.500 103.531 C 246.400 103.938,249.289 100.581,253.921 96.070 C 263.457 86.783,263.207 86.831,272.713 92.424 M11.750 90.080 C 9.481 91.402,9.517 94.253,11.829 96.345 C 15.099 99.305,19.000 97.757,19.000 93.500 C 19.000 89.546,15.501 87.895,11.750 90.080 M138.861 90.577 C 144.801 94.086,147.836 102.284,145.593 108.763 C 143.723 114.163,142.000 114.061,142.000 108.551 C 142.000 102.905,140.238 98.480,136.125 93.795 C 134.406 91.838,133.000 89.958,133.000 89.618 C 133.000 88.470,136.174 88.990,138.861 90.577 M104.500 94.417 C 100.556 96.178,96.481 100.602,94.553 105.218 C 88.220 120.378,104.694 136.072,120.128 129.582 C 126.667 126.832,132.025 118.784,131.978 111.782 C 131.933 104.994,126.006 96.452,119.685 94.064 C 115.844 92.613,108.141 92.792,104.500 94.417 M436.115 94.250 C 436.247 95.679,435.902 99.395,435.609 99.710 C 435.501 99.826,434.425 99.662,433.217 99.347 C 431.080 98.788,431.067 98.695,432.726 95.886 C 434.526 92.840,435.923 92.165,436.115 94.250 M268.513 100.378 C 278.435 107.099,282.857 112.920,285.637 122.916 C 287.453 129.450,289.546 130.111,288.712 123.887 C 287.219 112.756,273.536 97.000,265.362 97.000 C 264.203 97.000,265.365 98.245,268.513 100.378 M119.230 102.966 C 123.090 106.002,124.515 110.336,123.151 114.889 C 122.528 116.971,121.132 119.476,120.049 120.455 C 117.583 122.688,110.023 123.618,107.093 122.050 C 104.297 120.553,101.009 115.208,101.004 112.151 C 100.998 108.667,103.798 103.407,106.303 102.197 C 109.998 100.411,116.472 100.797,119.230 102.966 M426.205 103.554 C 431.797 105.459,438.549 111.067,439.417 114.526 C 439.829 116.167,439.435 118.147,438.323 120.030 L 436.586 122.971 434.252 118.060 C 431.251 111.745,426.478 108.734,419.256 108.598 C 414.670 108.512,414.011 108.243,414.006 106.450 C 413.993 101.865,418.268 100.850,426.205 103.554 M44.000 105.419 C 44.000 104.966,45.688 106.230,47.750 108.230 C 52.994 113.316,65.758 117.851,75.833 118.208 C 81.564 118.412,82.050 118.619,83.417 121.441 C 84.220 123.099,84.745 124.588,84.584 124.749 C 84.011 125.322,73.799 122.777,71.173 121.407 C 69.703 120.640,66.700 120.009,64.500 120.005 C 62.300 120.000,58.925 119.122,57.000 118.052 C 55.075 116.982,52.150 115.416,50.500 114.570 C 46.597 112.571,44.790 111.054,42.704 108.027 C 40.598 104.972,40.488 103.330,42.500 105.000 C 43.325 105.685,44.000 105.873,44.000 105.419 M256.208 109.061 C 266.169 111.730,273.869 122.269,274.183 133.661 L 274.353 139.807 266.605 148.153 C 262.344 152.744,258.103 156.806,257.179 157.180 C 256.256 157.554,253.250 157.889,250.500 157.924 C 235.513 158.118,225.104 148.294,224.695 133.571 C 224.537 127.907,224.963 126.351,228.586 119.356 C 232.011 112.743,233.354 111.133,237.077 109.182 C 241.735 106.740,247.415 106.705,256.208 109.061 M110.278 109.250 C 108.173 111.972,108.044 112.901,109.562 114.419 C 110.432 115.289,111.754 116.000,112.500 116.000 C 114.006 116.000,117.000 113.339,117.000 112.000 C 117.000 110.683,114.016 108.000,112.551 108.000 C 111.833 108.000,110.810 108.563,110.278 109.250 M474.017 110.988 C 475.951 111.526,479.101 113.291,481.017 114.911 L 484.500 117.856 471.000 117.678 C 457.597 117.501,457.473 117.520,453.800 120.330 C 448.219 124.600,445.681 130.657,446.182 138.513 C 446.519 143.811,447.118 145.584,449.629 148.713 C 451.301 150.796,454.070 153.400,455.784 154.500 C 458.096 155.985,458.751 157.015,458.325 158.500 C 457.528 161.280,457.437 161.326,454.297 160.543 C 449.960 159.461,442.524 151.093,440.509 145.028 C 434.879 128.077,447.504 110.029,465.000 110.015 C 468.025 110.013,472.083 110.451,474.017 110.988 M195.806 113.726 C 195.974 114.864,195.299 117.503,194.306 119.590 C 192.385 123.627,186.056 127.562,177.054 130.317 C 172.087 131.838,170.847 133.499,173.945 134.483 C 175.075 134.841,176.000 135.554,176.000 136.067 C 176.000 136.580,177.912 137.034,180.250 137.076 C 185.354 137.167,191.080 139.092,192.123 141.067 C 194.849 146.231,198.449 155.528,200.034 161.500 C 201.468 166.901,202.605 169.071,205.010 171.000 C 206.725 172.375,209.697 174.940,211.614 176.700 C 213.531 178.460,215.305 179.918,215.557 179.940 C 216.632 180.035,224.000 185.333,224.000 186.012 C 224.000 186.422,225.342 187.313,226.982 187.993 C 230.128 189.296,248.194 188.919,253.000 187.450 C 255.465 186.697,255.474 186.715,253.662 188.768 C 250.784 192.030,241.040 196.333,235.518 196.781 C 230.801 197.163,230.394 197.005,228.726 194.148 C 227.750 192.476,225.050 189.828,222.726 188.263 C 215.535 183.419,215.315 183.330,217.278 186.043 C 220.748 190.838,224.998 200.546,224.999 203.677 C 225.000 205.920,224.224 207.465,222.365 208.927 C 220.916 210.067,219.407 211.000,219.012 211.000 C 218.617 211.000,218.507 208.779,218.768 206.066 C 219.128 202.315,218.712 200.036,217.033 196.568 C 214.595 191.531,207.955 185.271,204.027 184.305 C 200.089 183.337,197.000 180.954,197.000 178.885 C 197.000 176.587,198.985 176.489,205.544 178.463 C 208.219 179.268,210.551 179.782,210.728 179.606 C 211.477 178.856,207.840 176.811,202.921 175.216 C 196.997 173.295,196.787 172.907,195.097 160.727 C 194.247 154.596,193.669 153.390,189.015 148.017 C 182.688 140.714,174.997 136.345,165.065 134.411 C 155.586 132.565,154.611 131.553,163.034 132.303 C 169.044 132.838,172.300 132.239,172.085 130.638 C 172.038 130.287,172.000 129.662,172.001 129.250 C 172.002 128.838,174.139 127.299,176.751 125.830 C 181.102 123.385,186.729 118.433,191.313 113.017 C 193.440 110.503,195.375 110.808,195.806 113.726 M228.629 112.309 C 227.601 112.964,225.351 114.406,223.629 115.513 C 218.649 118.717,216.497 124.156,216.515 133.500 C 216.533 143.068,218.658 148.503,225.121 155.515 C 231.323 162.244,237.747 165.222,247.293 165.795 L 255.085 166.262 254.793 172.881 L 254.500 179.500 246.000 179.482 C 238.278 179.465,236.783 179.123,229.668 175.742 C 212.739 167.698,202.000 151.203,202.000 133.245 C 202.000 126.808,204.698 115.496,206.612 113.907 C 207.894 112.843,218.853 111.387,227.000 111.199 C 230.076 111.127,230.273 111.262,228.629 112.309 M334.500 114.175 C 335.961 114.817,335.591 114.912,333.125 114.527 C 331.269 114.237,328.880 114.000,327.816 114.000 C 326.752 114.000,326.161 113.548,326.502 112.996 C 327.123 111.992,330.741 112.525,334.500 114.175 M241.129 115.623 C 233.957 119.197,230.688 124.227,230.249 132.367 C 229.840 139.958,232.419 145.026,238.907 149.383 C 243.432 152.423,254.089 154.571,252.587 152.141 C 252.199 151.514,250.701 151.000,249.257 151.000 C 245.162 151.000,238.219 147.154,235.223 143.225 C 231.529 138.383,231.352 129.369,234.841 123.744 C 236.132 121.663,237.648 120.282,238.240 120.648 C 238.828 121.012,239.029 120.855,238.686 120.301 C 236.814 117.272,252.641 115.729,257.865 118.430 C 261.467 120.293,265.693 126.458,266.826 131.502 C 267.537 134.668,267.885 135.120,268.498 133.675 C 270.823 128.192,262.421 116.641,254.349 114.223 C 248.593 112.498,247.078 112.659,241.129 115.623 M424.901 116.449 C 428.895 118.514,431.304 122.722,431.409 127.817 C 431.489 131.665,431.066 132.581,428.046 135.102 C 421.885 140.247,413.978 140.139,409.527 134.849 C 404.688 129.098,404.986 123.814,410.459 118.341 C 413.173 115.627,414.578 115.000,417.950 115.000 C 420.232 115.000,423.360 115.652,424.901 116.449 M36.500 122.750 C 33.132 131.022,24.813 135.459,17.039 133.130 C 13.111 131.953,7.518 128.149,8.408 127.259 C 8.690 126.977,12.695 126.690,17.307 126.623 C 25.290 126.506,25.950 126.320,31.049 122.750 C 33.994 120.688,36.769 119.000,37.216 119.000 C 37.662 119.000,37.340 120.688,36.500 122.750 M210.098 123.149 C 208.548 127.594,208.735 139.800,210.438 145.461 C 212.451 152.151,218.083 160.229,223.987 164.895 C 231.710 171.000,243.316 174.777,247.122 172.425 C 247.754 172.034,245.064 170.900,241.145 169.905 C 232.379 167.679,226.444 164.290,221.038 158.425 C 213.926 150.709,212.520 146.395,212.509 132.250 C 212.504 125.512,212.207 120.000,211.848 120.000 C 211.489 120.000,210.702 121.417,210.098 123.149 M338.282 121.345 C 340.052 122.085,342.077 123.386,342.782 124.236 C 344.820 126.694,339.737 128.009,333.297 126.690 C 324.690 124.927,316.206 128.839,312.307 136.369 C 310.246 140.348,310.274 149.695,312.358 153.725 C 314.620 158.099,319.497 161.844,324.605 163.131 C 327.560 163.875,329.724 165.208,331.088 167.124 L 333.136 170.000 328.934 170.000 C 316.085 170.000,305.631 160.514,304.303 147.651 C 303.404 138.937,307.906 128.729,314.576 124.358 C 321.034 120.127,332.025 118.730,338.282 121.345 M358.838 123.695 C 358.208 124.454,357.945 127.329,358.212 130.543 C 358.963 139.600,364.360 145.034,373.346 145.779 C 380.090 146.338,385.218 144.718,388.302 141.053 C 390.539 138.394,390.733 138.342,391.834 140.106 C 393.600 142.934,393.242 145.434,390.750 147.674 C 385.082 152.768,373.991 154.374,364.319 151.502 C 357.359 149.435,353.234 143.221,351.098 131.582 C 349.796 124.490,351.197 121.872,356.136 122.163 C 359.130 122.340,359.696 122.661,358.838 123.695 M399.766 126.503 C 400.565 136.919,407.066 143.833,416.900 144.725 C 422.126 145.199,423.439 144.933,427.435 142.591 C 429.946 141.120,432.000 139.395,432.000 138.758 C 432.000 137.934,432.309 137.909,433.073 138.673 C 433.663 139.263,434.000 141.265,433.823 143.123 C 433.549 145.991,432.828 146.839,429.038 148.750 C 420.791 152.909,408.836 151.110,402.166 144.707 C 395.527 138.335,392.140 127.713,395.545 123.950 C 398.061 121.170,399.420 121.992,399.766 126.503 M415.278 123.250 C 413.377 125.706,413.173 127.802,414.632 129.885 C 416.665 132.788,420.561 132.599,422.592 129.500 C 424.109 127.184,424.109 126.816,422.592 124.500 C 420.826 121.805,416.913 121.136,415.278 123.250 M468.425 123.878 C 468.723 124.361,467.139 125.966,464.905 127.444 C 459.645 130.925,457.573 135.720,458.454 142.368 L 459.111 147.318 456.806 145.801 C 447.427 139.631,453.505 123.122,465.191 123.023 C 466.671 123.010,468.126 123.395,468.425 123.878 M70.000 124.917 C 70.000 125.422,67.939 126.622,65.421 127.583 C 49.474 133.674,43.858 145.824,49.387 162.271 C 50.824 166.545,52.000 170.342,52.000 170.708 C 52.000 172.623,45.871 165.118,44.179 161.132 C 39.192 149.380,40.815 140.042,49.316 131.574 C 52.167 128.734,56.075 125.914,58.000 125.307 C 62.357 123.934,70.000 123.686,70.000 124.917 M243.806 128.040 C 241.262 130.584,240.867 131.604,241.386 134.290 C 242.185 138.428,245.338 141.000,249.611 141.000 C 256.636 141.000,259.695 132.604,254.545 127.455 C 251.205 124.114,247.532 124.314,243.806 128.040 M372.384 126.442 C 371.228 129.454,372.449 131.500,375.405 131.500 C 379.340 131.500,381.249 128.439,378.559 126.441 C 376.070 124.593,373.093 124.593,372.384 126.442 M487.358 126.904 C 478.749 129.095,472.313 136.422,471.091 145.424 C 470.709 148.244,470.055 151.102,469.639 151.775 C 469.138 152.586,469.559 153.000,470.884 153.000 C 473.502 153.000,476.000 149.343,476.000 145.510 C 476.000 138.718,485.086 130.995,493.066 131.004 C 496.942 131.008,502.088 133.812,506.098 138.105 C 509.645 141.902,512.000 141.907,512.000 138.119 C 512.000 131.456,496.747 124.514,487.358 126.904 M91.163 133.547 C 97.986 138.342,101.248 144.563,101.778 153.788 L 102.222 161.500 97.861 168.000 C 92.653 175.763,86.872 179.165,77.770 179.823 C 63.086 180.885,52.667 170.138,52.667 153.931 C 52.667 144.019,59.105 134.937,68.627 131.417 C 71.011 130.536,75.264 130.091,79.687 130.259 C 85.818 130.492,87.504 130.975,91.163 133.547 M332.342 132.676 C 333.205 133.538,329.062 138.000,327.398 138.000 C 325.567 138.000,322.000 142.917,322.000 145.441 C 322.000 146.635,323.125 149.136,324.500 151.000 C 329.500 157.777,326.076 159.923,319.984 153.830 C 312.216 146.062,318.033 132.120,329.083 132.023 C 330.504 132.010,331.971 132.304,332.342 132.676 M345.000 134.515 C 345.000 135.898,343.650 139.422,342.000 142.346 C 334.443 155.736,342.443 170.000,357.508 170.000 C 362.695 170.000,368.883 167.236,371.693 163.664 C 373.934 160.814,379.668 157.654,380.412 158.857 C 381.250 160.213,375.534 168.491,371.787 171.349 C 364.294 177.064,355.941 178.076,347.000 174.352 C 332.129 168.157,328.248 145.978,340.098 134.909 C 343.915 131.342,345.000 131.255,345.000 134.515 M68.985 137.374 C 60.500 141.867,56.136 151.822,58.934 160.301 C 59.577 162.247,62.063 165.647,64.460 167.857 C 69.897 172.868,75.341 174.518,81.250 172.946 C 99.539 168.081,101.216 143.838,83.768 136.548 C 78.565 134.374,74.190 134.618,68.985 137.374 M487.325 136.459 C 485.579 137.219,483.459 138.896,482.614 140.186 C 480.797 142.959,477.801 151.134,478.386 151.720 C 478.611 151.944,481.269 149.552,484.294 146.404 C 489.564 140.919,489.997 140.685,494.647 140.789 C 503.987 140.999,505.656 139.093,498.322 136.594 C 492.706 134.681,491.450 134.665,487.325 136.459 M168.147 140.945 C 176.005 143.897,182.237 149.705,186.213 157.782 C 189.196 163.841,189.499 165.292,189.491 173.479 C 189.483 181.415,189.144 183.142,186.678 187.840 C 182.543 195.717,176.886 201.319,169.747 204.605 C 164.518 207.012,162.197 207.480,155.500 207.480 C 148.791 207.480,146.485 207.013,141.209 204.585 C 133.231 200.914,125.984 193.228,122.974 185.247 C 120.034 177.453,120.506 165.760,124.054 158.494 C 127.689 151.051,137.527 141.522,143.577 139.586 C 149.966 137.540,160.660 138.132,168.147 140.945 M128.405 139.847 C 128.693 140.313,127.554 142.000,125.873 143.597 C 124.192 145.194,121.957 148.172,120.905 150.217 C 118.714 154.477,116.401 156.000,112.122 156.000 C 108.691 156.000,106.000 152.978,106.000 149.123 C 106.000 146.829,106.105 146.785,107.829 148.345 C 109.899 150.218,114.186 150.506,117.066 148.965 C 120.360 147.202,119.229 146.359,113.360 146.205 C 109.639 146.107,107.085 145.482,105.854 144.368 C 103.317 142.072,104.131 141.604,110.265 141.830 C 113.144 141.937,117.750 141.384,120.500 140.601 C 126.595 138.867,127.733 138.759,128.405 139.847 M298.129 145.174 C 298.591 145.903,298.976 147.963,298.985 149.750 L 299.000 153.000 293.468 153.000 C 283.657 153.000,277.451 156.861,273.377 165.500 C 266.275 180.561,276.584 197.045,293.066 196.978 C 296.143 196.966,300.239 196.166,302.509 195.135 C 306.319 193.404,312.265 187.704,313.207 184.880 C 313.508 183.977,314.672 184.526,316.935 186.641 C 321.080 190.516,320.607 192.370,313.941 198.363 C 308.025 203.682,301.822 206.000,293.503 206.000 C 283.529 206.000,277.466 203.655,271.414 197.456 C 258.732 184.466,258.733 165.533,271.415 152.543 C 275.564 148.294,277.986 146.747,283.076 145.096 C 289.927 142.873,296.692 142.909,298.129 145.174 M83.759 146.250 C 90.983 153.962,87.542 163.942,77.527 164.322 C 73.385 164.479,72.495 164.118,69.918 161.234 C 65.484 156.271,66.260 147.641,71.364 145.170 C 75.322 143.253,81.452 143.787,83.759 146.250 M349.930 150.795 C 349.975 152.932,350.901 154.992,352.562 156.653 C 354.891 158.982,355.610 159.154,360.466 158.548 C 366.759 157.761,368.143 158.956,364.375 161.920 C 360.215 165.192,352.928 164.801,348.766 161.082 C 345.838 158.466,345.500 157.603,345.500 152.736 C 345.500 146.644,347.776 142.206,349.133 145.653 C 349.532 146.669,349.891 148.983,349.930 150.795 M146.852 150.391 C 132.203 155.624,126.505 173.555,135.307 186.721 C 141.260 195.624,152.736 199.257,164.128 195.844 C 169.636 194.193,176.484 187.071,178.553 180.840 C 184.895 161.745,165.965 143.563,146.852 150.391 M493.444 150.886 C 479.614 157.168,475.548 176.853,485.748 188.143 C 491.707 194.739,496.846 196.565,508.250 196.140 C 511.591 196.015,512.000 195.715,512.000 193.386 C 512.000 190.879,511.828 190.799,507.750 191.409 C 502.140 192.248,494.180 189.841,490.763 186.274 C 485.059 180.319,483.538 171.764,486.890 164.500 C 490.459 156.768,495.382 154.000,505.565 154.000 C 511.762 154.000,512.000 153.908,512.000 151.500 C 512.000 149.061,511.823 149.001,504.750 149.022 C 499.881 149.037,496.168 149.649,493.444 150.886 M74.916 151.867 C 73.064 153.367,72.911 153.964,73.902 155.817 C 76.050 159.831,81.918 157.467,80.545 153.140 C 79.653 150.331,77.433 149.829,74.916 151.867 M439.333 154.234 C 440.451 155.737,441.146 157.188,440.876 157.457 C 440.161 158.172,433.000 153.114,433.000 151.894 C 433.000 149.922,437.310 151.514,439.333 154.234 M36.025 155.000 C 36.428 155.825,37.506 158.243,38.421 160.373 C 40.006 164.062,40.000 164.214,38.293 163.560 C 35.484 162.485,24.067 154.591,24.032 153.700 C 23.972 152.184,35.247 153.406,36.025 155.000 M388.343 161.750 C 385.965 166.563,383.561 172.962,383.002 175.970 C 382.031 181.202,382.102 181.551,384.629 183.970 C 386.082 185.362,386.988 185.985,386.641 185.355 C 386.295 184.725,386.621 183.975,387.367 183.689 C 388.175 183.380,388.989 180.810,389.383 177.335 C 390.171 170.369,393.507 162.770,398.048 157.598 C 401.203 154.005,401.574 153.857,405.929 154.456 C 408.443 154.801,414.100 155.409,418.500 155.805 L 426.500 156.526 419.385 157.831 C 409.006 159.734,403.662 163.603,398.982 172.606 C 396.950 176.514,394.436 180.634,393.394 181.761 C 392.352 182.888,390.662 185.017,389.638 186.492 C 388.286 188.439,387.195 189.023,385.661 188.622 C 384.046 188.199,382.550 189.181,379.319 192.784 C 375.942 196.549,375.078 197.097,375.033 195.500 C 375.001 194.400,373.923 191.659,372.636 189.409 C 368.407 182.013,368.437 180.381,372.856 177.591 C 378.439 174.067,382.833 168.306,384.634 162.150 C 386.230 156.697,388.937 153.000,391.334 153.000 C 392.218 153.000,391.210 155.951,388.343 161.750 M19.634 158.536 C 27.737 163.265,36.000 174.484,36.000 180.757 L 36.000 183.270 33.836 180.385 C 29.975 175.239,23.583 168.847,19.983 166.531 C 18.049 165.287,15.045 161.983,13.307 159.188 L 10.148 154.106 12.824 155.115 C 14.296 155.669,17.360 157.209,19.634 158.536 M163.698 157.096 C 168.484 159.413,172.709 165.432,173.659 171.285 C 174.252 174.939,171.419 182.774,168.232 186.296 C 163.897 191.087,153.675 192.405,147.055 189.028 C 133.907 182.321,133.974 163.677,147.168 157.146 C 152.644 154.435,158.168 154.419,163.698 157.096 M0.086 165.500 C 0.048 171.658,0.337 174.026,1.000 173.000 C 2.184 171.168,2.184 161.255,1.000 158.500 C 0.432 157.178,0.122 159.553,0.086 165.500 M301.266 160.255 C 305.154 162.802,308.847 169.168,309.529 174.500 C 310.072 178.742,309.812 180.027,307.811 182.976 C 306.514 184.888,303.888 187.515,301.976 188.814 C 299.028 190.816,297.553 191.117,292.267 190.791 C 287.027 190.469,285.535 189.937,282.894 187.454 C 276.703 181.630,275.419 174.305,279.303 166.960 C 283.513 158.999,294.315 155.701,301.266 160.255 M497.500 159.536 C 485.606 165.578,487.460 183.317,500.324 186.545 C 501.810 186.918,505.045 186.920,507.513 186.550 C 511.700 185.923,512.000 185.674,512.000 182.832 C 512.000 180.302,511.704 179.918,510.250 180.563 C 509.288 180.991,506.659 181.528,504.408 181.758 C 501.116 182.095,499.748 181.687,497.408 179.675 C 494.969 177.577,494.500 176.420,494.500 172.500 C 494.500 168.571,494.967 167.425,497.433 165.304 C 499.839 163.235,501.097 162.871,504.433 163.280 C 506.670 163.555,509.288 164.102,510.250 164.497 C 511.686 165.085,512.000 164.679,512.000 162.232 C 512.000 159.692,511.537 159.157,508.875 158.625 C 503.937 157.637,500.733 157.894,497.500 159.536 M433.048 165.253 C 436.378 167.497,439.183 171.469,440.462 175.750 C 441.502 179.228,439.366 178.515,433.824 173.532 C 426.811 167.226,423.835 166.888,414.837 171.377 C 410.876 173.353,407.439 174.772,407.198 174.532 C 406.958 174.291,407.612 172.611,408.653 170.797 C 412.793 163.584,426.088 160.563,433.048 165.253 M107.480 172.551 C 109.671 181.858,109.076 187.296,104.939 195.743 C 102.765 200.182,100.289 203.284,96.374 206.473 C 90.810 211.005,88.428 211.962,76.877 214.300 C 69.613 215.770,68.036 218.259,74.000 218.842 C 81.840 219.609,94.861 214.963,101.701 208.958 C 107.285 204.055,107.166 205.728,101.474 212.147 C 96.742 217.483,91.797 219.394,81.591 219.830 C 75.129 220.106,70.872 219.716,66.091 218.410 L 59.500 216.609 63.000 215.697 C 67.686 214.476,75.913 210.248,79.000 207.475 C 80.375 206.239,83.075 204.449,85.000 203.496 C 94.685 198.703,99.668 191.306,100.660 180.253 C 101.229 173.910,103.724 165.000,104.931 165.000 C 105.355 165.000,106.501 168.398,107.480 172.551 M117.871 185.315 C 119.842 190.232,118.918 191.690,116.783 187.033 C 114.483 182.016,113.314 171.636,114.565 167.336 C 115.214 165.106,115.534 166.422,116.066 173.500 C 116.439 178.450,117.251 183.767,117.871 185.315 M152.219 168.559 C 149.583 170.405,149.240 175.098,151.571 177.429 C 156.337 182.194,163.927 175.106,159.750 169.792 C 157.829 167.348,154.683 166.833,152.219 168.559 M501.750 169.080 C 499.365 170.469,499.517 174.671,502.000 176.000 C 506.462 178.388,510.280 172.451,506.250 169.392 C 504.146 167.795,503.976 167.783,501.750 169.080 M28.089 181.602 C 32.118 187.669,34.000 193.512,34.000 199.955 C 34.000 206.443,32.571 211.471,31.002 210.501 C 30.451 210.161,30.000 208.736,30.000 207.335 C 30.000 199.484,25.307 188.837,18.845 182.030 C 16.357 179.410,13.000 172.720,13.000 170.384 C 13.000 168.153,25.161 177.194,28.089 181.602 M42.245 173.503 C 42.997 177.436,41.384 178.539,40.131 174.947 C 38.658 170.719,38.705 169.949,40.396 170.599 C 41.164 170.893,41.996 172.200,42.245 173.503 M289.035 171.934 C 286.869 175.981,289.052 180.000,293.416 180.000 C 295.943 180.000,299.000 177.167,299.000 174.826 C 299.000 170.586,291.000 168.264,289.035 171.934 M319.264 174.250 C 320.494 174.938,323.211 176.983,325.302 178.795 C 331.741 184.374,337.124 185.306,346.495 182.463 C 349.284 181.617,352.763 181.228,354.375 181.582 L 357.262 182.216 354.381 184.564 C 348.191 189.610,336.537 191.505,329.578 188.597 C 323.909 186.229,315.000 177.032,315.000 173.550 C 315.000 172.622,316.913 172.936,319.264 174.250 M339.559 176.468 C 341.398 177.859,341.334 177.938,338.332 177.968 C 334.613 178.006,332.000 177.149,332.000 175.893 C 332.000 174.454,337.443 174.868,339.559 176.468 M54.500 177.807 C 56.348 178.343,56.317 178.431,54.090 178.967 C 48.678 180.270,45.483 189.874,47.962 197.386 C 49.615 202.393,56.475 206.468,62.004 205.726 C 66.983 205.058,71.310 201.974,73.377 197.619 C 75.309 193.546,75.493 187.898,73.750 186.138 C 72.746 185.125,73.090 184.953,75.500 185.268 C 78.315 185.635,78.519 185.958,78.812 190.513 C 79.234 197.067,78.537 199.319,74.751 203.631 C 70.718 208.224,66.539 210.001,59.782 209.996 C 54.004 209.992,49.165 207.715,46.610 203.798 C 40.705 194.745,44.091 173.727,50.992 176.599 C 51.822 176.945,53.400 177.488,54.500 177.807 M469.630 178.250 C 468.665 181.852,468.891 183.969,470.635 187.643 C 472.181 190.901,477.525 194.808,478.755 193.579 C 479.067 193.266,478.163 190.870,476.746 188.255 C 475.328 185.640,473.855 181.813,473.473 179.750 C 472.702 175.594,470.566 174.760,469.630 178.250 M431.096 178.569 C 431.868 179.156,433.850 179.717,435.500 179.814 C 439.227 180.033,445.000 183.019,445.000 184.727 C 445.000 186.370,445.260 186.428,438.937 183.372 C 434.453 181.204,431.660 180.659,423.000 180.261 C 417.225 179.996,410.025 180.239,407.000 180.801 C 403.975 181.363,401.276 181.601,401.002 181.330 C 400.278 180.614,404.148 177.973,405.078 178.548 C 405.509 178.815,406.105 178.639,406.402 178.159 C 407.173 176.911,429.404 177.280,431.096 178.569 M92.041 184.750 C 91.145 189.616,89.452 192.688,86.920 194.043 C 84.989 195.076,84.901 194.887,85.193 190.349 C 85.460 186.181,85.937 185.273,88.898 183.283 C 90.767 182.027,92.394 181.000,92.514 181.000 C 92.633 181.000,92.421 182.688,92.041 184.750 M371.639 182.502 C 371.956 183.328,374.114 185.285,376.435 186.851 C 380.585 189.653,380.691 189.669,382.938 187.849 C 384.194 186.832,384.674 186.000,384.005 186.000 C 383.336 186.000,381.452 184.875,379.818 183.500 C 376.464 180.678,370.668 179.971,371.639 182.502 M64.530 183.448 C 68.704 185.192,70.479 188.633,69.606 193.286 C 68.484 199.269,62.657 202.343,56.933 199.972 C 50.554 197.330,49.315 188.172,54.784 184.090 C 58.042 181.659,59.947 181.533,64.530 183.448 M431.909 186.895 C 442.870 190.306,451.551 197.259,457.480 207.375 C 458.970 209.919,460.935 212.050,461.845 212.112 C 463.519 212.226,450.770 214.827,448.000 214.937 C 447.175 214.970,445.243 213.007,443.706 210.575 C 440.623 205.694,433.669 200.768,427.500 199.096 C 409.132 194.116,390.530 206.288,388.347 224.715 C 387.518 231.721,388.661 238.222,391.446 242.325 L 393.788 245.776 391.347 246.888 C 390.004 247.500,387.854 248.000,386.568 248.000 C 382.127 248.000,381.358 244.957,380.698 224.784 L 380.086 206.067 384.977 200.715 C 391.405 193.682,396.751 190.079,404.856 187.316 C 413.289 184.442,423.516 184.282,431.909 186.895 M57.200 188.200 C 55.467 189.933,55.724 192.440,57.829 194.345 C 61.099 197.305,65.000 195.757,65.000 191.500 C 65.000 190.345,64.460 188.860,63.800 188.200 C 63.140 187.540,61.655 187.000,60.500 187.000 C 59.345 187.000,57.860 187.540,57.200 188.200 M201.556 189.035 C 205.508 190.511,210.304 195.458,212.633 200.459 C 215.964 207.611,215.773 213.661,212.006 220.335 C 208.217 227.049,205.549 229.542,200.096 231.466 C 188.170 235.674,176.845 230.615,170.618 218.300 C 169.045 215.189,168.361 211.028,169.631 212.298 C 169.979 212.645,171.093 212.486,172.107 211.943 C 173.649 211.118,174.064 211.410,174.640 213.728 C 176.571 221.501,183.523 227.000,191.418 227.000 C 198.379 227.000,202.518 224.830,205.986 219.361 C 209.160 214.356,209.995 207.748,208.087 202.729 C 206.635 198.911,201.583 194.491,197.151 193.163 C 193.281 192.004,193.128 191.812,194.202 189.456 C 195.357 186.921,195.825 186.894,201.556 189.035 M411.000 191.617 C 404.098 193.977,400.938 195.271,401.269 195.603 C 401.484 195.817,404.095 195.270,407.072 194.386 C 412.553 192.758,426.422 192.859,431.906 194.566 C 433.522 195.069,434.095 194.963,433.651 194.245 C 432.659 192.639,414.254 190.504,411.000 191.617 M357.019 197.037 C 360.745 204.340,364.448 222.508,363.341 228.046 C 362.806 230.721,362.576 230.808,355.145 231.149 C 346.292 231.555,338.465 234.909,332.363 240.910 C 329.804 243.426,329.200 243.752,330.341 242.000 C 331.236 240.625,333.551 237.974,335.485 236.110 C 338.610 233.095,338.998 232.153,338.985 227.610 C 338.955 217.156,335.020 205.675,328.726 197.678 L 325.718 193.857 329.609 194.672 C 335.322 195.868,344.923 195.411,349.500 193.725 C 351.700 192.914,353.844 192.450,354.264 192.693 C 354.685 192.937,355.924 194.891,357.019 197.037 M261.082 196.116 C 263.255 199.168,263.258 199.209,261.216 198.116 C 260.070 197.502,257.189 196.985,254.816 196.967 L 250.500 196.933 252.861 194.967 C 256.192 192.191,258.520 192.517,261.082 196.116 M200.558 202.251 C 201.901 203.847,203.050 205.906,203.111 206.827 C 203.493 212.610,201.338 218.213,198.055 219.970 C 196.997 220.537,194.102 221.000,191.622 221.000 C 186.299 221.000,183.013 218.582,180.067 212.500 L 178.130 208.500 184.167 202.370 L 190.204 196.241 194.160 197.795 C 196.335 198.650,199.215 200.655,200.558 202.251 M395.388 199.084 C 393.249 200.781,391.087 202.918,390.582 203.834 C 390.077 204.750,391.877 203.511,394.582 201.080 C 397.287 198.648,399.688 196.511,399.917 196.330 C 400.146 196.148,400.095 196.000,399.804 196.000 C 399.513 196.000,397.526 197.388,395.388 199.084 M128.782 203.760 C 134.822 208.050,146.514 213.633,150.836 214.293 C 153.427 214.688,157.000 217.840,157.000 219.731 C 157.000 224.464,172.032 243.977,175.691 243.994 C 176.346 243.997,177.157 244.445,177.493 244.989 C 177.856 245.576,177.407 245.710,176.388 245.319 C 175.224 244.872,174.904 245.036,175.395 245.830 C 175.793 246.474,175.674 247.000,175.132 247.000 C 173.681 247.000,174.625 252.476,176.632 255.704 C 179.596 260.470,182.125 261.954,187.327 261.978 C 193.630 262.007,198.000 258.128,198.000 252.504 C 198.000 249.618,197.647 248.921,196.313 249.178 C 195.385 249.357,194.253 250.945,193.796 252.707 C 191.657 260.961,181.502 260.834,179.418 252.528 C 178.437 248.622,179.536 246.681,181.985 247.992 C 183.093 248.585,184.000 249.674,184.000 250.413 C 184.000 251.151,184.727 252.358,185.615 253.095 C 187.001 254.246,187.512 254.087,189.231 251.968 C 191.156 249.594,191.161 249.488,189.366 249.190 C 188.340 249.019,185.863 248.256,183.863 247.493 C 181.863 246.731,179.951 246.383,179.613 246.720 C 179.276 247.057,179.000 246.827,179.000 246.209 C 179.000 245.068,185.126 245.202,195.305 246.566 C 198.964 247.057,200.528 246.832,201.861 245.626 C 203.500 244.142,203.626 244.311,203.840 248.271 C 203.966 250.597,204.297 253.250,204.575 254.166 C 204.854 255.082,204.613 256.121,204.041 256.475 C 202.703 257.302,202.680 261.000,204.013 261.000 C 204.606 261.000,204.398 262.504,203.513 264.622 C 202.681 266.614,202.000 269.337,202.000 270.672 C 202.000 274.744,198.775 279.962,190.829 288.747 C 188.853 290.931,188.715 290.945,185.861 289.259 C 184.247 288.305,183.280 287.446,183.713 287.350 C 184.146 287.254,185.737 286.902,187.248 286.569 C 191.438 285.645,195.149 279.313,195.562 272.381 C 195.749 269.256,196.373 266.227,196.951 265.649 C 199.376 263.224,197.749 263.033,194.923 265.411 C 188.521 270.798,177.664 267.874,172.231 259.299 C 169.551 255.070,169.253 253.877,169.722 249.250 C 170.081 245.707,169.888 244.000,169.127 244.000 C 166.875 244.000,167.806 255.279,170.496 260.581 C 173.290 266.089,173.495 268.150,171.881 274.557 C 170.615 279.585,171.143 279.455,159.219 277.689 C 152.486 276.692,151.177 276.223,152.219 275.181 C 153.126 274.274,153.500 270.191,153.500 261.200 C 153.500 248.996,153.375 248.236,150.305 241.734 C 142.791 225.818,124.573 213.826,110.033 215.223 L 105.357 215.672 109.191 212.208 C 111.300 210.303,114.226 206.129,115.693 202.933 C 118.757 196.258,118.162 196.220,128.782 203.760 M341.984 203.542 C 341.220 205.551,341.397 208.338,342.673 214.374 C 343.618 218.843,344.679 222.725,345.031 223.000 C 345.383 223.275,346.134 224.348,346.701 225.385 C 347.697 227.208,347.800 227.200,349.865 225.135 C 352.365 222.635,352.520 219.544,350.521 212.033 C 349.056 206.525,346.382 201.961,344.195 201.232 C 343.545 201.015,342.550 202.055,341.984 203.542 M188.306 206.442 C 185.615 208.783,185.563 208.998,187.032 211.692 C 188.726 214.799,193.131 215.966,195.560 213.950 C 197.787 212.102,197.344 207.355,194.777 205.557 C 191.880 203.527,191.613 203.564,188.306 206.442 M119.180 208.246 C 119.430 209.999,120.866 210.978,125.727 212.708 C 147.255 220.369,160.965 241.355,159.375 264.214 C 158.707 273.803,160.503 276.796,163.474 271.050 C 165.370 267.385,165.472 254.952,163.678 246.393 C 161.755 237.217,149.507 218.000,145.582 218.000 C 144.931 218.000,141.721 216.286,138.449 214.191 C 132.346 210.283,122.854 206.000,120.297 206.000 C 119.380 206.000,118.976 206.812,119.180 208.246 M271.282 209.212 C 282.608 214.514,289.702 222.384,293.625 234.000 C 295.032 238.164,295.444 242.080,295.323 250.123 C 295.181 259.478,294.840 261.388,292.467 266.123 C 289.243 272.556,287.436 274.723,283.677 276.667 C 281.108 277.995,280.331 277.929,275.175 275.939 C 272.054 274.735,268.604 273.425,267.510 273.028 C 265.827 272.418,266.247 271.984,270.227 270.224 C 273.886 268.605,275.757 266.855,278.631 262.363 C 281.807 257.397,282.393 255.560,282.795 249.297 C 283.071 244.986,282.746 240.165,281.998 237.494 C 280.460 231.999,274.441 224.932,268.151 221.234 C 264.011 218.800,262.512 218.501,254.500 218.507 C 244.261 218.515,240.373 220.034,233.593 226.674 C 224.972 235.117,222.880 248.164,228.358 259.321 C 230.005 262.674,232.217 265.597,233.577 266.217 C 234.875 266.808,235.700 267.677,235.410 268.146 C 234.687 269.315,222.296 269.229,220.075 268.040 C 214.657 265.140,211.425 246.966,214.457 236.450 C 218.514 222.383,225.913 214.165,239.736 208.373 C 244.748 206.273,246.805 205.993,255.500 206.231 C 263.924 206.462,266.411 206.932,271.282 209.212 M428.565 207.890 C 430.801 208.906,434.176 211.054,436.065 212.663 C 437.954 214.273,440.512 215.519,441.750 215.431 C 444.935 215.207,444.556 215.740,440.250 217.542 C 431.130 221.359,425.224 222.780,420.631 222.262 C 415.289 221.660,412.633 223.293,411.627 227.801 C 410.839 231.329,409.758 232.564,402.003 238.797 C 398.085 241.945,395.346 243.538,395.103 242.809 C 394.881 242.144,395.166 241.445,395.737 241.254 C 396.399 241.034,396.584 237.872,396.248 232.496 C 395.678 223.364,396.528 219.932,400.793 214.142 C 406.132 206.894,419.664 203.848,428.565 207.890 M320.986 212.750 C 324.182 220.869,324.753 232.136,322.474 242.114 C 320.458 250.939,318.966 252.832,313.374 253.658 C 311.243 253.973,306.839 255.530,303.586 257.118 C 300.333 258.705,297.516 259.849,297.326 259.659 C 297.136 259.469,298.591 257.204,300.560 254.626 C 306.556 246.773,309.403 239.485,309.790 231.000 C 310.242 221.086,308.374 215.483,304.635 215.539 C 300.293 215.604,301.637 213.534,307.750 210.741 C 318.407 205.872,318.270 205.851,320.986 212.750 M246.000 212.369 C 234.811 215.636,227.006 222.070,222.381 231.839 C 219.152 238.659,218.131 248.825,220.004 255.513 C 221.482 260.792,223.321 262.677,222.235 257.800 C 221.831 255.985,221.510 250.450,221.523 245.500 C 221.550 234.886,223.604 229.615,230.313 222.945 C 237.091 216.208,243.738 213.646,254.478 213.635 C 266.226 213.623,271.927 215.994,279.302 223.959 C 285.080 230.201,286.944 234.749,287.748 244.572 C 288.289 251.183,286.149 260.520,283.070 264.978 C 280.235 269.083,279.684 270.687,282.029 268.010 C 294.012 254.328,291.799 232.098,277.255 220.041 C 268.207 212.541,255.822 209.501,246.000 212.369 M412.750 213.162 C 411.238 213.715,410.000 214.820,410.000 215.619 C 410.000 216.685,410.465 216.826,411.750 216.151 C 412.712 215.646,415.410 214.916,417.745 214.529 C 420.079 214.142,422.243 213.415,422.554 212.913 C 423.300 211.706,416.246 211.886,412.750 213.162 M165.563 220.546 C 168.282 226.695,173.297 232.059,179.277 235.216 C 182.630 236.987,185.184 237.451,191.682 237.473 C 199.388 237.498,200.042 237.329,202.932 234.563 L 206.000 231.626 206.000 235.241 C 206.000 241.385,202.144 243.560,191.500 243.422 C 179.692 243.270,170.303 238.368,163.878 229.000 C 159.721 222.940,157.928 216.280,160.093 214.942 C 162.039 213.740,162.979 214.703,165.563 220.546 M315.035 216.000 C 314.349 224.011,314.684 243.940,315.500 243.673 C 317.242 243.103,319.102 233.729,318.710 227.500 C 318.364 222.002,315.333 212.518,315.035 216.000 M406.131 217.342 C 405.519 218.080,405.313 218.980,405.675 219.342 C 406.037 219.704,405.733 220.000,405.000 220.000 C 404.267 220.000,403.963 220.296,404.325 220.658 C 404.687 221.020,404.481 221.920,403.869 222.658 C 403.256 223.396,403.148 223.997,403.628 223.994 C 404.107 223.990,405.283 222.611,406.241 220.929 C 407.371 218.942,408.423 218.136,409.241 218.627 C 410.114 219.152,410.079 218.865,409.128 217.692 C 407.477 215.657,407.525 215.663,406.131 217.342 M63.151 223.490 C 66.783 225.181,70.265 225.986,74.000 225.997 L 79.500 226.013 76.676 227.875 C 73.837 229.747,65.096 240.634,64.934 242.500 C 64.887 243.050,64.273 241.925,63.571 240.000 C 62.459 236.950,62.532 236.055,64.135 233.038 C 67.394 226.907,63.148 226.495,58.570 232.498 C 56.799 234.819,55.456 235.671,54.119 235.321 C 53.066 235.046,51.146 235.384,49.852 236.074 C 47.855 237.138,47.663 237.114,48.582 235.914 C 49.178 235.136,50.262 232.925,50.992 231.000 C 52.199 227.819,56.603 221.000,57.452 221.000 C 57.644 221.000,60.209 222.121,63.151 223.490 M263.500 227.377 C 269.642 230.274,272.470 233.246,274.466 238.904 C 277.549 247.643,275.817 255.509,269.347 262.149 C 260.403 271.328,243.320 269.469,236.558 258.582 C 224.964 239.913,243.806 218.090,263.500 227.377 M118.000 228.074 C 124.129 229.674,131.876 234.858,135.484 239.775 C 140.316 246.361,142.402 253.067,142.302 261.693 C 142.181 272.193,140.250 275.486,131.270 280.504 C 127.294 282.726,122.119 286.383,119.770 288.630 C 113.835 294.309,112.389 294.628,109.004 291.005 C 105.946 287.731,104.000 287.146,104.000 289.500 C 104.000 291.514,104.116 291.554,96.620 287.000 C 92.999 284.800,89.639 283.000,89.154 283.000 C 87.108 283.000,83.162 277.639,81.972 273.241 C 81.266 270.633,80.055 267.230,79.282 265.678 C 78.208 263.525,78.148 262.527,79.030 261.463 C 79.928 260.381,79.719 259.415,78.093 257.131 C 76.942 255.514,76.000 252.940,76.000 251.411 C 76.000 244.410,84.650 233.812,93.594 229.855 C 102.014 226.131,108.687 225.644,118.000 228.074 M249.619 232.034 C 239.958 234.927,236.039 246.613,241.980 254.814 C 246.496 261.048,249.023 262.329,255.714 261.774 C 260.893 261.344,261.741 260.922,265.152 257.079 C 271.376 250.065,271.349 242.195,265.077 235.923 C 260.416 231.262,255.950 230.139,249.619 232.034 M260.094 235.549 C 266.193 238.703,268.696 246.820,265.483 253.033 C 261.911 259.940,250.177 261.121,244.809 255.113 C 240.077 249.816,241.418 239.097,247.165 236.288 C 252.669 233.597,255.957 233.409,260.094 235.549 M364.321 237.072 C 369.496 238.509,375.816 244.433,378.647 250.500 C 381.529 256.675,381.727 264.803,379.135 270.509 C 375.512 278.485,365.372 284.939,356.405 284.978 C 350.737 285.002,347.970 283.047,348.258 279.221 C 348.453 276.632,348.823 276.552,351.441 278.532 C 355.345 281.484,363.778 279.446,369.376 274.197 C 372.899 270.893,375.956 264.530,375.956 260.500 C 375.956 253.677,370.006 245.570,362.782 242.553 C 357.556 240.370,354.177 240.609,348.203 243.586 C 342.334 246.511,339.142 250.351,338.308 255.490 C 337.638 259.619,335.718 260.025,333.423 256.523 C 331.900 254.198,331.935 253.766,333.990 249.521 C 339.079 239.008,352.078 233.673,364.321 237.072 M101.994 237.934 C 85.968 242.809,79.122 261.318,88.248 275.099 C 90.842 279.016,101.699 285.000,106.212 285.000 C 119.380 285.000,132.000 273.490,132.000 261.482 C 132.000 245.737,116.452 233.536,101.994 237.934 M55.666 240.071 C 64.654 243.924,73.000 252.436,73.000 257.750 C 73.000 260.046,72.662 259.892,67.638 255.300 C 64.680 252.597,60.480 249.861,58.272 249.200 C 51.572 247.192,42.703 247.702,35.730 250.496 L 29.500 252.992 35.000 247.985 C 38.025 245.231,41.604 241.858,42.953 240.489 C 45.958 237.440,49.273 237.331,55.666 240.071 M249.174 242.314 C 246.326 245.347,246.422 248.513,249.455 251.545 C 254.218 256.309,261.000 253.379,261.000 246.557 C 261.000 240.401,253.500 237.710,249.174 242.314 M328.350 247.740 C 327.497 251.142,325.384 253.355,323.879 252.425 C 323.101 251.945,323.274 251.426,324.427 250.781 C 325.353 250.263,326.525 248.750,327.031 247.419 C 328.281 244.129,329.201 244.353,328.350 247.740 M115.282 247.362 C 120.518 249.578,122.328 252.387,122.809 259.040 C 123.540 269.140,119.708 274.393,110.710 275.626 C 97.999 277.369,89.772 266.741,94.417 254.579 C 95.742 251.109,97.009 249.710,100.303 248.079 C 105.150 245.680,110.682 245.415,115.282 247.362 M459.445 247.990 C 445.405 251.164,433.544 257.063,422.867 266.183 C 419.769 268.829,417.003 271.880,416.720 272.963 C 416.437 274.046,416.496 274.858,416.853 274.768 C 418.149 274.439,422.000 276.160,422.000 277.067 C 422.000 277.580,422.375 278.000,422.833 278.000 C 423.292 278.000,423.667 277.345,423.667 276.544 C 423.667 275.743,423.292 275.320,422.833 275.603 C 422.375 275.886,422.000 275.641,422.000 275.059 C 422.000 273.849,422.682 273.821,425.487 274.916 C 427.009 275.511,428.962 274.551,433.830 270.821 C 440.665 265.582,443.546 264.155,454.687 260.489 C 462.645 257.871,487.237 255.308,487.833 257.035 C 488.017 257.566,489.367 258.012,490.833 258.026 C 492.300 258.041,496.588 258.869,500.363 259.866 C 504.137 260.864,508.299 261.474,509.613 261.223 C 511.693 260.826,512.000 260.208,512.000 256.424 L 512.000 252.080 505.428 250.050 C 490.981 245.588,473.527 244.806,459.445 247.990 M102.085 249.695 C 98.352 251.668,95.000 257.016,95.000 261.000 C 95.000 267.066,101.810 274.000,107.767 274.000 C 119.187 274.000,125.259 259.798,117.260 251.798 C 113.391 247.929,107.082 247.055,102.085 249.695 M362.094 249.549 C 365.538 251.330,368.991 256.449,368.996 259.782 C 369.003 263.819,366.211 268.899,362.810 271.040 C 360.162 272.707,358.430 273.024,354.147 272.624 C 351.203 272.348,347.981 271.388,346.988 270.489 C 342.180 266.138,342.058 258.461,346.708 252.935 C 350.959 247.883,356.511 246.661,362.094 249.549 M61.184 255.757 C 63.692 256.867,67.673 259.513,70.029 261.637 C 76.712 267.663,80.530 278.000,76.073 278.000 C 74.083 278.000,70.000 273.651,70.000 271.532 C 70.000 269.675,63.213 263.330,59.150 261.388 C 57.142 260.429,53.203 259.449,50.397 259.210 C 36.972 258.070,24.091 271.027,25.212 284.543 C 25.814 291.807,29.832 298.176,37.049 303.307 C 43.591 307.958,44.817 311.000,40.150 311.000 C 34.854 311.000,25.456 302.488,21.887 294.458 C 18.894 287.725,18.536 282.620,20.536 275.202 C 22.111 269.359,23.122 267.725,28.421 262.451 C 35.751 255.157,41.458 252.817,50.561 253.371 C 53.895 253.573,58.675 254.647,61.184 255.757 M352.200 256.200 C 350.726 257.674,350.646 261.470,352.035 264.066 C 354.247 268.199,362.000 265.289,362.000 260.326 C 362.000 256.115,355.164 253.236,352.200 256.200 M331.779 262.948 C 347.881 273.936,346.514 295.772,329.163 304.729 C 321.697 308.582,317.356 308.853,309.598 305.951 C 300.981 302.727,295.281 295.120,294.290 285.524 C 293.528 278.136,295.958 271.428,301.267 266.272 C 307.227 260.481,311.091 259.013,319.633 259.293 C 325.909 259.499,327.368 259.938,331.779 262.948 M390.025 263.000 C 390.348 267.107,390.076 268.000,388.500 268.000 C 386.849 268.000,386.681 266.843,387.637 262.063 C 388.341 258.546,389.717 259.087,390.025 263.000 M310.500 266.516 C 305.788 269.056,303.185 271.948,301.394 276.639 C 294.891 293.666,314.157 308.763,329.027 298.294 C 339.235 291.107,339.468 276.035,329.489 268.424 C 324.825 264.867,315.332 263.913,310.500 266.516 M189.706 273.295 C 190.090 276.162,187.587 282.000,185.974 282.000 C 184.726 282.000,184.748 281.243,186.177 275.052 C 187.422 269.658,189.107 268.819,189.706 273.295 M54.135 271.820 C 55.034 272.194,57.455 274.525,59.514 277.000 L 63.259 281.500 55.397 288.750 C 51.073 292.737,47.037 296.000,46.428 296.000 C 45.819 296.000,43.660 294.205,41.631 292.011 C 36.619 286.595,36.405 280.417,41.055 275.412 C 44.790 271.393,49.799 270.017,54.135 271.820 M324.960 272.636 C 336.482 279.442,329.942 297.441,316.587 295.681 C 308.226 294.579,303.475 284.784,307.513 276.976 C 310.401 271.391,319.163 269.211,324.960 272.636 M244.500 275.987 L 247.500 277.164 244.000 279.040 C 241.916 280.157,238.403 280.933,235.315 280.958 C 222.707 281.060,215.516 288.782,216.185 301.500 C 216.477 307.071,216.339 307.523,214.252 307.819 C 211.455 308.217,210.000 304.901,210.000 298.131 C 210.000 288.818,217.175 278.968,226.463 275.531 C 230.944 273.872,239.675 274.093,244.500 275.987 M290.914 294.539 C 292.094 297.207,294.131 300.794,295.440 302.510 L 297.820 305.630 293.387 310.459 C 290.948 313.114,288.755 315.089,288.513 314.847 C 288.271 314.605,288.743 312.180,289.562 309.459 C 291.258 303.825,290.716 299.865,287.660 295.543 C 285.044 291.843,284.135 281.432,286.119 277.886 C 287.359 275.670,287.501 276.006,288.111 282.594 C 288.473 286.495,289.734 291.871,290.914 294.539 M312.557 278.223 C 310.257 281.505,310.623 285.714,313.455 288.545 C 316.583 291.674,320.417 291.674,323.545 288.545 C 328.634 283.457,325.348 276.000,318.018 276.000 C 315.117 276.000,313.713 276.571,312.557 278.223 M45.413 280.492 C 43.418 283.537,44.095 285.631,47.589 287.223 C 49.934 288.291,50.449 288.163,52.117 286.103 C 54.412 283.270,54.490 281.632,52.429 279.571 C 50.131 277.274,47.276 277.649,45.413 280.492 M269.266 279.575 C 280.255 283.319,286.855 293.423,285.690 304.714 C 284.972 311.671,282.853 315.000,279.144 315.000 C 275.352 315.000,274.651 314.043,276.748 311.726 C 278.103 310.228,278.500 308.018,278.500 301.961 C 278.500 294.629,278.309 293.931,275.500 290.976 C 270.750 285.981,267.514 284.734,260.464 285.183 C 250.045 285.847,244.000 292.309,244.000 302.784 C 244.000 310.469,250.550 319.000,256.450 319.000 C 258.895 319.000,258.269 320.410,254.954 322.368 C 251.935 324.151,251.877 324.143,248.386 321.481 C 240.283 315.300,235.840 305.020,237.926 297.276 C 238.513 295.095,240.232 291.476,241.747 289.234 C 248.403 279.380,258.397 275.872,269.266 279.575 M397.822 279.440 C 408.415 282.260,418.269 291.272,421.545 301.137 C 423.929 308.313,423.171 320.721,419.935 327.500 C 414.692 338.482,403.285 345.983,390.673 346.742 C 385.335 347.063,382.993 346.792,381.520 345.682 C 379.628 344.257,379.613 344.034,381.186 340.735 C 382.791 337.371,383.018 337.267,389.842 336.779 C 403.894 335.774,413.000 326.549,413.000 313.319 C 413.000 305.443,411.316 300.731,406.833 296.066 C 401.112 290.113,397.644 288.620,389.454 288.585 C 383.651 288.561,381.411 289.060,376.763 291.411 L 371.118 294.267 367.039 292.249 L 362.959 290.231 368.182 287.500 C 371.054 285.998,375.001 283.511,376.952 281.972 C 382.334 277.729,388.556 276.974,397.822 279.440 M159.316 285.592 C 165.315 287.636,173.429 294.940,176.555 301.109 C 177.900 303.763,179.000 306.370,179.000 306.903 C 179.000 308.793,170.555 305.492,169.385 303.145 C 165.854 296.062,155.587 289.983,147.221 290.022 C 132.114 290.092,118.305 307.136,122.018 321.130 C 123.640 327.245,127.886 333.624,131.701 335.678 C 135.169 337.546,137.369 341.508,136.832 344.922 L 136.500 347.034 132.500 344.919 C 115.020 335.675,109.567 312.271,121.292 296.816 C 124.912 292.044,132.520 286.493,137.365 285.089 C 142.513 283.597,154.250 283.866,159.316 285.592 M469.500 285.668 C 464.997 286.902,455.896 291.138,451.833 293.893 C 447.644 296.733,439.960 304.184,443.000 302.458 C 443.825 301.989,443.012 303.104,441.194 304.936 C 439.376 306.767,438.110 308.844,438.381 309.550 C 438.652 310.257,438.293 311.057,437.584 311.329 C 436.816 311.624,436.019 314.510,435.614 318.463 C 435.240 322.114,434.014 327.560,432.890 330.564 C 430.659 336.528,430.774 338.079,434.277 349.250 C 435.757 353.971,436.886 356.000,438.030 356.000 C 440.465 356.000,441.139 354.877,439.741 353.150 C 438.732 351.902,438.753 351.769,439.857 352.433 C 440.917 353.072,441.048 352.731,440.455 350.875 C 435.804 336.314,435.974 325.083,441.020 313.529 C 443.490 307.874,453.431 298.251,460.000 295.156 C 467.308 291.713,484.134 290.832,492.202 293.471 C 496.989 295.037,504.019 299.184,507.175 302.302 C 507.904 303.023,509.288 303.910,510.250 304.275 C 511.672 304.813,512.000 304.382,512.000 301.969 C 512.000 299.835,511.508 298.980,510.250 298.930 C 508.754 298.870,508.790 298.735,510.500 298.000 C 512.113 297.307,511.787 297.127,508.817 297.070 C 506.066 297.018,504.976 296.501,504.508 295.025 C 504.134 293.847,500.844 291.550,496.351 289.329 C 489.640 286.012,487.879 285.581,480.161 285.364 C 475.397 285.230,470.600 285.367,469.500 285.668 M268.689 292.532 C 274.569 296.384,275.267 305.887,270.055 311.099 C 264.822 316.332,258.935 316.135,253.341 310.541 C 250.461 307.661,250.003 306.530,250.022 302.350 C 250.068 292.266,260.172 286.952,268.689 292.532 M357.790 291.912 C 361.752 293.955,366.469 298.618,369.499 303.488 C 370.739 305.482,371.507 309.049,371.806 314.203 C 372.222 321.389,372.016 322.423,368.876 328.965 C 367.019 332.834,365.198 336.000,364.829 336.000 C 363.027 336.000,362.091 322.844,363.744 320.745 C 368.252 315.020,364.488 304.335,356.174 299.255 C 351.756 296.555,348.343 296.391,345.687 298.750 C 343.791 300.434,343.756 300.425,344.775 298.500 C 345.357 297.400,346.375 295.038,347.038 293.250 C 348.020 290.601,348.782 290.000,351.161 290.000 C 352.766 290.000,355.749 290.861,357.790 291.912 M0.000 297.406 C 0.000 300.320,0.289 300.737,2.000 300.290 C 4.226 299.708,4.644 297.044,2.800 295.200 C 0.800 293.200,0.000 293.830,0.000 297.406 M397.434 296.985 C 406.090 301.211,409.445 312.220,404.754 321.000 C 401.522 327.049,396.340 329.962,388.770 329.984 C 383.055 330.000,383.035 329.989,380.930 325.862 C 379.769 323.587,378.604 319.424,378.341 316.612 C 378.078 313.801,377.444 310.195,376.931 308.601 C 374.813 302.007,376.281 298.406,382.021 296.116 C 386.139 294.473,393.092 294.865,397.434 296.985 M468.000 297.880 C 451.628 303.238,440.794 319.184,442.333 335.660 C 442.706 339.659,444.108 344.489,446.195 348.969 L 449.471 356.000 478.735 356.000 C 501.469 356.000,508.005 355.721,508.022 354.750 C 508.034 354.063,508.924 352.375,510.000 351.000 C 511.754 348.758,511.958 346.839,511.978 332.395 L 512.000 316.289 506.114 309.865 C 502.876 306.332,497.814 302.121,494.864 300.508 C 490.148 297.928,488.352 297.543,480.000 297.318 C 474.775 297.177,469.375 297.430,468.000 297.880 M259.596 299.306 C 258.498 300.109,257.943 301.554,258.155 303.056 C 258.433 305.028,259.079 305.500,261.500 305.500 C 263.871 305.500,264.568 305.017,264.827 303.195 C 265.137 301.004,263.542 298.000,262.069 298.000 C 261.691 298.000,260.579 298.588,259.596 299.306 M157.037 302.027 C 158.669 303.188,160.469 305.008,161.037 306.070 C 161.944 307.765,161.731 307.996,159.285 307.965 C 157.753 307.945,155.375 307.286,154.000 306.500 C 152.625 305.714,149.622 305.055,147.327 305.035 C 139.000 304.965,133.787 313.136,137.368 320.645 C 140.921 328.097,138.241 331.951,133.818 325.750 C 131.965 323.152,131.500 321.196,131.500 316.000 C 131.500 308.189,133.738 304.360,140.240 301.050 C 145.435 298.405,152.531 298.817,157.037 302.027 M385.376 301.066 C 382.351 301.962,379.255 304.588,380.158 305.491 C 380.401 305.735,381.928 305.575,383.550 305.137 C 389.901 303.421,396.922 307.331,396.978 312.615 C 397.015 316.148,393.220 319.916,388.404 321.129 C 384.802 322.036,384.177 322.508,385.103 323.624 C 387.594 326.626,395.006 324.351,398.912 319.385 C 402.657 314.624,401.254 306.677,396.000 302.892 C 392.718 300.527,389.222 299.926,385.376 301.066 M353.594 304.504 C 357.313 307.341,359.376 310.719,360.459 315.750 C 361.450 320.351,359.893 319.844,354.968 313.962 C 352.649 311.191,348.772 307.563,346.355 305.900 C 343.937 304.237,342.250 302.404,342.607 301.828 C 343.644 300.149,349.873 301.666,353.594 304.504 M385.223 307.557 C 380.910 310.577,383.691 319.000,389.000 319.000 C 391.925 319.000,395.000 315.442,395.000 312.057 C 395.000 309.009,392.019 306.000,389.000 306.000 C 388.145 306.000,386.445 306.701,385.223 307.557 M3.250 308.584 C 0.276 309.885,0.000 310.387,0.000 314.503 C 0.000 316.976,0.405 319.000,0.900 319.000 C 1.394 319.000,4.139 317.425,7.000 315.500 C 9.861 313.575,13.254 312.000,14.541 312.000 C 18.818 312.000,18.047 310.245,13.052 308.612 C 7.315 306.735,7.477 306.736,3.250 308.584 M491.039 314.025 C 502.311 321.259,504.359 337.379,495.343 347.912 C 489.593 354.630,477.107 357.049,468.459 353.120 C 453.164 346.173,451.596 322.593,465.843 313.788 C 473.341 309.154,483.599 309.251,491.039 314.025 M14.500 317.793 C 7.228 322.597,-0.277 329.540,2.889 328.535 C 5.443 327.725,5.527 328.691,3.489 335.409 C 1.711 341.272,1.612 345.573,3.119 351.557 C 4.208 355.885,4.341 356.000,8.226 356.000 C 11.614 356.000,12.113 355.737,11.539 354.250 C 6.920 342.270,9.570 332.999,18.970 328.250 C 34.112 320.601,50.265 334.882,44.561 350.876 C 43.702 353.282,43.000 355.420,43.000 355.626 C 43.000 355.832,45.873 356.000,49.383 356.000 C 55.158 356.000,55.824 355.785,56.370 353.750 C 58.002 347.659,56.524 343.830,46.376 327.863 C 42.754 322.164,41.475 320.974,37.329 319.443 C 34.673 318.463,31.731 317.009,30.791 316.212 C 29.850 315.415,27.150 314.553,24.791 314.297 C 21.061 313.891,19.715 314.348,14.500 317.793 M214.239 316.335 C 205.761 319.409,200.063 327.405,200.022 336.282 C 199.995 342.076,201.821 346.716,206.204 351.995 L 209.500 355.964 221.500 355.982 L 233.500 356.000 236.086 352.750 C 239.885 347.977,240.953 345.620,242.079 339.530 C 243.488 331.910,241.912 326.649,236.645 321.382 C 230.687 315.424,222.090 313.487,214.239 316.335 M470.425 316.962 C 464.160 320.151,461.618 324.288,461.187 332.000 C 460.852 337.991,461.070 338.839,463.974 342.827 C 467.640 347.863,472.507 350.231,479.189 350.231 C 488.434 350.231,496.004 342.205,495.996 332.412 C 495.987 319.675,481.861 311.141,470.425 316.962 M230.791 322.678 C 238.684 328.524,240.378 338.067,234.973 346.228 C 229.786 354.058,221.376 356.169,213.577 351.598 C 204.042 346.010,201.956 331.780,209.650 324.817 C 215.472 319.548,225.232 318.560,230.791 322.678 M214.763 325.565 C 207.232 329.652,207.101 342.560,214.541 347.435 C 217.560 349.413,224.772 349.727,227.964 348.020 C 233.311 345.158,235.603 336.001,232.483 329.967 C 229.633 324.456,220.835 322.270,214.763 325.565 M264.376 328.250 C 258.153 332.421,254.610 338.641,254.563 345.479 C 254.508 353.520,255.536 356.000,258.927 356.000 L 261.816 356.000 260.300 351.250 C 257.572 342.706,261.751 333.917,270.138 330.562 C 274.806 328.694,278.559 329.131,284.000 332.176 C 289.788 335.416,291.501 338.575,291.496 346.000 C 291.493 349.575,291.108 353.288,290.639 354.250 C 289.923 355.719,290.272 356.000,292.813 356.000 C 295.797 356.000,295.851 355.907,296.527 349.589 C 297.349 341.920,296.058 337.274,291.739 332.355 C 287.274 327.271,282.154 325.000,275.153 325.000 C 270.128 325.000,268.488 325.494,264.376 328.250 M317.108 328.716 C 312.908 330.786,309.535 337.605,310.512 342.053 C 311.406 346.127,316.361 350.789,320.650 351.594 C 330.046 353.357,338.055 342.595,333.721 334.030 C 332.067 330.762,326.357 326.994,323.102 327.023 C 321.671 327.035,318.974 327.797,317.108 328.716 M227.365 330.073 C 229.488 331.743,230.000 332.988,230.000 336.484 C 230.000 340.132,229.494 341.248,226.818 343.500 C 223.114 346.616,219.093 346.376,215.298 342.810 C 211.889 339.607,212.067 332.879,215.635 330.073 C 217.084 328.933,219.723 328.000,221.500 328.000 C 223.277 328.000,225.916 328.933,227.365 330.073 M23.001 332.123 C 19.013 333.714,16.060 337.064,14.922 341.289 C 13.993 344.739,14.183 345.854,16.507 350.604 L 19.147 356.000 27.037 356.000 L 34.928 356.000 37.464 352.268 C 42.226 345.260,39.783 335.478,32.510 332.440 C 28.557 330.788,26.520 330.720,23.001 332.123 M271.215 331.852 C 267.494 332.907,262.273 338.730,261.539 342.645 C 261.167 344.625,261.428 348.389,262.124 351.106 L 263.378 356.000 268.939 355.864 C 271.998 355.789,273.460 355.529,272.188 355.286 C 268.687 354.618,265.796 349.308,266.372 344.603 C 266.978 339.657,269.642 336.992,274.652 336.320 C 277.925 335.881,279.143 336.250,281.799 338.484 C 284.412 340.683,285.000 341.908,285.000 345.155 C 285.000 350.331,283.573 352.845,279.671 354.542 L 276.500 355.922 282.120 355.961 L 287.740 356.000 289.001 351.498 C 291.142 343.849,288.692 336.409,283.102 333.583 C 279.690 331.858,274.078 331.041,271.215 331.852 M168.500 334.842 C 164.655 337.192,163.393 338.895,163.192 342.000 C 162.939 345.909,165.017 349.957,168.091 351.547 C 172.326 353.737,174.504 353.334,178.429 349.632 C 183.984 344.392,183.076 337.738,176.316 334.157 C 173.342 332.582,172.004 332.699,168.500 334.842 M219.046 334.444 C 216.345 337.699,220.815 341.614,223.811 338.618 C 225.084 337.344,225.215 336.563,224.376 335.231 C 222.916 332.913,220.601 332.571,219.046 334.444 M99.568 342.206 C 98.005 344.439,97.455 351.417,98.607 354.418 C 98.941 355.288,100.066 356.000,101.107 356.000 C 102.795 356.000,103.000 355.193,103.000 348.559 C 103.000 340.502,102.026 338.698,99.568 342.206 M272.667 342.667 C 271.478 343.855,271.961 347.723,273.452 348.960 C 275.200 350.411,278.588 349.517,279.404 347.389 C 280.743 343.901,275.269 340.064,272.667 342.667 " stroke="none" fill="undefined" fill-rule="evenodd"/></svg>