<svg id="svg" version="1.1" width="512" height="512" xmlns="http://www.w3.org/2000/svg"><path d="M126.500 6.107 C 123.750 9.389,119.343 14.645,116.707 17.787 C 103.284 33.787,84.244 68.557,82.281 80.656 C 81.214 87.233,83.828 83.880,88.054 73.250 C 97.193 50.266,107.649 32.996,124.420 13.182 C 129.689 6.958,134.000 1.445,134.000 0.932 C 134.000 -1.384,131.099 0.617,126.500 6.107 M301.461 4.750 C 298.892 11.492,291.441 24.089,284.218 33.905 C 280.816 38.528,277.743 43.852,277.390 45.736 C 276.099 52.618,283.095 70.158,289.172 75.273 C 291.500 77.232,294.429 76.821,297.210 74.145 C 299.751 71.701,306.840 56.695,310.034 47.000 C 313.315 37.041,316.035 24.462,315.917 19.792 C 315.847 17.032,315.615 17.389,314.483 22.000 C 312.593 29.696,301.996 57.400,298.449 63.919 C 294.784 70.652,292.706 72.135,290.301 69.730 C 288.653 68.082,288.950 67.221,296.160 52.747 C 305.304 34.392,307.256 29.475,310.504 16.622 C 313.543 4.593,313.743 0.000,311.228 0.000 C 309.850 0.000,309.186 1.391,308.244 6.250 C 306.495 15.266,305.109 19.748,303.603 21.254 C 301.208 23.649,298.215 31.674,298.724 34.336 C 299.292 37.307,294.459 48.421,290.198 53.945 C 288.714 55.868,287.222 58.355,286.883 59.471 C 286.348 61.232,286.055 61.018,284.661 57.848 C 283.778 55.839,282.792 52.464,282.470 50.348 C 281.927 46.778,282.512 45.559,290.556 33.500 C 299.198 20.545,308.000 4.408,308.000 1.520 C 308.000 0.589,307.084 0.000,305.636 0.000 C 303.736 0.000,302.916 0.933,301.461 4.750 M363.116 17.000 C 366.096 20.575,370.065 25.637,371.936 28.250 C 373.808 30.863,375.514 33.000,375.729 33.000 C 377.110 33.000,366.582 18.871,361.943 14.500 C 358.038 10.820,358.132 11.021,363.116 17.000 M257.500 38.119 C 261.900 40.335,266.625 42.567,268.000 43.077 C 270.385 43.962,270.366 43.893,267.587 41.585 C 263.610 38.281,254.634 33.990,251.813 34.044 C 250.285 34.073,252.214 35.456,257.500 38.119 M291.598 37.736 C 291.269 38.064,291.000 39.849,291.000 41.702 C 291.000 44.760,291.184 44.972,293.000 44.000 C 295.299 42.770,295.704 38.484,293.598 37.676 C 292.827 37.380,291.927 37.407,291.598 37.736 M34.416 52.137 C 32.311 55.542,51.234 87.924,66.477 107.000 C 74.433 116.956,74.393 116.832,73.073 127.890 C 71.771 138.796,69.518 156.835,68.047 168.132 C 66.215 182.202,64.126 207.284,62.563 234.000 C 61.710 248.575,60.520 268.825,59.919 279.000 C 58.363 305.321,53.288 333.603,45.527 359.204 C 42.345 369.698,37.938 387.131,38.047 388.789 C 38.161 390.532,42.432 378.348,45.981 366.154 C 48.117 358.813,50.535 352.063,51.354 351.154 C 53.258 349.039,58.469 325.922,60.404 311.000 C 62.029 298.475,63.435 278.415,65.029 245.000 C 66.764 208.644,70.603 166.059,73.552 150.444 C 74.482 145.525,75.300 136.494,75.371 130.375 L 75.500 119.250 80.102 123.094 C 82.633 125.209,85.300 127.657,86.029 128.535 C 90.255 133.627,97.454 134.297,102.293 130.048 C 106.228 126.592,108.000 121.487,108.000 113.602 C 108.000 103.120,105.448 99.980,87.311 88.147 C 81.708 84.491,71.660 77.225,64.983 72.000 C 43.744 55.379,40.560 53.048,37.772 52.073 C 35.978 51.446,34.829 51.468,34.416 52.137 M389.533 59.500 C 391.796 66.355,396.342 77.992,396.640 77.693 C 397.185 77.148,392.439 63.677,390.547 60.400 C 389.626 58.805,389.170 58.400,389.533 59.500 M56.806 72.283 C 63.025 77.155,73.825 85.020,80.806 89.761 C 95.214 99.545,100.948 104.138,102.709 107.305 C 104.171 109.936,104.362 118.893,103.000 121.000 C 102.150 122.315,102.029 122.305,102.015 120.920 C 102.007 120.050,100.088 117.955,97.750 116.262 C 95.412 114.570,90.575 110.614,87.000 107.471 C 83.425 104.328,79.207 100.950,77.626 99.964 C 73.670 97.496,70.942 93.081,71.644 90.283 C 72.072 88.576,71.409 87.251,69.002 85.002 C 64.528 80.823,63.779 81.246,66.152 86.610 C 67.273 89.146,67.989 92.275,67.743 93.564 C 67.425 95.226,68.152 96.722,70.237 98.704 C 71.855 100.242,73.844 102.774,74.657 104.331 C 75.557 106.054,76.683 106.952,77.536 106.625 C 78.306 106.329,79.188 106.495,79.496 106.994 C 80.242 108.201,94.090 119.399,96.000 120.340 C 96.825 120.746,98.542 121.680,99.816 122.414 L 102.133 123.751 99.431 125.875 C 96.199 128.418,95.749 128.449,91.481 126.424 C 86.186 123.911,77.587 114.111,63.054 94.027 C 56.104 84.423,43.000 64.024,43.000 62.809 C 43.000 61.548,43.835 62.122,56.806 72.283 M53.669 74.842 C 53.950 75.918,55.601 78.082,57.337 79.649 C 60.056 82.106,60.182 82.145,58.246 79.936 C 57.011 78.525,56.000 76.893,56.000 76.308 C 56.000 75.723,55.360 74.714,54.579 74.065 C 53.418 73.102,53.251 73.244,53.669 74.842 M170.947 104.639 C 170.395 106.090,170.130 107.463,170.356 107.690 C 170.583 107.917,171.247 106.729,171.832 105.051 C 173.133 101.321,172.348 100.955,170.947 104.639 M211.000 108.701 C 211.000 111.558,221.962 141.990,225.156 148.000 C 229.613 156.387,232.735 160.323,231.501 156.000 C 231.109 154.625,229.318 150.575,227.522 147.000 C 223.091 138.181,216.727 122.954,214.044 114.750 C 212.082 108.749,211.000 106.599,211.000 108.701 M252.000 110.365 C 252.000 111.635,254.887 118.000,255.462 118.000 C 255.773 118.000,255.331 116.336,254.481 114.301 C 252.913 110.547,252.000 109.099,252.000 110.365 M161.897 119.802 C 157.087 125.839,151.000 136.127,151.000 138.219 C 151.000 138.907,154.643 133.931,159.095 127.163 C 163.547 120.395,167.021 114.687,166.814 114.480 C 166.607 114.273,164.394 116.668,161.897 119.802 M349.320 138.000 C 349.320 141.575,349.502 143.037,349.723 141.250 C 349.945 139.463,349.945 136.537,349.723 134.750 C 349.502 132.963,349.320 134.425,349.320 138.000 M304.000 135.167 C 304.000 138.192,313.488 171.232,315.242 174.314 C 316.469 176.469,316.491 176.461,316.815 173.692 C 317.202 170.393,312.054 151.727,307.800 141.000 C 304.362 132.329,304.000 131.774,304.000 135.167 M273.018 138.409 C 272.992 139.713,279.882 148.620,285.607 154.683 L 290.500 159.866 287.588 162.183 C 281.400 167.106,281.856 167.123,279.150 161.873 C 277.774 159.203,276.442 157.225,276.189 157.478 C 275.936 157.731,276.513 159.134,277.471 160.596 C 278.429 162.058,279.583 164.548,280.037 166.129 C 280.767 168.676,280.464 169.307,277.383 171.657 C 275.470 173.116,273.417 175.253,272.823 176.405 C 271.891 178.210,272.140 178.142,274.620 175.914 C 279.993 171.088,292.340 162.498,293.423 162.833 C 294.015 163.017,294.178 162.844,293.784 162.451 C 293.390 162.057,294.201 160.843,295.587 159.753 C 298.476 157.480,298.171 156.303,295.116 157.938 C 293.332 158.893,292.560 158.482,289.280 154.835 C 280.736 145.336,273.034 137.556,273.018 138.409 M121.478 151.000 C 122.226 164.328,124.698 183.131,126.198 186.899 C 126.767 188.330,127.575 192.803,127.993 196.840 C 128.493 201.674,129.338 204.747,130.468 205.840 C 132.083 207.402,132.159 207.234,131.757 203.000 C 131.521 200.525,130.591 194.675,129.689 190.000 C 125.981 170.770,123.803 154.175,124.763 152.459 C 125.804 150.600,123.836 142.409,121.899 140.532 C 121.145 139.802,121.022 142.868,121.478 151.000 M86.852 142.509 C 86.556 143.614,86.664 152.614,87.092 162.509 C 87.521 172.404,87.900 189.698,87.936 200.939 C 88.039 233.681,91.809 291.110,94.111 295.000 C 95.183 296.812,94.310 263.046,92.987 251.500 C 91.744 240.659,91.127 226.990,89.942 184.000 C 88.985 149.269,88.128 137.755,86.852 142.509 M349.378 163.000 C 349.378 169.325,349.541 171.912,349.739 168.750 C 349.937 165.588,349.937 160.412,349.739 157.250 C 349.541 154.088,349.378 156.675,349.378 163.000 M130.514 161.250 C 131.687 165.323,137.789 177.797,140.509 181.685 C 144.442 187.308,142.854 182.739,136.359 169.750 C 131.214 159.462,129.121 156.418,130.514 161.250 M218.077 174.697 C 219.826 177.191,232.714 189.109,239.500 194.507 C 242.250 196.695,245.273 199.388,246.217 200.492 C 247.282 201.738,247.946 202.006,247.967 201.200 C 248.031 198.684,244.994 194.133,241.765 191.906 C 239.969 190.668,234.225 186.213,229.000 182.008 C 217.624 172.851,216.038 171.790,218.077 174.697 M262.437 185.800 C 257.573 191.675,257.366 192.859,261.989 188.364 C 264.329 186.089,266.076 183.749,265.871 183.164 C 265.667 182.578,264.121 183.764,262.437 185.800 M309.500 183.970 C 303.495 184.667,294.825 187.856,293.615 189.814 C 293.261 190.386,291.291 191.389,289.236 192.043 C 287.181 192.696,283.700 194.958,281.500 197.068 C 279.300 199.179,274.125 202.486,270.000 204.417 C 263.407 207.504,262.887 207.933,265.702 207.964 L 268.904 208.000 266.039 213.750 C 264.464 216.912,263.339 219.667,263.541 219.870 C 264.496 220.835,269.202 218.673,272.935 215.554 L 277.076 212.095 281.523 215.229 C 286.661 218.851,288.139 218.408,285.109 214.153 C 282.471 210.448,282.465 208.950,285.073 205.635 C 287.074 203.091,289.833 201.843,288.427 204.118 C 286.976 206.466,286.217 212.016,287.259 212.660 C 287.872 213.039,288.012 212.829,287.595 212.155 C 287.203 211.520,287.373 211.000,287.972 211.000 C 288.572 211.000,289.328 211.691,289.652 212.536 C 290.174 213.895,290.541 213.875,292.850 212.363 C 294.284 211.423,297.268 210.119,299.479 209.466 C 304.137 208.091,304.690 206.063,300.762 204.754 C 298.810 204.103,297.181 204.262,295.087 205.307 C 292.933 206.381,292.278 206.438,292.630 205.521 C 294.345 201.052,308.000 201.932,308.000 206.512 C 308.000 209.258,304.160 212.169,297.000 214.851 C 289.579 217.630,281.613 222.279,282.593 223.260 C 283.270 223.936,288.619 222.603,293.218 220.611 C 295.263 219.725,297.702 219.000,298.639 219.000 C 299.576 219.000,301.147 218.272,302.130 217.382 C 303.114 216.492,305.399 215.464,307.209 215.097 C 309.938 214.543,310.551 213.923,310.802 211.464 C 310.967 209.834,311.755 205.256,312.552 201.292 C 313.348 197.328,314.000 193.884,314.000 193.640 C 314.000 193.085,319.432 191.060,323.750 190.005 C 326.838 189.250,328.173 190.157,325.975 191.515 C 324.394 192.492,317.785 206.121,318.537 206.852 C 319.360 207.653,320.933 205.524,326.352 196.282 C 328.680 192.312,331.635 187.855,332.920 186.377 L 335.255 183.691 327.198 184.363 C 322.081 184.790,318.910 184.664,318.511 184.018 C 318.165 183.458,317.346 183.062,316.691 183.137 C 316.036 183.212,312.800 183.587,309.500 183.970 M113.320 191.000 C 113.320 194.575,113.502 196.037,113.723 194.250 C 113.945 192.463,113.945 189.537,113.723 187.750 C 113.502 185.963,113.320 187.425,113.320 191.000 M348.250 193.115 C 346.462 194.260,344.988 195.490,344.974 195.848 C 344.960 196.207,344.487 201.000,343.924 206.500 C 343.361 212.000,342.487 221.450,341.983 227.500 C 341.478 233.550,340.383 241.875,339.548 246.000 C 335.624 265.402,330.687 323.087,332.772 325.172 C 333.410 325.810,333.967 324.646,334.372 321.825 C 335.151 316.407,338.826 275.908,339.393 266.500 C 339.624 262.650,340.510 256.800,341.361 253.500 C 342.212 250.200,342.854 245.925,342.787 244.000 C 342.720 242.075,342.963 238.925,343.327 237.000 C 345.131 227.453,347.000 210.867,347.000 204.403 C 347.000 198.063,347.325 196.768,349.589 194.077 C 352.640 190.450,352.532 190.373,348.250 193.115 M119.986 196.250 C 119.979 198.037,119.693 200.625,119.350 202.000 C 118.896 203.824,119.032 204.219,119.854 203.460 C 121.480 201.958,122.578 193.000,121.136 193.000 C 120.511 193.000,119.994 194.463,119.986 196.250 M308.043 195.920 C 307.003 197.863,300.886 200.462,298.906 199.802 C 296.809 199.103,303.199 194.000,306.172 194.000 C 308.720 194.000,308.946 194.232,308.043 195.920 M220.465 200.500 C 221.418 203.516,227.308 213.000,228.228 213.000 C 229.336 213.000,224.710 204.050,222.021 200.990 C 220.169 198.882,219.930 198.807,220.465 200.500 M114.056 204.500 C 113.769 208.535,111.954 222.638,111.499 224.366 C 111.189 225.540,111.889 224.759,113.053 222.632 C 115.535 218.095,116.612 209.560,115.152 206.000 C 114.588 204.625,114.095 203.950,114.056 204.500 M201.063 212.890 C 203.948 218.089,210.543 225.751,211.408 224.909 C 212.085 224.251,203.351 212.348,200.468 210.000 C 198.978 208.787,199.092 209.339,201.063 212.890 M364.070 217.638 C 361.960 220.321,359.000 228.840,359.000 232.231 C 359.000 233.259,358.298 235.539,357.440 237.300 L 355.880 240.500 357.859 238.031 C 358.948 236.674,360.834 232.174,362.051 228.031 C 363.267 223.889,364.890 219.262,365.657 217.750 C 367.418 214.276,366.752 214.229,364.070 217.638 M125.750 219.101 C 122.839 220.229,122.029 222.000,124.423 222.000 C 125.624 222.000,125.602 222.491,124.281 225.139 C 123.086 227.533,122.763 231.036,122.917 239.889 C 123.210 256.685,124.499 269.912,125.978 271.301 C 127.009 272.269,127.146 271.123,126.694 265.350 C 125.946 255.817,126.662 254.925,135.010 254.970 C 143.383 255.015,144.785 255.264,149.000 257.455 L 152.500 259.274 150.631 257.176 C 149.603 256.023,148.276 255.174,147.682 255.290 C 147.089 255.405,146.580 254.171,146.551 252.546 C 146.460 247.271,155.889 242.752,159.048 246.558 C 160.754 248.614,168.260 252.976,172.844 254.577 L 176.500 255.853 172.782 257.426 C 170.737 258.292,168.176 259.000,167.091 259.000 C 163.832 259.000,163.762 260.789,166.993 261.498 C 168.762 261.887,171.961 261.535,174.752 260.644 C 177.363 259.811,182.078 258.620,185.230 257.998 C 191.676 256.725,195.000 253.645,195.000 248.945 C 195.000 246.615,195.532 246.042,198.250 245.445 C 201.093 244.820,201.245 244.636,199.465 243.977 C 198.346 243.563,196.845 242.518,196.130 241.656 C 195.414 240.794,190.480 238.381,185.164 236.294 C 176.128 232.746,174.895 232.516,166.185 232.745 C 157.869 232.963,156.153 233.350,150.185 236.350 C 142.866 240.028,142.805 240.164,144.185 249.684 L 144.792 253.868 141.396 252.249 C 139.528 251.358,137.970 249.925,137.932 249.065 C 137.887 248.015,137.508 248.240,136.780 249.750 C 135.504 252.394,131.878 252.735,129.571 250.429 C 127.924 248.781,127.558 245.306,127.522 230.921 C 127.509 226.026,127.929 222.229,128.500 222.079 C 132.123 221.123,152.631 221.009,158.000 221.915 C 161.575 222.518,169.450 223.739,175.500 224.628 C 181.550 225.517,187.551 226.643,188.836 227.130 C 190.559 227.784,191.068 227.686,190.774 226.758 C 190.342 225.392,183.790 223.189,172.000 220.445 C 162.991 218.348,130.155 217.394,125.750 219.101 M216.864 228.746 C 219.242 233.190,235.006 245.821,234.997 243.276 C 234.995 242.512,219.784 229.116,217.150 227.557 C 216.075 226.921,216.016 227.162,216.864 228.746 M246.690 231.114 C 247.895 232.426,250.370 234.345,252.190 235.378 L 255.500 237.255 252.000 234.119 C 250.075 232.394,247.600 230.475,246.500 229.855 C 244.672 228.826,244.689 228.934,246.690 231.114 M108.641 232.210 C 108.303 233.470,108.066 235.400,108.114 236.500 C 108.162 237.600,108.613 236.745,109.116 234.599 C 110.091 230.444,109.674 228.351,108.641 232.210 M363.254 241.062 C 360.919 244.336,357.615 249.485,355.911 252.503 C 353.551 256.685,351.289 258.978,346.407 262.135 C 338.181 267.455,337.702 270.204,345.750 265.902 C 351.992 262.566,354.347 260.252,356.566 255.279 C 357.356 253.507,360.252 248.612,363.001 244.401 C 367.270 237.861,368.813 234.825,367.750 235.054 C 367.613 235.084,365.589 237.787,363.254 241.062 M412.413 242.000 C 413.213 248.431,414.939 255.395,415.575 254.759 C 416.116 254.217,413.051 237.701,412.279 237.000 C 411.977 236.725,412.037 238.975,412.413 242.000 M188.948 242.765 L 191.500 244.500 188.375 244.804 C 186.656 244.971,182.618 244.220,179.402 243.134 C 173.574 241.167,173.566 241.158,177.027 240.706 C 181.963 240.062,185.997 240.758,188.948 242.765 M168.490 243.016 C 168.144 243.575,167.398 243.746,166.831 243.396 C 166.228 243.023,166.287 243.668,166.973 244.950 C 168.130 247.112,168.111 247.119,165.573 245.456 C 162.153 243.215,162.324 242.000,166.059 242.000 C 167.876 242.000,168.863 242.412,168.490 243.016 M183.843 250.031 C 189.865 250.957,191.109 251.687,188.971 253.039 C 186.475 254.618,180.116 254.100,175.960 251.980 C 170.939 249.418,170.420 246.636,175.250 248.174 C 177.037 248.744,180.904 249.579,183.843 250.031 M74.588 267.690 C 74.209 274.185,73.277 288.050,72.519 298.500 C 70.182 330.693,69.874 337.600,70.842 336.000 C 72.904 332.595,74.683 313.580,75.988 281.014 C 76.951 256.989,75.835 246.372,74.588 267.690 M130.750 256.662 C 131.438 256.940,132.000 258.618,132.000 260.392 C 132.000 262.166,132.661 264.491,133.468 265.559 C 134.880 267.425,134.938 267.399,134.968 264.875 C 135.038 259.144,133.842 255.997,131.625 256.079 C 130.456 256.122,130.063 256.385,130.750 256.662 M100.020 271.527 C 100.031 278.112,100.516 286.650,101.098 290.500 C 101.680 294.350,102.152 305.150,102.146 314.500 C 102.139 325.820,102.671 334.421,103.737 340.243 C 105.217 348.329,105.211 349.720,103.655 358.743 C 102.730 364.109,100.843 377.224,99.460 387.886 C 98.078 398.548,96.489 409.348,95.927 411.886 C 95.366 414.424,88.454 429.550,80.565 445.500 C 71.578 463.672,64.645 479.167,61.995 487.000 C 59.670 493.875,56.695 501.623,55.384 504.217 C 52.522 509.880,52.374 512.000,54.842 512.000 C 56.993 512.000,64.000 498.086,64.000 493.816 C 64.000 488.181,72.541 466.808,82.309 448.000 C 98.894 416.063,97.618 419.444,100.424 400.000 C 101.813 390.375,103.468 377.104,104.102 370.509 C 104.867 362.551,105.884 357.343,107.127 355.024 C 109.500 350.596,109.477 348.180,106.970 338.410 C 105.444 332.466,104.852 326.399,104.586 314.000 C 103.892 281.657,102.781 263.591,101.359 261.527 C 100.180 259.816,100.003 261.140,100.020 271.527 M146.938 269.317 C 148.913 274.549,150.211 276.483,155.450 282.000 C 158.322 285.025,162.360 289.863,164.421 292.750 C 167.596 297.196,167.885 298.000,166.308 298.000 C 165.283 298.000,163.385 297.257,162.089 296.350 C 160.274 295.078,159.838 295.021,160.188 296.100 C 160.438 296.870,163.256 298.400,166.449 299.500 C 171.860 301.364,172.663 302.073,178.233 309.904 L 184.211 318.309 177.355 317.559 C 173.585 317.147,166.344 316.487,161.265 316.093 C 153.756 315.511,151.594 314.968,149.700 313.188 C 146.846 310.507,146.000 310.437,146.000 312.883 C 146.000 313.984,145.084 315.006,143.794 315.344 C 142.580 315.661,141.793 316.114,142.044 316.350 C 142.858 317.117,151.395 318.192,155.469 318.040 C 157.652 317.959,162.457 318.402,166.147 319.025 C 172.741 320.137,173.016 320.310,182.081 329.078 C 187.154 333.985,191.686 338.000,192.152 338.000 C 194.395 338.000,192.368 335.054,185.750 328.697 L 178.500 321.732 183.508 322.290 C 186.932 322.672,192.624 324.937,201.508 329.454 C 208.654 333.087,215.796 336.398,217.380 336.812 C 220.179 337.544,219.998 337.735,210.880 343.686 C 205.721 347.053,199.700 350.731,197.500 351.860 C 195.300 352.988,193.852 353.931,194.282 353.956 C 195.917 354.048,213.705 344.406,218.125 341.031 C 220.668 339.089,224.217 336.698,226.010 335.719 C 229.914 333.586,229.552 332.591,225.434 334.135 C 222.847 335.106,221.199 334.681,211.500 330.545 C 193.943 323.057,189.850 319.924,179.810 306.287 C 167.912 290.125,157.729 277.848,155.529 277.011 C 154.246 276.523,151.940 274.409,150.403 272.312 C 146.243 266.633,145.770 266.225,146.938 269.317 M323.156 267.000 C 323.066 267.275,321.682 273.857,320.081 281.626 L 317.171 295.753 307.992 307.626 C 298.980 319.285,287.314 331.034,273.555 342.309 C 265.362 349.023,263.693 349.260,250.949 345.521 C 241.104 342.632,239.075 342.483,236.441 344.450 C 234.534 345.875,234.535 345.892,236.525 345.392 C 237.639 345.113,242.814 346.276,248.025 347.976 C 261.773 352.462,265.033 352.755,269.678 349.918 C 274.541 346.948,305.217 316.888,313.477 307.000 C 319.011 300.374,319.818 298.859,320.399 294.000 C 320.761 290.975,321.751 285.057,322.599 280.848 C 323.447 276.640,323.957 271.690,323.731 269.848 C 323.505 268.007,323.246 266.725,323.156 267.000 M122.786 277.338 C 122.300 279.879,123.435 303.668,124.892 321.500 C 125.341 327.000,125.775 329.838,125.855 327.807 C 125.981 324.591,126.550 323.784,130.250 321.566 C 134.279 319.151,134.206 318.845,129.542 318.602 C 127.174 318.479,125.406 312.407,126.523 308.231 L 127.254 305.500 129.073 309.500 C 130.073 311.700,131.123 314.380,131.406 315.456 C 131.689 316.532,132.159 317.174,132.451 316.882 C 132.743 316.590,131.867 312.505,130.504 307.805 C 129.141 303.104,127.316 294.137,126.447 287.879 C 124.844 276.322,123.642 272.862,122.786 277.338 M132.536 288.666 C 133.877 294.840,138.510 307.306,138.835 305.618 C 139.267 303.372,134.329 287.322,132.943 286.465 C 132.288 286.060,132.141 286.852,132.536 288.666 M143.492 287.388 C 144.588 288.000,147.011 290.059,148.878 291.965 C 151.971 295.124,152.205 295.212,151.517 292.965 C 150.373 289.225,148.216 287.258,144.690 286.743 C 141.934 286.340,141.771 286.428,143.492 287.388 M273.861 304.967 C 272.562 306.048,271.993 306.948,272.595 306.967 C 273.197 306.985,274.505 306.100,275.500 305.000 C 277.816 302.441,276.915 302.423,273.861 304.967 M425.443 328.717 C 426.075 333.390,427.894 338.000,429.107 338.000 C 429.977 338.000,427.350 328.368,425.834 326.000 C 425.176 324.972,425.053 325.828,425.443 328.717 M319.764 335.000 C 319.359 336.375,319.050 340.200,319.077 343.500 C 319.118 348.447,319.299 349.070,320.106 347.048 C 320.644 345.700,320.953 341.875,320.792 338.548 C 320.575 334.043,320.312 333.138,319.764 335.000 M330.607 336.582 C 329.589 339.235,329.925 358.836,331.000 359.500 C 331.646 359.899,332.000 355.677,332.000 347.559 C 332.000 340.652,331.823 335.000,331.607 335.000 C 331.391 335.000,330.941 335.712,330.607 336.582 M149.588 343.819 C 152.741 349.798,163.025 359.952,169.033 363.017 C 173.980 365.541,174.200 364.327,169.390 361.050 C 167.412 359.703,161.516 354.078,156.288 348.550 C 146.853 338.574,146.804 338.539,149.588 343.819 M337.000 346.723 C 337.000 348.759,345.968 360.812,348.590 362.300 C 351.035 363.687,350.137 361.325,346.509 356.828 C 344.589 354.447,341.664 350.745,340.009 348.600 C 337.608 345.488,337.000 345.108,337.000 346.723 M89.070 351.500 C 89.022 353.150,88.699 356.863,88.352 359.750 C 87.938 363.198,88.088 365.000,88.789 365.000 C 90.344 365.000,91.401 354.654,90.185 351.320 L 89.158 348.500 89.070 351.500 M225.500 354.182 C 222.750 356.443,218.614 359.504,216.308 360.985 L 212.117 363.678 229.808 364.845 C 250.790 366.229,257.696 366.301,258.410 365.146 C 259.004 364.184,246.341 363.021,235.000 362.995 C 230.875 362.986,225.856 362.706,223.848 362.374 L 220.195 361.770 224.684 357.635 C 228.427 354.187,231.869 349.900,230.785 350.036 C 230.628 350.055,228.250 351.921,225.500 354.182 M51.697 360.000 C 50.705 365.225,48.616 373.325,47.054 378.000 C 43.316 389.194,42.711 392.000,44.037 392.000 C 47.017 392.000,54.415 363.528,53.781 354.500 C 53.550 351.213,53.179 352.194,51.697 360.000 M367.538 356.000 C 366.064 361.858,366.791 369.904,369.956 382.758 C 375.352 404.672,383.433 416.000,393.672 416.000 C 397.054 416.000,401.395 413.572,403.352 410.586 C 405.893 406.708,405.331 406.502,401.465 409.896 C 396.002 414.693,389.931 413.813,383.820 407.339 C 380.123 403.424,374.305 390.898,373.034 384.120 C 372.454 381.029,371.474 376.025,370.856 373.000 C 370.238 369.975,369.437 364.125,369.075 360.000 C 368.471 353.110,368.346 352.785,367.538 356.000 M186.444 359.750 C 172.953 379.693,167.214 387.000,165.040 387.000 C 164.403 387.000,164.160 386.550,164.500 386.000 C 164.840 385.450,164.876 385.000,164.579 385.000 C 164.283 385.000,163.073 386.913,161.891 389.250 C 160.708 391.587,156.199 397.202,151.870 401.727 C 144.209 409.735,141.501 414.036,146.451 410.333 C 150.542 407.274,175.231 378.757,180.608 370.881 C 187.017 361.493,190.326 356.000,189.572 356.000 C 189.247 356.000,187.839 357.688,186.444 359.750 M116.141 358.000 C 116.141 358.825,116.527 360.400,117.000 361.500 C 117.542 362.761,117.859 362.945,117.859 362.000 C 117.859 361.175,117.473 359.600,117.000 358.500 C 116.458 357.239,116.141 357.055,116.141 358.000 M64.672 367.750 C 61.795 378.142,58.020 395.040,55.938 406.851 C 54.205 416.681,48.308 438.933,42.588 457.225 C 40.919 462.564,42.126 464.592,44.379 460.234 C 51.295 446.859,70.824 362.000,66.985 362.000 C 66.588 362.000,65.547 364.587,64.672 367.750 M355.573 365.881 C 355.274 366.366,356.166 368.439,357.555 370.487 C 359.229 372.952,360.587 377.130,361.577 382.855 C 364.588 400.276,370.182 419.582,373.049 422.449 C 374.926 424.326,373.983 419.410,370.961 411.562 C 369.289 407.221,366.371 396.309,364.476 387.314 C 362.109 376.082,360.340 370.026,358.827 367.979 C 356.376 364.665,356.340 364.641,355.573 365.881 M165.670 372.500 C 166.428 377.443,167.005 378.285,166.985 374.417 C 166.976 372.813,166.539 370.825,166.013 370.000 C 165.362 368.979,165.252 369.776,165.670 372.500 M263.076 371.420 C 260.186 374.495,258.048 375.252,244.102 378.137 C 232.946 380.445,228.757 382.091,230.246 383.579 C 231.733 385.066,254.061 380.100,260.262 376.904 C 263.556 375.206,267.000 371.843,267.000 370.326 C 267.000 368.334,265.611 368.721,263.076 371.420 M121.099 373.345 C 120.939 374.709,125.188 388.146,125.636 387.697 C 125.861 387.472,124.954 383.961,123.621 379.894 C 122.288 375.827,121.153 372.880,121.099 373.345 M469.487 379.500 C 471.513 383.350,473.867 387.175,474.717 388.000 C 476.730 389.954,470.573 378.262,467.872 375.000 C 466.710 373.597,467.419 375.572,469.487 379.500 M85.093 382.750 C 80.835 397.376,80.027 399.890,76.050 410.899 C 73.786 417.169,72.088 422.764,72.277 423.332 C 72.677 424.530,80.518 406.960,81.575 402.500 C 81.966 400.850,83.413 397.250,84.791 394.500 C 87.119 389.853,89.270 376.000,87.663 376.000 C 87.330 376.000,86.173 379.038,85.093 382.750 M268.056 380.607 C 266.883 383.258,265.153 386.280,264.212 387.322 C 261.561 390.256,254.484 393.471,243.000 396.957 L 232.500 400.145 224.500 408.395 C 216.243 416.910,210.293 424.626,211.248 425.582 C 211.549 425.882,214.921 422.386,218.743 417.814 C 229.571 404.859,232.550 402.563,242.457 399.541 C 251.870 396.670,262.895 391.161,267.256 387.149 C 270.240 384.404,272.528 378.128,271.074 376.674 C 270.559 376.159,269.295 377.806,268.056 380.607 M338.615 387.000 C 340.342 399.717,353.442 430.120,360.333 437.404 C 366.577 444.004,365.700 440.495,358.426 429.778 C 350.325 417.843,349.899 416.946,345.493 402.500 C 343.648 396.450,341.208 389.475,340.071 387.000 L 338.004 382.500 338.615 387.000 M181.668 392.532 C 177.287 397.269,174.500 401.000,175.342 401.000 C 176.169 401.000,178.163 399.892,179.772 398.538 C 182.768 396.017,191.000 385.840,191.000 384.658 C 191.000 382.942,188.898 384.716,181.668 392.532 M302.232 388.250 C 301.139 390.587,299.921 394.525,299.526 397.000 C 299.131 399.475,297.756 403.975,296.471 407.000 C 294.071 412.647,287.291 429.321,286.306 432.000 C 285.121 435.221,289.088 428.934,292.382 422.371 C 295.501 416.156,303.657 393.785,305.369 386.750 C 306.390 382.554,304.467 383.474,302.232 388.250 M390.500 389.504 C 394.740 392.200,399.668 394.401,403.000 395.086 C 406.025 395.708,409.041 396.655,409.702 397.191 C 410.363 397.727,411.713 398.003,412.702 397.804 C 413.691 397.606,411.217 396.380,407.205 395.082 C 403.193 393.783,397.030 390.983,393.510 388.860 C 384.593 383.482,381.927 384.052,390.500 389.504 M464.052 392.000 C 464.751 393.375,467.675 397.875,470.550 402.000 C 480.629 416.464,490.312 436.335,499.813 462.057 C 504.779 475.501,509.152 487.742,509.532 489.259 C 509.911 490.777,510.622 492.266,511.111 492.568 C 514.169 494.458,508.375 472.761,500.279 452.000 C 493.153 433.730,488.101 423.756,481.027 414.000 C 478.435 410.425,474.663 405.025,472.644 402.000 C 468.097 395.186,462.157 388.273,464.052 392.000 M32.137 403.579 C 25.128 419.740,20.387 427.925,9.208 443.163 C 0.591 454.908,-1.160 458.000,0.804 458.000 C 1.767 458.000,6.286 453.188,11.133 447.000 C 22.192 432.884,30.217 418.109,35.537 402.070 C 39.753 389.360,37.959 390.156,32.137 403.579 M139.903 393.059 C 139.850 393.301,139.627 396.875,139.408 401.000 L 139.009 408.500 140.963 405.000 C 143.295 400.820,143.470 397.206,141.468 394.559 C 140.661 393.491,139.956 392.816,139.903 393.059 M200.772 402.628 C 198.201 405.372,195.028 407.494,191.991 408.503 C 187.032 410.150,182.266 414.000,185.186 414.000 C 190.327 414.000,196.697 410.748,202.175 405.326 C 205.379 402.156,208.000 399.286,208.000 398.948 C 208.000 397.007,204.253 398.915,200.772 402.628 M424.676 403.715 C 424.091 404.662,439.847 410.487,440.696 409.637 C 440.950 409.384,439.131 407.989,436.654 406.538 C 431.766 403.673,425.600 402.220,424.676 403.715 M35.557 419.750 C 31.427 427.863,25.566 438.325,22.532 443.000 C 19.497 447.675,17.011 452.377,17.007 453.450 C 16.998 455.842,17.222 455.595,24.407 445.251 C 32.041 434.260,45.886 405.000,43.452 405.000 C 43.239 405.000,39.686 411.637,35.557 419.750 M135.016 415.625 C 133.242 418.769,129.475 423.819,126.645 426.846 L 121.500 432.351 126.160 429.189 C 132.449 424.923,137.659 418.633,138.465 414.334 C 138.830 412.388,138.929 410.596,138.686 410.352 C 138.442 410.108,136.791 412.481,135.016 415.625 M398.936 419.334 C 396.446 421.625,393.529 424.070,392.454 424.766 C 390.737 425.879,390.925 425.956,394.000 425.399 C 398.437 424.595,398.274 424.705,401.952 420.061 C 406.203 414.693,404.441 414.269,398.936 419.334 M465.617 421.445 C 465.951 422.315,468.917 425.075,472.207 427.577 C 475.804 430.313,477.493 431.205,476.443 429.813 C 473.993 426.567,464.880 419.522,465.617 421.445 M262.500 422.090 C 260.850 422.595,253.425 424.150,246.000 425.546 C 238.575 426.941,229.350 428.925,225.500 429.954 C 219.661 431.514,219.087 431.839,222.040 431.912 C 223.987 431.960,228.262 431.301,231.540 430.447 C 234.818 429.593,242.499 428.053,248.608 427.024 C 261.761 424.809,267.694 423.304,268.517 421.973 C 269.246 420.793,266.568 420.845,262.500 422.090 M273.837 427.328 C 270.676 432.150,268.521 433.200,253.000 437.484 C 232.876 443.038,221.503 447.578,212.222 453.764 C 207.670 456.798,203.713 459.655,203.430 460.114 C 202.786 461.156,211.001 457.329,217.000 453.792 C 219.475 452.333,224.425 450.028,228.000 448.669 C 231.575 447.310,238.012 444.579,242.305 442.599 C 246.598 440.620,251.116 439.000,252.345 439.000 C 260.640 439.000,274.168 432.317,276.086 427.273 C 277.569 423.374,276.410 423.402,273.837 427.328 M76.235 436.181 C 74.645 440.493,71.815 449.061,68.433 459.802 C 68.207 460.518,68.425 460.855,68.917 460.551 C 70.701 459.449,79.656 432.323,78.589 431.255 C 78.372 431.039,77.313 433.256,76.235 436.181 M33.015 448.594 C 28.480 456.621,22.760 466.183,20.303 469.844 C 17.847 473.505,14.231 479.425,12.268 483.000 C 10.305 486.575,6.754 492.401,4.378 495.946 C 2.002 499.491,0.259 502.593,0.505 502.838 C 1.447 503.780,4.214 500.441,7.749 494.097 C 9.772 490.469,15.627 480.750,20.761 472.500 C 29.092 459.112,42.730 434.000,41.669 434.000 C 41.445 434.000,37.550 440.567,33.015 448.594 M326.083 437.000 C 326.058 438.925,326.703 442.750,327.516 445.500 L 328.993 450.500 328.531 444.429 C 328.276 441.090,327.631 437.265,327.097 435.929 C 326.188 433.654,326.124 433.722,326.083 437.000 M105.542 444.270 C 99.129 449.090,91.962 457.296,93.138 458.471 C 93.412 458.745,95.028 456.995,96.729 454.582 C 98.430 452.169,102.224 448.420,105.162 446.250 C 109.871 442.771,113.933 438.962,112.872 439.020 C 112.668 439.032,109.369 441.394,105.542 444.270 M56.713 447.319 C 51.548 455.473,49.435 460.189,52.785 456.085 C 54.884 453.515,62.412 440.000,61.745 440.000 C 61.527 440.000,59.263 443.294,56.713 447.319 M66.254 443.197 C 62.758 449.047,54.000 465.723,54.000 466.529 C 54.000 468.239,58.367 463.211,61.448 457.953 C 64.846 452.156,69.381 441.048,68.649 440.316 C 68.418 440.084,67.340 441.381,66.254 443.197 M489.701 466.644 C 490.383 479.575,489.336 484.066,481.908 500.082 C 479.209 505.902,477.000 510.965,477.000 511.332 C 477.000 511.699,478.125 512.000,479.500 512.000 C 480.887 512.000,482.000 511.420,482.000 510.697 C 482.000 509.981,483.838 505.593,486.085 500.948 C 489.706 493.458,491.100 489.241,493.466 478.606 C 494.107 475.728,494.118 475.724,495.606 477.848 C 497.384 480.386,508.000 508.363,508.000 510.510 C 508.000 511.333,508.895 512.000,510.000 512.000 C 512.462 512.000,512.482 512.351,509.650 505.874 C 508.358 502.918,505.899 496.225,504.187 491.000 C 502.475 485.775,498.386 475.705,495.100 468.623 L 489.126 455.746 489.701 466.644 M7.106 471.986 C 0.878 482.295,0.252 483.580,1.983 482.511 C 3.490 481.579,14.352 463.019,13.745 462.412 C 13.452 462.118,10.464 466.427,7.106 471.986 M40.809 480.750 C 37.906 483.863,35.597 487.931,36.323 488.656 C 36.732 489.066,40.896 483.523,43.389 479.250 C 44.576 477.215,43.549 477.812,40.809 480.750 M25.940 494.212 C 22.584 498.813,17.000 509.281,17.000 510.971 C 17.000 511.537,18.125 512.000,19.500 512.000 C 21.238 512.000,22.000 511.453,22.000 510.205 C 22.000 509.218,23.970 504.486,26.377 499.689 C 31.142 490.196,30.917 487.388,25.940 494.212 M144.180 491.584 C 137.019 493.152,129.481 496.255,126.684 498.786 C 124.510 500.753,122.117 505.105,120.927 509.255 C 119.622 513.805,122.904 512.340,124.511 507.655 C 126.848 500.840,130.311 498.370,142.956 494.496 C 145.957 493.577,149.320 492.189,150.429 491.412 C 152.793 489.757,152.491 489.765,144.180 491.584 M213.946 492.827 C 204.819 498.630,196.024 507.417,196.007 510.750 C 195.995 512.897,198.626 512.116,199.755 509.637 C 200.348 508.338,203.682 504.779,207.166 501.728 C 210.650 498.677,215.075 494.804,217.000 493.120 C 221.404 489.268,219.786 489.113,213.946 492.827 M366.081 502.559 C 359.832 510.328,358.997 512.000,361.367 512.000 C 362.119 512.000,364.814 508.900,367.356 505.112 C 375.625 492.786,374.981 491.496,366.081 502.559 M30.652 504.750 C 29.883 506.262,28.941 508.512,28.559 509.750 C 27.977 511.637,28.240 511.999,30.183 511.994 C 32.282 511.988,32.510 511.518,32.601 506.994 C 32.657 504.247,32.556 502.000,32.377 502.000 C 32.198 502.000,31.422 503.238,30.652 504.750 " stroke="none" fill="undefined" fill-rule="evenodd"/></svg>