<?xml version="1.0" encoding="UTF-8" standalone="no"?>
<!-- Created with Inkscape (http://www.inkscape.org/) -->

<svg
   width="210mm"
   height="297mm"
   viewBox="0 0 210 297"
   version="1.1"
   id="svg5"
   inkscape:version="1.1.2 (0a00cf5339, 2022-02-04, custom)"
   sodipodi:docname="mirrortest.svg"
   xmlns:inkscape="http://www.inkscape.org/namespaces/inkscape"
   xmlns:sodipodi="http://sodipodi.sourceforge.net/DTD/sodipodi-0.dtd"
   xmlns="http://www.w3.org/2000/svg"
   xmlns:svg="http://www.w3.org/2000/svg">
  <sodipodi:namedview
     id="namedview7"
     pagecolor="#505050"
     bordercolor="#ffffff"
     borderopacity="1"
     inkscape:pageshadow="0"
     inkscape:pageopacity="0"
     inkscape:pagecheckerboard="1"
     inkscape:document-units="mm"
     showgrid="false"
     inkscape:zoom="0.77058782"
     inkscape:cx="370.49638"
     inkscape:cy="345.83988"
     inkscape:window-width="1916"
     inkscape:window-height="1024"
     inkscape:window-x="0"
     inkscape:window-y="0"
     inkscape:window-maximized="1"
     inkscape:current-layer="layer1" />
  <defs
     id="defs2" />
  <g
     inkscape:label="Layer 1"
     inkscape:groupmode="layer"
     id="layer1">
    <path
       id="rect31"
       style="stroke-width:0.264583"
       d="M 28.6217 129.535 C 28.6217 129.535 32.41 129.535 38.1842 129.535 C 40.9759 129.535 44.2318 129.535 47.7483 129.535 C 50.7854 129.535 54.0168 129.535 57.3113 129.535 C 60.4799 129.535 63.7069 129.535 66.8755 129.535 C 70.1703 129.535 73.402 129.535 76.4393 129.535 C 79.9554 129.535 83.2109 129.535 86.0024 129.535 C 91.7773 129.535 95.566 129.535 95.566 129.535 C 95.566 129.535 95.566 133.632 95.566 137.729 C 95.566 141.825 95.566 145.922 95.566 145.922 C 95.566 145.922 91.7777 145.922 86.0034 145.922 C 83.2117 145.922 79.9558 145.922 76.4394 145.922 C 73.4023 145.922 70.1709 145.922 66.8764 145.922 C 63.7078 145.922 60.4808 145.922 57.3122 145.922 C 54.0174 145.922 50.7857 145.922 47.7483 145.922 C 44.2323 145.922 40.9768 145.922 38.1853 145.922 C 32.4104 145.922 28.6217 145.922 28.6217 145.922 C 28.6217 145.922 28.6217 141.825 28.6217 137.729 C 28.6217 133.632 28.6217 129.535 28.6217 129.535" />
    <path
       id="rect55"
       style="stroke-width:0.264583"
       d="M 92.0909 110.063 C 92.0909 110.063 95.524 112.122 100.419 115.056 C 102.904 116.547 105.766 118.263 108.747 120.05 C 111.489 121.694 114.332 123.399 117.074 125.043 C 120.055 126.83 122.916 128.546 125.401 130.035 C 130.296 132.97 133.729 135.029 133.729 135.029 C 133.729 135.029 133.729 135.029 133.729 135.029 C 133.729 135.029 130.933 137.262 126.789 140.571 C 124.746 142.203 122.375 144.097 119.85 146.114 C 117.617 147.897 115.263 149.776 112.91 151.656 C 110.557 153.535 108.203 155.415 105.97 157.198 C 103.445 159.215 101.074 161.109 99.0302 162.741 C 94.8871 166.05 92.0909 168.283 92.0909 168.283 C 92.0909 168.283 92.0909 164.373 92.0909 158.579 C 92.0909 155.722 92.0909 152.407 92.0909 148.876 C 92.0909 145.754 92.0909 142.464 92.0909 139.173 C 92.0909 135.883 92.0909 132.592 92.0909 129.47 C 92.0909 125.939 92.0909 122.623 92.0909 119.766 C 92.0909 113.973 92.0909 110.063 92.0909 110.063"
       sodipodi:nodetypes="ccccc" />
    <path
       id="rect31-3"
       style="stroke-width:0.201619"
       d="M 55.6721 69.8961 C 55.6721 69.8961 59.3262 69.8961 62.9804 69.8961 C 66.6345 69.8961 70.2887 69.8961 70.2887 69.8961 C 70.2887 69.8961 70.2887 73.4894 70.2887 78.6124 C 70.2887 81.2137 70.2887 84.2095 70.2887 87.3294 C 70.2887 90.1998 70.2887 93.1752 70.2887 96.0455 C 70.2887 99.1656 70.2887 102.161 70.2887 104.763 C 70.2887 109.885 70.2887 113.478 70.2887 113.478 C 70.2887 113.478 66.6345 113.478 62.9804 113.478 C 59.3262 113.478 55.6721 113.478 55.6721 113.478 C 55.6721 113.478 55.6721 109.885 55.6721 104.762 C 55.6721 102.16 55.6721 99.1646 55.6721 96.0446 C 55.6721 93.1743 55.6721 90.1988 55.6721 87.3285 C 55.6721 84.2085 55.6721 81.2127 55.6721 78.6114 C 55.6721 73.4889 55.6721 69.8961 55.6721 69.8961" />
    <path
       id="rect55-6"
       style="stroke-width:0.264583"
       d="M 37.3114 73.1522 C 37.3114 73.1522 39.3698 69.7192 42.3045 64.8246 C 43.7946 62.3393 45.5107 59.4772 47.298 56.4964 C 48.9422 53.7541 50.6467 50.9113 52.2909 48.169 C 54.0779 45.1886 55.7937 42.3269 57.2836 39.8419 C 60.2184 34.9472 62.2769 31.514 62.2769 31.514 C 62.2769 31.514 62.2769 31.514 62.2769 31.514 C 62.2769 31.514 64.5103 34.3105 67.8195 38.454 C 69.4515 40.4975 71.3452 42.8685 73.3616 45.3934 C 75.145 47.6264 77.0245 49.9797 78.904 52.333 C 80.7835 54.6864 82.663 57.0397 84.4464 59.2728 C 86.4631 61.7979 88.3569 64.1693 89.9891 66.2129 C 93.298 70.356 95.5312 73.1522 95.5312 73.1522 C 95.5312 73.1522 91.621 73.1522 85.8274 73.1522 C 82.9702 73.1522 79.6549 73.1522 76.1246 73.1522 C 73.0023 73.1522 69.7118 73.1522 66.4214 73.1522 C 63.1309 73.1522 59.8404 73.1522 56.718 73.1522 C 53.1873 73.1522 49.8716 73.1522 47.0142 73.1522 C 41.2211 73.1522 37.3114 73.1522 37.3114 73.1522"
       sodipodi:nodetypes="ccccc" />
  </g>
</svg>
