<?xml version="1.0" encoding="UTF-8" standalone="no"?>
<!-- Created with Inkscape (http://www.inkscape.org/) -->

<svg
   width="210mm"
   height="297mm"
   viewBox="0 0 210 297"
   version="1.1"
   id="svg5"
   sodipodi:docname="this.svg"
   inkscape:version="1.1.2 (0a00cf5339, 2022-02-04, custom)"
   xmlns:inkscape="http://www.inkscape.org/namespaces/inkscape"
   xmlns:sodipodi="http://sodipodi.sourceforge.net/DTD/sodipodi-0.dtd"
   xmlns="http://www.w3.org/2000/svg"
   xmlns:svg="http://www.w3.org/2000/svg">
  <sodipodi:namedview
     id="namedview7"
     pagecolor="#505050"
     bordercolor="#ffffff"
     borderopacity="1"
     inkscape:pageshadow="0"
     inkscape:pageopacity="0"
     inkscape:pagecheckerboard="1"
     inkscape:document-units="mm"
     showgrid="false"
     inkscape:zoom="1.1182998"
     inkscape:cx="152.46359"
     inkscape:cy="694.35766"
     inkscape:window-width="1916"
     inkscape:window-height="1024"
     inkscape:window-x="0"
     inkscape:window-y="0"
     inkscape:window-maximized="1"
     inkscape:current-layer="layer1" />
  <defs
     id="defs2" />
  <g
     inkscape:label="Layer 1"
     inkscape:groupmode="layer"
     id="layer1">
    <path
       id="rect33"
       style="stroke-width:0.264583"
       d="m 122.67906,176.58457 c 2.99544,-8.05698 7.77912,-7.95436 18.37268,-7.80762 17.43561,-0.41283 19.72254,6.50231 19.79324,13.72247 3.23345,2.64935 2.77616,-0.80334 4.61359,3.33444 v 13.86389 c -1.264,2.59979 -0.39722,2.01921 -5.08678,3.33444 -2.78787,16.24597 -6.70772,14.54338 -7.33443,22.14469 -4.25869,6.6165 -3.07572,23.27364 -7.33442,20.24993 -3.2221,0.435 -4.25016,-6.30209 -4.29792,-19.40074 -4.24974,-0.31885 -0.62095,-1.84977 -12.81532,-0.94637 -7.77257,6.84712 -0.77537,13.17041 -5.12601,19.63732 -21.94048,0 4.82269,-22.35815 -14.90162,-22.35815 l -2.28617,-7.45273 c -1.24317,-11.89939 -1.89275,-29.23414 4.0221,-35.39296"
       sodipodi:nodetypes="cccccccccccccc" />
    <path
       id="rect35"
       style="stroke-width:0.264583"
       d="M 176.515 1.51047 C 176.515 1.51047 180.101 1.51047 184.932 1.51047 C 187.503 1.51047 190.426 1.51047 193.349 1.51047 C 196.272 1.51047 199.196 1.51047 201.767 1.51047 C 206.598 1.51047 210.185 1.51047 210.185 1.51047 C 210.185 1.51047 210.185 5.61938 210.185 10.6572 C 210.185 13.6004 210.185 16.8607 210.185 19.8039 C 210.185 24.8418 210.185 28.9507 210.185 28.9507 C 210.185 28.9507 206.598 28.9507 201.767 28.9507 C 199.196 28.9507 196.273 28.9507 193.35 28.9507 C 190.427 28.9507 187.503 28.9507 184.933 28.9507 C 180.101 28.9507 176.515 28.9507 176.515 28.9507 C 176.515 28.9507 176.515 24.8418 176.515 19.804 C 176.515 16.8608 176.515 13.6005 176.515 10.6573 C 176.515 5.61942 176.515 1.51047 176.515 1.51047" />
    <path
       id="rect37"
       style="stroke-width:0.264583"
       d="M 0.17851 0.011443 C 0.17851 0.011443 4.18805 0.011443 9.90453 0.011443 C 12.8072 0.011443 16.1499 0.011443 19.6313 0.011443 C 22.8341 0.011443 26.1543 0.011443 29.3571 0.011443 C 32.8379 0.011443 36.1802 0.011443 39.0824 0.011443 C 44.7991 0.011443 48.8089 0.011443 48.8089 0.011443 C 48.8089 0.011443 48.8089 3.74646 48.8089 8.77862 C 48.8089 11.4559 48.8089 14.5004 48.8089 17.5449 C 48.8089 20.5897 48.8089 23.6345 48.8089 26.312 C 48.8089 31.3444 48.8089 35.0796 48.8089 35.0796 C 48.8089 35.0796 44.7993 35.0796 39.0828 35.0796 C 36.1802 35.0796 32.8374 35.0796 29.3561 35.0796 C 26.1533 35.0796 22.8331 35.0796 19.6303 35.0796 C 16.1494 35.0796 12.8072 35.0796 9.90494 35.0796 C 4.18824 35.0796 0.17851 35.0796 0.17851 35.0796 C 0.17851 35.0796 0.17851 31.3446 0.17851 26.3124 C 0.17851 23.6351 0.17851 20.5906 0.17851 17.5461 C 0.17851 14.5014 0.17851 11.4566 0.17851 8.77899 C 0.17851 3.74664 0.17851 0.011443 0.17851 0.011443" />
    <path
       id="rect39"
       style="stroke-width:0.264583"
       d="M 0.189953 267.827 C 0.189953 267.827 4.11967 267.827 9.72236 267.827 C 12.5672 267.827 15.8434 267.827 19.2555 267.827 C 22.3946 267.827 25.6486 267.827 28.7876 267.827 C 32.1992 267.827 35.4749 267.827 38.3194 267.827 C 43.9223 267.827 47.8522 267.827 47.8522 267.827 C 47.8522 267.827 47.8522 272.238 47.8522 277.645 C 47.8522 280.805 47.8522 284.304 47.8522 287.463 C 47.8522 292.871 47.8522 297.282 47.8522 297.282 C 47.8522 297.282 43.9225 297.282 38.3198 297.282 C 35.475 297.282 32.1988 297.282 28.7867 297.282 C 25.6476 297.282 22.3936 297.282 19.2545 297.282 C 15.843 297.282 12.5673 297.282 9.72276 297.282 C 4.11986 297.282 0.189953 297.282 0.189953 297.282 C 0.189953 297.282 0.189953 292.871 0.189953 287.464 C 0.189953 284.304 0.189953 280.805 0.189953 277.645 C 0.189953 272.238 0.189953 267.827 0.189953 267.827" />
    <path
       id="rect41"
       style="stroke-width:0.264583"
       d="M 145.52 263.422 C 145.52 263.422 149.196 263.422 154.797 263.422 C 157.506 263.422 160.664 263.422 164.076 263.422 C 167.022 263.422 170.157 263.422 173.353 263.422 C 176.427 263.422 179.558 263.422 182.632 263.422 C 185.829 263.422 188.964 263.422 191.91 263.422 C 195.321 263.422 198.48 263.422 201.188 263.422 C 206.79 263.422 210.466 263.422 210.466 263.422 C 210.466 263.422 210.466 267.022 210.466 271.872 C 210.466 274.453 210.466 277.387 210.466 280.321 C 210.466 283.256 210.466 286.191 210.466 288.772 C 210.466 293.622 210.466 297.222 210.466 297.222 C 210.466 297.222 206.791 297.222 201.189 297.222 C 198.481 297.222 195.322 297.222 191.91 297.222 C 188.964 297.222 185.829 297.222 182.633 297.222 C 179.559 297.222 176.428 297.222 173.354 297.222 C 170.158 297.222 167.023 297.222 164.076 297.222 C 160.665 297.222 157.507 297.222 154.798 297.222 C 149.196 297.222 145.52 297.222 145.52 297.222 C 145.52 297.222 145.52 293.622 145.52 288.772 C 145.52 286.191 145.52 283.257 145.52 280.323 C 145.52 277.388 145.52 274.453 145.52 271.872 C 145.52 267.022 145.52 263.422 145.52 263.422" />
    <path
       id="path4455"
       style="fill:#000000;stroke-width:0.999999"
       d="M 396.277 402.396 C 396.277 402.396 392.584 402.396 386.83 402.396 C 384.089 402.396 380.881 402.396 377.383 402.396 C 374.408 402.396 371.223 402.396 367.936 402.396 C 364.847 402.396 361.668 402.396 358.489 402.396 C 355.31 402.396 352.131 402.396 349.042 402.396 C 345.755 402.396 342.569 402.396 339.594 402.396 C 336.095 402.396 332.887 402.396 330.147 402.396 C 324.393 402.396 320.699 402.396 320.699 402.396 C 319.993 405.482 318.984 408.466 317.701 411.329 C 316.419 414.192 314.863 416.934 313.063 419.535 C 311.288 422.099 309.275 424.526 307.051 426.798 C 304.876 429.019 302.5 431.093 299.948 433 C 297.461 434.859 294.807 436.56 292.009 438.088 C 289.284 439.576 286.423 440.899 283.447 442.043 C 280.548 443.157 277.54 444.101 274.444 444.861 C 271.428 445.601 268.328 446.167 265.162 446.546 C 262.08 446.914 258.936 447.105 255.746 447.107 C 253.009 447.097 250.281 446.946 247.578 446.656 C 244.855 446.364 242.157 445.932 239.499 445.361 C 236.82 444.786 234.183 444.071 231.602 443.219 C 231.602 443.219 231.602 446.82 231.602 452.529 C 231.602 455.217 231.602 458.373 231.602 461.84 C 231.602 464.754 231.602 467.889 231.602 471.151 C 231.602 474.17 231.602 477.298 231.602 480.462 C 231.602 483.554 231.602 486.68 231.602 489.771 C 231.602 492.935 231.602 496.063 231.602 499.082 C 231.602 502.344 231.602 505.478 231.602 508.393 C 231.602 511.86 231.602 515.015 231.602 517.704 C 231.602 523.413 231.602 527.014 231.602 527.014 C 234.305 527.51 237.022 527.928 239.749 528.269 C 242.476 528.609 245.212 528.872 247.955 529.057 C 250.696 529.241 253.443 529.347 256.193 529.375 C 259.516 529.367 262.813 529.246 266.081 529.016 C 269.392 528.784 272.674 528.439 275.92 527.986 C 279.206 527.528 282.456 526.959 285.667 526.283 C 288.91 525.601 292.113 524.809 295.271 523.912 C 298.457 523.008 301.598 521.996 304.688 520.882 C 307.802 519.759 310.865 518.532 313.873 517.204 C 316.9 515.869 319.87 514.431 322.78 512.897 C 325.705 511.355 328.567 509.714 331.364 507.98 C 334.172 506.238 336.914 504.402 339.584 502.476 C 342.263 500.543 344.869 498.519 347.399 496.408 C 349.934 494.293 352.391 492.092 354.767 489.808 C 357.145 487.52 359.441 485.15 361.65 482.703 C 363.859 480.253 365.981 477.726 368.01 475.125 C 370.038 472.526 371.973 469.854 373.811 467.112 C 375.646 464.375 377.383 461.57 379.018 458.701 C 380.648 455.841 382.177 452.916 383.599 449.933 C 385.015 446.963 386.325 443.935 387.525 440.852 C 388.718 437.79 389.802 434.673 390.772 431.507 C 391.735 428.368 392.586 425.18 393.321 421.947 C 394.048 418.749 394.662 415.507 395.158 412.226 C 395.647 408.987 396.022 405.709 396.277 402.396 C 396.277 402.396 396.277 402.396 396.277 402.396"
       transform="scale(0.26458333)" />
    <path
       id="path4828"
       style="fill:#000000;stroke-width:0.999999"
       d="M 256.193 254.852 C 253.125 254.852 250.067 254.949 247.024 255.142 C 243.964 255.337 240.919 255.628 237.892 256.015 C 234.852 256.403 231.831 256.887 228.834 257.466 C 225.825 258.046 222.841 258.722 219.885 259.491 C 216.921 260.261 213.986 261.126 211.084 262.082 C 208.176 263.04 205.302 264.091 202.467 265.231 C 199.628 266.373 196.827 267.605 194.069 268.926 C 191.311 270.248 188.595 271.657 185.927 273.154 C 183.261 274.65 180.642 276.232 178.076 277.899 C 175.514 279.564 173.003 281.313 170.549 283.145 C 168.102 284.972 165.711 286.881 163.381 288.871 C 161.06 290.853 158.8 292.915 156.605 295.054 C 154.244 297.355 151.975 299.729 149.802 302.171 C 147.612 304.632 145.518 307.161 143.522 309.754 C 141.515 312.363 139.607 315.035 137.801 317.766 C 135.987 320.511 134.276 323.314 132.671 326.17 C 131.061 329.035 129.557 331.954 128.162 334.921 C 126.764 337.894 125.475 340.914 124.298 343.977 C 123.121 347.041 122.055 350.147 121.104 353.289 C 120.154 356.429 119.319 359.605 118.6 362.811 C 117.882 366.01 117.282 369.238 116.8 372.491 C 116.319 375.73 115.957 378.994 115.715 382.275 C 115.475 385.539 115.354 388.82 115.354 392.113 C 115.36 395.359 115.482 398.582 115.718 401.778 C 115.956 405.012 116.31 408.218 116.776 411.392 C 117.247 414.597 117.831 417.77 118.526 420.905 C 119.226 424.064 120.039 427.186 120.959 430.266 C 121.885 433.364 122.921 436.419 124.061 439.427 C 125.207 442.448 126.459 445.421 127.814 448.341 C 129.172 451.27 130.633 454.147 132.193 456.966 C 133.756 459.788 135.417 462.553 137.173 465.256 C 138.93 467.96 140.782 470.601 142.725 473.175 C 144.667 475.747 146.7 478.253 148.819 480.686 C 150.935 483.115 153.137 485.473 155.421 487.754 C 157.699 490.029 160.059 492.228 162.497 494.347 C 164.925 496.458 167.432 498.49 170.012 500.437 C 172.579 502.374 175.219 504.228 177.928 505.994 C 180.62 507.75 183.381 509.418 186.206 510.995 C 189.011 512.561 191.879 514.037 194.807 515.418 C 197.71 516.788 200.673 518.065 203.69 519.244 C 206.678 520.413 209.72 521.486 212.812 522.459 C 215.871 523.422 218.978 524.287 222.131 525.051 C 225.244 525.805 228.402 526.461 231.602 527.014 C 231.602 527.014 231.602 523.413 231.602 517.703 C 231.602 515.015 231.602 511.86 231.602 508.392 C 231.602 505.478 231.602 502.344 231.602 499.082 C 231.602 496.063 231.602 492.935 231.602 489.77 C 231.602 486.679 231.602 483.553 231.602 480.461 C 231.602 477.297 231.602 474.169 231.602 471.151 C 231.602 467.889 231.602 464.754 231.602 461.84 C 231.602 458.373 231.602 455.217 231.602 452.529 C 231.602 446.82 231.602 443.219 231.602 443.219 C 228.747 442.289 226.002 441.206 223.378 439.984 C 220.658 438.717 218.069 437.301 215.623 435.751 C 213.091 434.146 210.712 432.398 208.501 430.524 C 206.218 428.588 204.114 426.518 202.203 424.331 C 200.239 422.082 198.479 419.711 196.943 417.238 C 195.373 414.712 194.036 412.08 192.949 409.363 C 191.851 406.62 191.009 403.79 190.44 400.897 C 189.875 398.024 189.581 395.089 189.574 392.113 C 189.574 388.884 189.909 385.72 190.552 382.643 C 191.204 379.52 192.173 376.486 193.431 373.567 C 194.683 370.664 196.219 367.873 198.014 365.219 C 199.775 362.613 201.784 360.139 204.014 357.818 C 206.187 355.557 208.57 353.442 211.139 351.492 C 213.635 349.598 216.306 347.861 219.13 346.299 C 221.871 344.783 224.756 343.432 227.764 342.264 C 230.684 341.13 233.72 340.168 236.853 339.393 C 239.893 338.642 243.025 338.067 246.231 337.683 C 249.338 337.312 252.515 337.119 255.746 337.119 C 258.977 337.119 262.154 337.312 265.261 337.683 C 268.467 338.067 271.599 338.642 274.639 339.393 C 277.772 340.167 280.808 341.129 283.727 342.263 C 286.735 343.432 289.62 344.782 292.361 346.298 C 295.185 347.86 297.855 349.597 300.351 351.491 C 302.92 353.44 305.304 355.556 307.477 357.817 C 309.707 360.137 311.716 362.611 313.477 365.216 C 315.272 367.871 316.809 370.662 318.06 373.566 C 319.318 376.486 320.288 379.519 320.94 382.643 C 321.583 385.719 321.918 388.884 321.918 392.113 C 321.909 393.843 321.803 395.57 321.599 397.289 C 321.395 399.001 321.095 400.706 320.699 402.396 C 320.699 402.396 324.393 402.396 330.147 402.396 C 332.887 402.396 336.095 402.396 339.594 402.396 C 342.569 402.396 345.754 402.396 349.041 402.396 C 352.13 402.396 355.309 402.396 358.488 402.396 C 361.666 402.396 364.845 402.396 367.934 402.396 C 371.222 402.396 374.407 402.396 377.382 402.396 C 380.881 402.396 384.089 402.396 386.83 402.396 C 392.584 402.396 396.277 402.396 396.277 402.396 C 396.469 400.688 396.628 398.976 396.753 397.262 C 396.879 395.548 396.972 393.831 397.031 392.113 C 397.031 388.777 396.909 385.469 396.669 382.193 C 396.425 378.869 396.061 375.579 395.578 372.325 C 395.091 369.033 394.483 365.778 393.76 362.566 C 393.03 359.322 392.182 356.121 391.221 352.968 C 390.253 349.791 389.17 346.662 387.976 343.586 C 386.776 340.492 385.465 337.451 384.047 334.469 C 382.623 331.474 381.091 328.537 379.457 325.664 C 377.819 322.784 376.078 319.967 374.238 317.219 C 372.396 314.467 370.456 311.783 368.422 309.173 C 366.388 306.563 364.26 304.025 362.043 301.566 C 359.828 299.109 357.525 296.729 355.138 294.433 C 352.756 292.14 350.29 289.93 347.745 287.806 C 345.208 285.689 342.592 283.658 339.904 281.718 C 337.225 279.786 334.473 277.943 331.654 276.196 C 328.847 274.457 325.973 272.812 323.037 271.266 C 320.117 269.729 317.135 268.289 314.095 266.952 C 311.077 265.623 308.002 264.395 304.875 263.273 C 301.773 262.159 298.619 261.149 295.419 260.246 C 292.249 259.352 289.033 258.563 285.776 257.885 C 282.554 257.214 279.291 256.65 275.992 256.197 C 272.734 255.751 269.441 255.413 266.115 255.187 C 262.838 254.965 259.529 254.852 256.193 254.852 C 256.193 254.852 256.193 254.852 256.193 254.852"
       transform="scale(0.26458333)" />
  </g>
</svg>
