<?xml version="1.0" encoding="UTF-8" standalone="no"?>
<svg
   id="svg"
   version="1.1"
   width="480"
   height="512"
   sodipodi:docname="vectordesign(2).svg"
   inkscape:version="1.1.2 (0a00cf5339, 2022-02-04, custom)"
   xmlns:inkscape="http://www.inkscape.org/namespaces/inkscape"
   xmlns:sodipodi="http://sodipodi.sourceforge.net/DTD/sodipodi-0.dtd"
   xmlns="http://www.w3.org/2000/svg"
   xmlns:svg="http://www.w3.org/2000/svg">
  <defs
     id="defs7" />
  <sodipodi:namedview
     id="namedview5"
     pagecolor="#505050"
     bordercolor="#ffffff"
     borderopacity="1"
     inkscape:pageshadow="0"
     inkscape:pageopacity="0"
     inkscape:pagecheckerboard="1"
     showgrid="false"
     inkscape:zoom="1.4142136"
     inkscape:cx="37.830213"
     inkscape:cy="258.44753"
     inkscape:window-width="1916"
     inkscape:window-height="1024"
     inkscape:window-x="0"
     inkscape:window-y="0"
     inkscape:window-maximized="1"
     inkscape:current-layer="svg" />
  <path
     d="m 8.234375,477.38281 c -0.1388652,0.0329 -0.18,0.5001 -0.1953125,1.36328 -0.1,5.769 12.6143285,14.51119 17.9863285,12.36719 L 28.5,490.12695 25.71875,490.0625 C 19.35675,489.9175 11.893109,485.084 9.4121094,479.5 8.7534219,478.01781 8.412916,477.34055 8.234375,477.38281 Z"
     id="path2" />
  <path
     d="m 324.53711,474.26172 c -0.15253,-0.0401 -0.2572,1.17578 -0.25195,3.23828 0.008,2.75 0.20359,3.75633 0.43359,2.23633 0.229,-1.52 0.22137,-3.77 -0.0156,-5 -0.0593,-0.3075 -0.11517,-0.46124 -0.16601,-0.47461 z"
     id="path709" />
  <path
     d="m 347.15234,470.06836 c -0.0984,0.0206 -0.15234,0.2887 -0.15234,0.84375 0,2.247 2.94878,15.83489 3.92578,18.08789 0.984,2.27 1.03158,2.178 0.51758,-1 -1.44977,-8.96586 -3.68969,-18.05724 -4.29102,-17.93164 z"
     id="path707" />
  <path
     d="m 238,457.10352 c 0.275,-0.024 -0.90795,1.23578 -2.62695,2.80078 -1.857,1.691 -9.058,5.16545 -17.75,8.56445 -11.565,4.523 -14.62305,6.10798 -14.62305,7.58398 0,2.296 8.81547,5.23135 22.98047,7.65235 11.502,1.965 13.88401,3.27112 3.79101,2.07812 -8.173,-0.966 -11.68848,-1.78814 -23.52148,-5.49414 -6.413,-2.008 -8.01536,-2.86742 -7.19336,-3.85742 0.814,-0.981 0.583,-1.15033 -1,-0.73633 -1.131,0.296 -2.05378,0.14788 -2.05078,-0.32812 0.003,-0.477 5.515,-2.82671 12.25,-5.22071 6.735,-2.394 16.06914,-6.29878 20.74414,-8.67578 4.675,-2.378 8.725,-4.34218 9,-4.36718 z"
     id="path705" />
  <path
     d="m 320.29883,457.52344 c -0.0835,0.0154 -0.13872,0.50906 -0.16797,1.47656 -0.121,4.001 0.76956,20.113 2.47656,44.75 0.314,4.538 0.98524,8.25 1.49024,8.25 0.928,0 0.84356,-1.972 -1.14844,-27.5 -1.41538,-18.13988 -2.28871,-27.04338 -2.65039,-26.97656 z"
     id="path1069" />
  <path
     d="m 310.42188,454.46875 c -0.12614,-0.047 -0.0661,1.71728 0.21289,5.53125 0.438,5.988 1.29654,14.08283 4.43554,41.79883 0.641,5.664 1.38916,10.07569 1.66016,9.80469 0.272,-0.271 -0.009,-5.13183 -0.62305,-10.79883 -3.06914,-28.30809 -5.29087,-46.18876 -5.68554,-46.33594 z"
     id="path703" />
  <path
     d="m 172.28125,471.65234 c -0.35944,-0.002 -0.60727,0.0653 -0.69727,0.21094 -1.363,2.206 14.37402,12.20508 24.91602,15.83008 10.592,3.642 31.5835,8.2885 38.6875,8.5625 5.481,0.212 6.29483,0.0141 6.17383,-1.50586 -0.076,-0.962 0.374,-1.76806 1,-1.78906 3.019,-0.104 -5.77433,-2.77425 -12.86133,-3.90625 -14.315,-2.286 -36.00527,-8.93589 -53.69727,-16.46289 -1.39768,-0.59469 -2.73071,-0.93591 -3.52148,-0.93946 z"
     id="path1065" />
  <path
     d="m 240.54297,449 c 0.299,0 0.411,8.61172 0.25,19.13672 -0.27,17.678 -0.15208,19.222 1.54492,20.25 5.033,3.05 5.0187,3.02381 3.3457,6.25781 -2.577,4.985 -3.5224,5.34739 -10.1914,3.90039 -3.296,-0.715 -9.81719,-2.01567 -14.49219,-2.88867 -11.86,-2.214 -27.83639,-6.93989 -34.52539,-10.21289 C 178.99761,481.78536 158.09734,467 160.40234,467 c 3.562,0 13.99455,3.18416 24.68555,7.53516 12.58,5.12 31.96074,10.93872 41.67773,12.51172 3.70401,0.6 8.22493,1.47431 10.04493,1.94531 2.479,0.642 3.08768,0.56359 2.42968,-0.31641 -0.492,-0.657 -0.55548,-8.22478 -0.14648,-17.17578 0.401,-8.8 0.76936,-17.462 0.81836,-19.25 0.048,-1.788 0.33286,-3.25 0.63086,-3.25 z"
     id="path701" />
  <path
     d="m 333.9375,443.91211 c -0.41559,0.10523 -0.78547,14.35966 -0.83789,32.83789 -0.065,22.9 0.25039,35.25 0.90039,35.25 1.21,0 1.21,-64.222 0,-68 -0.0206,-0.0645 -0.0421,-0.0931 -0.0625,-0.0879 z"
     id="path699" />
  <path
     d="m 318.49219,443.83984 c -0.15306,-0.0191 -0.25977,0.77657 -0.25977,2.16016 0,1.925 0.20603,2.712 0.45703,1.75 0.252,-0.962 0.252,-2.538 0,-3.5 -0.0706,-0.27056 -0.13737,-0.4027 -0.19726,-0.41016 z"
     id="path697" />
  <path
     d="m 107.49219,443.83984 c -0.15306,-0.0191 -0.25977,0.77657 -0.25977,2.16016 0,1.925 0.20603,2.712 0.45703,1.75 0.252,-0.962 0.252,-2.538 0,-3.5 -0.0706,-0.27056 -0.13737,-0.4027 -0.19726,-0.41016 z"
     id="path695" />
  <path
     d="m 111.31055,438.26562 c -0.17689,-0.0132 -0.26686,2.01885 -0.19336,6.31641 0.065,3.804 0.47515,8.26797 0.91015,9.91797 0.45,1.704 0.5561,-1.103 0.2461,-6.5 -0.36225,-6.318 -0.73547,-9.71743 -0.96289,-9.73438 z"
     id="path693" />
  <path
     d="m 317.51172,434.87891 c -0.16008,-0.0139 -0.26802,0.97109 -0.25977,2.62109 0.011,2.2 0.21608,2.98228 0.45508,1.73828 0.239,-1.244 0.23047,-3.044 -0.0195,-4 -0.0625,-0.239 -0.12242,-0.35475 -0.17578,-0.35937 z"
     id="path691" />
  <path
     d="m 261.65234,419.35156 c -0.26756,0.0576 -0.75242,2.28305 -1.11523,5.18555 -0.386,3.097 -0.49424,5.83975 -0.24023,6.09375 0.25299,0.254 0.77901,-2.07197 1.16601,-5.16797 0.386,-3.097 0.49424,-5.83975 0.24023,-6.09375 -0.0158,-0.0159 -0.0329,-0.0214 -0.0508,-0.0176 z"
     id="path689" />
  <path
     d="m 36,419.08203 c -0.825,-0.035 -3.777547,0.99892 -6.560547,2.29492 -5.702,2.655 -9.853422,7.40008 -13.732422,15.70508 -3.521,7.536 -6.7363123,19.48244 -6.5703122,24.39844 0.09,2.644 0.2815,3.16453 0.5625,1.51953 4.0360002,-23.65 11.9296872,-37.93578 23.3046872,-42.17578 2.473,-0.922 3.821094,-1.70619 2.996094,-1.74219 z"
     id="path687" />
  <path
     d="m 109.83789,416.0332 c -0.31212,0.0502 -1.32372,0.85485 -2.66406,2.28125 -1.196,1.273 -2.17383,2.81474 -2.17383,3.42774 0,0.613 -0.70631,1.8225 -1.57031,2.6875 -0.865,0.864 -1.10235,1.57031 -0.52735,1.57031 0.575,0 1.78736,-1.462 2.69336,-3.25 0.905,-1.788 2.33569,-4.038 3.17969,-5 1.06828,-1.21828 1.3379,-1.76111 1.0625,-1.7168 z"
     id="path685" />
  <path
     d="m 83.945312,416.03125 c 0.305001,0.017 -0.78864,1.03 -2.43164,2.25 -1.644,1.22 -5.655063,4.35575 -8.914063,6.96875 -4.728,3.789 -6.652671,4.73039 -9.513671,4.65039 L 59.5,429.79883 l 3.880859,-0.91016 c 2.135,-0.501 5.494797,-2.32759 7.466797,-4.05859 3.618,-3.177 12.072656,-8.85783 13.097656,-8.79883 z"
     id="path683" />
  <path
     d="m 63.861328,415.00391 c -0.902,-0.002 -2.702,0.88089 -4,1.96289 -3.069,2.556 -1.799766,2.57611 2.365234,0.0371 1.950001,-1.189 2.610766,-1.998 1.634766,-2 z"
     id="path1043" />
  <path
     d="m 323.78711,413.35547 c -0.31936,0.0872 -0.5268,12.16015 -0.4668,28.14453 l 0.11719,31 0.53125,-28 c 0.292,-15.4 0.23981,-29.35 -0.11719,-31 -0.0222,-0.10312 -0.0432,-0.15034 -0.0645,-0.14453 z"
     id="path1041" />
  <path
     d="m 311.24609,389.1875 c -0.0631,0.009 -0.10362,0.27109 -0.11718,0.8125 -0.062,2.475 0.35478,8.325 0.92578,13 2.458,20.12 3.72054,28.236 3.81054,24.5 0.052,-2.2 -0.38279,-7.15 -0.96679,-11 -0.585,-3.85 -1.64833,-12.4 -2.36133,-19 -0.55703,-5.15625 -1.0655,-8.34472 -1.29102,-8.3125 z"
     id="path681" />
  <path
     d="m 18.353516,389.13672 c -0.130486,-0.0142 -0.356172,0.20156 -0.685547,0.53125 -0.367,0.366 -0.667969,1.88405 -0.667969,3.37305 0,1.489 -0.675,4.62098 -1.5,6.95898 -1.658,4.7 -1.971625,8.40894 -0.640625,7.58594 0.474,-0.292 1.165156,-2.4556 1.535156,-4.8086 0.37,-2.352 1.035469,-6.41434 1.480469,-9.02734 0.58575,-3.44506 0.765584,-4.58216 0.478516,-4.61328 z"
     id="path679" />
  <path
     d="m 121.27344,390.10742 c -0.0968,-0.0181 -0.12533,0.51594 -0.17383,1.58594 -0.096,2.103 3.21005,5.34548 5.37305,5.27148 0.565,-0.02 -0.0948,-0.65701 -1.4668,-1.41601 -1.372,-0.759 -2.78939,-2.43085 -3.15039,-3.71485 -0.3205,-1.1385 -0.48528,-1.70843 -0.58203,-1.72656 z"
     id="path1035" />
  <path
     d="m 90.572266,387.45312 c -0.550537,0.0188 1.04414,0.99118 4.927734,2.93555 3.85,1.928 8.912,3.99571 11.25,4.59571 4.039,1.038 5.529,3.10762 3.25,4.51562 -0.55,0.34 -1,1.09764 -1,1.68164 0,1.644 2.69948,-0.92237 3.27148,-3.10937 0.537,-2.055 0.57752,-2.03116 -11.77148,-7.03516 -5.9245,-2.40125 -9.303793,-3.60526 -9.927734,-3.58399 z"
     id="path677" />
  <path
     d="m 252.51172,386.87891 c -0.16008,-0.0139 -0.26802,0.97109 -0.25977,2.62109 0.011,2.2 0.21608,2.98228 0.45508,1.73828 0.239,-1.244 0.23047,-3.044 -0.0195,-4 -0.0625,-0.239 -0.12242,-0.35475 -0.17578,-0.35937 z"
     id="path675" />
  <path
     d="m 388.4082,461.19141 c -0.10738,-0.007 -0.0936,0.60446 0.0312,1.80859 0.256,2.475 1.66867,8.55 3.13867,13.5 1.47101,4.95 4.39124,15.075 6.49024,22.5 2.1,7.425 3.844,12.66553 3.875,11.64453 0.075,-2.431 -2.26942,-11.52553 -6.48242,-25.14453 -1.871,-6.05 -4.32131,-14.6 -5.44532,-19 -0.91124,-3.56813 -1.42844,-5.29721 -1.60742,-5.30859 z"
     id="path1029" />
  <path
     d="m 104.38672,443.17188 c -0.12289,-0.0379 -0.34702,0.58664 -0.6875,2.03124 -0.539,2.28801 -1.68741,10.14019 -3.69141,25.24219 C 98.280813,483.46431 97.48175,512 98.84375,512 99.67475,512 100,507.16255 100,494.81055 c 0,-9.454 0.43294,-19.692 0.96094,-22.75 2.27237,-13.15642 4.01788,-28.70592 3.42578,-28.88867 z"
     id="path1027" />
  <path
     d="m 384.65039,439.36133 c -0.19803,0.0206 -0.17909,1.45989 0.0703,4.13867 0.307,3.3 0.71897,6.18897 0.91797,6.41797 0.699,0.806 0.1518,-7.44897 -0.6582,-9.91797 -0.14316,-0.43678 -0.25259,-0.64672 -0.33008,-0.63867 z"
     id="path1025" />
  <path
     d="m 296.99805,430.49023 c -0.28927,0.0784 -0.52039,12.83985 -0.54102,31.50977 -0.028,25.46 0.19872,34.879 0.63672,26.5 0.862,-16.497 0.88778,-45.312 0.0508,-57 -0.0498,-0.69609 -0.0991,-1.0226 -0.14648,-1.00977 z"
     id="path1023" />
  <path
     d="m 89.681641,430.12305 c -3.457207,0.0197 -4.46211,0.73712 -8.990235,4.875 -3.009,2.75 -7.433031,5.89147 -9.832031,6.98047 -5.326,2.417 -14.828672,2.64776 -20.888672,0.50976 -6.126,-2.161 -5.984109,-1.1709 0.212891,1.4961 10.009,4.305 21.197468,1.57821 30.980468,-7.55079 4.544,-4.241 6.139938,-4.98676 12.335938,-5.75976 1.741,-0.217 0.830078,-0.43644 -2.169922,-0.52344 -0.611375,-0.0178 -1.154551,-0.0301 -1.648437,-0.0273 z"
     id="path1021" />
  <path
     d="m 307.85938,427.38477 c -0.35235,0.0834 -0.50904,4.36104 -0.45704,12.61523 0.054,8.525 -0.29634,27.65 -0.77734,42.5 -0.481,14.85 -0.61483,26.7608 -0.29883,26.4668 0.897,-0.833 3.10638,-51.0208 2.85938,-64.9668 -0.122,-6.875 -0.59478,-14.075 -1.05078,-16 -0.102,-0.43012 -0.19408,-0.63448 -0.27539,-0.61523 z"
     id="path1019" />
  <path
     d="m 328.95312,426.44531 c -0.47572,2e-4 -0.84309,17.24688 -0.88281,41.80469 -0.046,28.547 0.27769,43.75 0.92969,43.75 1.25,0 1.25,-82.591 0,-85.5 -0.0156,-0.0362 -0.0315,-0.0547 -0.0469,-0.0547 z"
     id="path1017" />
  <path
     d="m 382.32227,424.23242 c -0.12733,-0.0209 -0.14424,0.71155 -0.16602,2.26758 -0.023,1.65 0.33211,4.8 0.78711,7 l 0.82617,4 0.0156,-4.5 c 0.009,-2.475 -0.34516,-5.625 -0.78516,-7 -0.36656,-1.14422 -0.56539,-1.74913 -0.67773,-1.76758 z"
     id="path1015" />
  <path
     d="m 322.08398,384.50195 c -0.0151,-8.3e-4 -0.0234,0.0165 -0.0254,0.0527 -0.145,2.637 7.65535,23.40211 16.77735,44.66211 14.289,33.304 21.52847,56.6532 23.73047,76.5332 0.381,3.438 1.0835,6.25 1.5625,6.25 1.54,0 1.25857,-1.819 -3.85743,-25 -3.986,-18.058 -8.65461,-31.60803 -19.9746,-57.95703 -5.779,-13.451 -12.23571,-29.201 -14.34571,-35 -1.97812,-5.43563 -3.64061,-9.52846 -3.86719,-9.54102 z"
     id="path673" />
  <path
     d="m 263.51172,380.87891 c -0.16008,-0.0139 -0.26802,0.97109 -0.25977,2.62109 0.011,2.2 0.21608,2.98228 0.45508,1.73828 0.239,-1.244 0.23047,-3.044 -0.0195,-4 -0.0625,-0.239 -0.12242,-0.35475 -0.17578,-0.35937 z"
     id="path671" />
  <path
     d="m 20.716797,379.41406 c -0.269535,0.0148 -0.879531,1.76852 -1.410156,4.08789 -0.566,2.475 -0.68186,4.49805 -0.25586,4.49805 0.843,0 2.419797,-7.86441 1.716797,-8.56641 -0.01481,-0.0148 -0.03281,-0.0205 -0.05078,-0.0195 z"
     id="path669" />
  <path
     d="m 66.212891,408.08398 c 0.06494,-9.6e-4 0.128812,2.1e-4 0.191406,0.002 2.97,0.082 2.994703,0.11761 0.595703,0.84961 -3.297,1.007 -11,4.95758 -11,5.64257 0,0.297 0.45,0.26188 1,-0.0781 0.55,-0.34 1,-0.14059 1,0.44141 0,0.582 -0.525969,1.05859 -1.167969,1.05859 -0.641,0 -0.876437,0.28858 -0.523437,0.64258 0.831,0.83 3.820219,-1.62786 3.199218,-2.63086 -0.742999,-1.203 7.698063,-2.23359 8.664063,-1.0586 0.465,0.566 0.600734,0.86888 0.302734,0.67188 -0.298,-0.197 -2.057203,1.15681 -3.908203,3.00781 -3.51,3.51 -7.141672,4.31819 -9.513672,2.11719 -0.74,-0.687 -1.069468,-0.75353 -0.730468,-0.14453 0.401,0.718 -0.22325,0.94544 -1.78125,0.64844 -3.581,-0.685 -2.144422,-2.907 4.767578,-7.375 3.762625,-2.43157 6.891315,-3.76492 8.904297,-3.79493 z"
     id="path1007" />
  <path
     d="m 70.935547,407.01562 c 0.178326,-0.002 0.385422,0.002 0.623047,0.004 1.067,0.011 4.104094,0.57963 6.746094,1.26563 l 4.802734,1.24609 -5.302734,2.60937 c -2.917001,1.436 -7.767344,4.46833 -10.777344,6.73633 -4.335,3.266 -6.322594,4.12305 -9.558594,4.12305 -2.247,0 -4.912828,-0.6057 -5.923828,-1.3457 -1.599,-1.168 -1.102313,-1.282 3.804687,-0.875 5.357,0.444 5.879063,0.27511 10.289063,-3.33789 2.555,-2.094 4.857187,-4.61928 5.117187,-5.61329 0.26,-0.99299 0.86661,-1.56167 1.34961,-1.26367 0.483,0.299 1.669719,0.0351 2.636719,-0.58593 1.227999,-0.789 1.291843,-0.99002 0.214843,-0.66602 -0.848,0.256 -2.394453,-0.15983 -3.439453,-0.92383 -1.6275,-1.19087 -1.830314,-1.36181 -0.582031,-1.37305 z"
     id="path1005" />
  <path
     d="m 141.20117,383.37891 c -0.0772,-0.004 -0.12773,0.0884 -0.13867,0.28906 -0.219,4.04 6.28044,8.43003 12.14844,8.20703 3.08,-0.117 3.02592,-0.16978 -0.83008,-0.80078 -4.964,-0.813 -9.17109,-3.40181 -10.37109,-6.38281 -0.33413,-0.82913 -0.63875,-1.30426 -0.8086,-1.3125 z"
     id="path1003" />
  <path
     d="m 115.20703,378.27734 c -0.1397,0.001 -0.20703,0.0657 -0.20703,0.18946 0,1.034 12.536,9.80106 16.5,11.53906 2.2,0.965 5.125,3.00516 6.5,4.53516 1.375,1.53 1.825,2.39773 1,1.92773 -1.322,-0.752 -1.32611,-0.63873 -0.0371,0.94727 1.301,1.602 1.25259,1.9534 -0.44141,3.1914 -2.672,1.954 -12.92403,1.70616 -19.20703,-0.46484 l -5.18554,-1.79102 -0.58203,2.31836 c -0.72101,2.871 -6.23141,5.33008 -11.94141,5.33008 -2.282001,0 -7.288954,-0.93989 -11.126954,-2.08789 -11.074,-3.312 -12.540704,-3.34236 -20.595704,-0.44336 -8.518,3.066 -14.953531,6.94406 -19.769531,11.91406 -2.664,2.749 -3.386719,4.31924 -3.386719,7.36524 0,2.13 0.526922,4.85754 1.169922,6.06054 1.794,3.352 8.855782,6.53614 14.675782,6.61914 4.714,0.067 5.456,-0.27384 10.5,-4.83984 5.872,-5.316 22.188734,-13.63855 34.427734,-17.56055 10.912,-3.496 14.66966,-5.0107 17.59766,-7.0957 1.491,-1.062 3.99164,-1.93259 5.55664,-1.93359 1.565,0 4.4207,-0.86869 6.3457,-1.92969 6.849,-3.775 8.554,-4.32197 13,-4.16797 3.065,0.107 5.457,-0.48823 7.5,-1.86523 1.65,-1.113 2.42184,-2.02435 1.71484,-2.02735 -0.707,-0.004 -2.38265,0.71085 -3.72265,1.58985 -3.71,2.43 -11.07539,1.05812 -17.02539,-3.17188 -2.65,-1.884 -5.32627,-3.42578 -5.94727,-3.42578 -0.621,0 -4.02922,-2.05631 -7.57422,-4.57031 -6.0944,-4.32169 -8.98392,-6.1595 -9.73828,-6.15235 z"
     id="path667" />
  <path
     d="m 320.31445,377.4043 c -0.11364,-0.0144 -0.17383,0.18226 -0.17383,0.5957 0,0.825 0.38638,2.4 0.85938,3.5 0.542,1.261 0.85937,1.445 0.85938,0.5 0,-0.825 -0.38638,-2.4 -0.85938,-3.5 -0.30487,-0.70931 -0.53943,-1.07718 -0.68555,-1.0957 z"
     id="path665" />
  <path
     d="m 290.70898,345.38477 c 0.009,0.002 0.0167,0.007 0.0234,0.0137 0.216,0.217 -1.39789,3.92804 -3.58789,8.24804 -3.651,7.2 -9.14453,15.66104 -9.14453,14.08204 0,-0.363 1.688,-3.28233 3.75,-6.48633 2.063,-3.205 4.83892,-8.16825 6.16992,-11.03125 1.28844,-2.77353 2.51626,-4.89285 2.78906,-4.82617 z"
     id="path663" />
  <path
     d="m 128.85742,343.11328 c -2.03539,0.0113 -3.83305,0.28289 -4.85742,0.88477 -0.825,0.485 -2.79019,1.15623 -4.36719,1.49023 -1.577,0.335 -2.60706,0.8695 -2.28906,1.1875 0.319,0.319 2.9335,-0.18986 5.8125,-1.13086 3.408,-1.115 6.64906,-1.49961 9.28906,-1.09961 6.313,0.955 6.80371,1.5311 5.22071,6.1211 -1.672,4.848 -4.00955,5.4009 -10.06055,2.3789 -3.791,-1.893 -4.923,-2.04451 -8.25,-1.10351 l -3.85547,1.09179 4,-0.33398 c 2.788,-0.232 4.606,0.20622 6,1.44922 2.644,2.359 10.43869,3.00017 11.55469,0.95117 2.469,-4.528 3.61104,-7.92402 2.99804,-8.91602 -1.08693,-1.75862 -6.71745,-2.99558 -11.19531,-2.9707 z"
     id="path661" />
  <path
     d="m 49.464844,305 c -0.29,0 -0.806485,0.788 -1.146485,1.75 -0.341,0.962 -2.836922,6.475 -5.544921,12.25 -10.851001,23.136 -23.206938,56.90048 -21.460938,58.64648 0.254,0.253 1.025844,-1.92479 1.714844,-4.84179 2.26,-9.563 7.740781,-24.14024 15.550781,-41.36524 C 47.136125,312.56345 50.250844,305 49.464844,305 Z"
     id="path659" />
  <path
     d="m 226.72656,292.4668 c -0.29868,-0.0245 -0.42773,2.10898 -0.36133,6.18164 0.074,4.482 0.47277,7.9434 0.88477,7.6914 0.96,-0.585 0.79458,-10.06284 -0.23242,-13.33984 -0.10981,-0.34978 -0.20739,-0.52636 -0.29102,-0.5332 z"
     id="path657" />
  <path
     d="m 128.58594,290.28516 c -0.1189,-0.0682 -0.20117,2.77343 -0.20117,7.71484 0,6.875 0.16046,9.688 0.35546,6.25 0.196,-3.437 0.196,-9.062 0,-12.5 -0.0548,-0.96666 -0.10777,-1.43817 -0.15429,-1.46484 z"
     id="path655" />
  <path
     d="m 204.58203,283.09766 c -1.92638,0.0238 -3.63647,0.29096 -3.99609,0.65234 -0.411,0.413 -3.74802,1.01775 -7.41602,1.34375 l -6.66992,0.5918 7.25,0.1582 c 4.535,0.098 7.25,-0.24034 7.25,-0.90234 0,-0.582 0.34939,-0.84408 0.77539,-0.58008 0.426,0.263 2.338,0.11015 4.25,-0.33985 l 3.47461,-0.8164 -4.08203,-0.10352 c -0.28075,-0.007 -0.56074,-0.007 -0.83594,-0.004 z"
     id="path653" />
  <path
     d="m 204,279.32031 c -3.575,0 -5.037,0.18135 -3.25,0.40235 1.787,0.222 4.713,0.222 6.5,0 1.787,-0.221 0.325,-0.40235 -3.25,-0.40235 z"
     id="path651" />
  <path
     d="m 358.34375,257.88477 c -0.12348,-0.0113 -0.17292,0.36732 -0.16602,1.11523 0.031,3.48 1.29618,7.68523 1.95118,6.49023 0.299,-0.545 -0.0248,-2.79023 -0.7168,-4.99023 -0.551,-1.74919 -0.88789,-2.59877 -1.06836,-2.61523 z"
     id="path649" />
  <path
     d="m 86.841797,373.20117 c -0.6384,-0.002 -1.25461,0.004 -1.841797,0.0156 -3.813,0.075 -3.507,0.19936 2,0.81836 3.575,0.401 9.733547,0.78365 13.68555,0.84765 3.952,0.064 8.452,0.59469 10,1.17969 2.249,0.849 2.56612,0.81245 1.57812,-0.18555 -1.13344,-1.14562 -15.845882,-2.64675 -25.421873,-2.67578 z"
     id="path981" />
  <path
     d="m 315.93945,372 c -0.416,0 0.10616,2.813 1.16016,6.25 1.053,3.438 2.84347,10.3 3.98047,15.25 2.335,10.169 3.33689,13.52069 11.83789,39.67969 6.041,18.589 7.03544,23.25731 9.02344,42.32031 2.392,22.945 3.9829,35.7583 4.5039,36.2793 0.72,0.719 0.73164,0.9017 -0.94336,-14.2793 -0.788,-7.15 -2.16459,-19.975 -3.05859,-28.5 -1.726,-16.447 -2.54867,-19.85 -10.51367,-43.5 -2.779,-8.25 -5.95841,-18.825 -7.06641,-23.5 -3.224,-13.606 -8.10083,-30 -8.92383,-30 z"
     id="path979" />
  <path
     d="m 374.36719,370.83398 c -0.10594,0.0523 -0.0519,1.20052 0.20508,3.66602 0.594,5.709 3.07284,22.434 4.96484,33.5 2.278,13.321 1.53844,3.89603 -1.10156,-14.04297 -1.998,-13.57575 -3.75055,-23.28003 -4.06836,-23.12305 z"
     id="path977" />
  <path
     d="m 314.61719,365.36328 c -0.34781,-0.0222 -0.57538,0.28813 -0.54688,0.82813 0.039,0.72 0.45669,2.20859 0.92969,3.30859 0.767,1.786 0.86669,1.71159 0.92969,-0.69141 0.038,-1.48 -0.37969,-2.96859 -0.92969,-3.30859 -0.1375,-0.085 -0.26688,-0.12931 -0.38281,-0.13672 z"
     id="path975" />
  <path
     d="m 217.35156,360.11133 c -0.5795,-0.0154 -2.05317,0.40472 -4.45117,1.26172 -4.3,1.537 -14.86455,7.57347 -13.31055,7.60547 0.6,0.012 3.525,-1.32094 6.5,-2.96094 2.976,-1.64 6.08516,-3.00325 6.91016,-3.03125 0.825,-0.027 2.37441,-0.70958 3.44141,-1.51758 1.176,-0.8895 1.48965,-1.34205 0.91015,-1.35742 z"
     id="path973" />
  <path
     d="m 92,359.23242 c 1.925,0 2.713,0.20603 1.75,0.45703 -0.963,0.252 -2.537,0.252 -3.5,0 -0.963,-0.251 -0.175,-0.45703 1.75,-0.45703 z"
     id="path971" />
  <path
     d="m 102.51758,305.22266 c 0.0569,0.01 0.12028,0.17915 0.1875,0.52734 0.238,1.238 0.238,3.262 0,4.5 -0.239,1.238 -0.4336,0.225 -0.4336,-2.25 0,-1.77891 0.10069,-2.80194 0.2461,-2.77734 z"
     id="path969" />
  <path
     d="m 105.54883,259.02539 c -0.13327,0.0529 -0.22358,1.70742 -0.22071,4.47461 0.005,3.85 0.18535,5.30252 0.40235,3.22852 0.216,-2.075 0.21319,-5.225 -0.008,-7 -0.0622,-0.4995 -0.12168,-0.72382 -0.17383,-0.70313 z"
     id="path967" />
  <path
     d="m 99.175781,257.35742 c -0.02781,0.006 -0.04772,0.0515 -0.05859,0.14258 -0.066,0.55 0.634687,4.79364 1.554689,9.43164 1.15399,5.811 1.89485,7.832 2.38085,6.5 0.389,-1.063 0.49247,3.01836 0.23047,9.06836 -0.473,10.913 -0.5309,11.126 -7.2539,27 -10.778,25.45 -14.976719,40.0237 -15.011719,52.0957 -0.02,7.032 -1.182781,8.59817 -7.675781,10.32618 -4.638,1.235 -8.721125,5.28904 -11.828125,11.74804 -1.177,2.448 -3.323438,4.85039 -5.273438,5.90039 -3.494,1.882 -6.652953,6.20447 -7.751953,10.60547 -0.77,3.089 -1.217734,3.06163 -10.427734,-0.60937 -3.638,-1.45 -8.206,-2.51241 -10.5,-2.44141 L 23.5,397.25 l 4,0.66406 c 4.822,0.802 13.491094,4.26753 13.496094,5.39453 0.002,0.445 0.423547,0.55038 0.935547,0.23438 0.512,-0.317 1.217359,-0.11097 1.568359,0.45703 0.351,0.568 1.127609,0.73033 1.724609,0.36133 0.599,-0.371 0.800219,-0.20958 0.449219,0.35742 -0.349,0.565 -4.905,1.10512 -10.125,1.20313 -5.221,0.097 -11.869484,0.84982 -14.771484,1.67382 -2.903,0.823 -5.796641,1.55119 -6.431641,1.61719 -0.635,0.066 -0.896078,0.79319 -0.580078,1.61719 0.33,0.859 0.147266,1.23295 -0.427734,0.87695 -0.552,-0.341 -1.00586,0.0445 -1.00586,0.85547 0,1.124 0.517781,0.98864 2.175781,-0.56836 3.282001,-3.084 7.965141,-4.16058 19.119141,-4.39258 11.157,-0.232 14.643813,-1.559 15.757813,-6 1.255,-5 4.755093,-9.48997 8.996093,-11.54297 2.338,-1.132 4.982954,-2.05859 5.876953,-2.05859 0.894,0 1.85286,-0.36836 2.13086,-0.81836 0.279,-0.451 -0.816594,-0.62567 -2.433594,-0.38867 l -2.939453,0.43164 2.466797,-4.41406 c 3.304,-5.911 6.182422,-8.41 11.232422,-9.75 2.968,-0.788 5.840844,-2.77103 9.714844,-6.70703 5.013999,-5.095 5.792156,-5.53561 8.785156,-4.97461 10.655996,1.995 10.359076,2.0237 16.455076,-1.6543 3.207,-1.934 6.73008,-3.73786 7.83008,-4.00586 l 2,-0.48633 -2,-0.10351 c -1.1,-0.057 -4.59458,1.21326 -7.76758,2.82226 l -5.76758,2.92578 -1.41601,-2.18945 c -0.78,-1.203 -1.56038,-3.51944 -1.73438,-5.14844 -0.258,-2.427 0.20789,-3.2169 2.58789,-4.3789 1.596,-0.779 5.196,-1.75307 8,-2.16407 L 116.5,346.25 l -4.75,-0.125 c -5.308,-0.14 -5.33787,-0.20666 -3.42188,-7.59766 1.178,-4.546 1.07091,-5.748 -1.24609,-14 -2.326,-8.279 -2.54769,-10.80734 -2.67969,-30.52734 -0.08,-11.825 -0.23475,-22.625 -0.34375,-24 -0.184,-2.313 -0.26359,-2.351 -1.05859,-0.5 -0.794,1.847 -0.87139,1.808 -1.02539,-0.5 -0.18375,-2.76375 -2.381619,-11.73269 -2.798829,-11.64258 z"
     id="path647" />
  <path
     d="m 133.58398,257.08789 c -0.21692,-0.004 -0.92312,0.62891 -2.08984,1.91797 -0.998,1.104 -1.58002,2.24325 -1.29102,2.53125 0.289,0.289 1.27255,-0.61386 2.18555,-2.00586 1.05878,-1.61553 1.44116,-2.43879 1.19531,-2.44336 z"
     id="path645" />
  <path
     d="m 164.93164,320.13281 h -1.51758 c 0.17555,1.83787 0.16482,4.04237 -0.0644,5.69727 -0.0943,0.68025 -0.24599,1.32364 -0.43555,1.91406 h 2.98242 c -0.5129,-2.10375 -0.87434,-4.41098 -0.88086,-5.8457 -0.003,-0.59092 -0.0315,-1.17954 -0.084,-1.76563 z"
     id="path643" />
  <path
     d="m 112.37695,338.29883 c -0.1972,-0.0141 -0.42162,0.37439 -0.73437,1.18945 -0.48,1.251 -0.19711,2.17977 0.83789,2.75977 0.859,0.481 1.25772,1.36775 0.88672,1.96875 -0.406,0.656 -0.21453,0.80595 0.48047,0.37695 0.736,-0.455 0.84301,-1.3293 0.29101,-2.4043 -0.477,-0.929 -1.07231,-2.34167 -1.32031,-3.13867 -0.15181,-0.48694 -0.28803,-0.74097 -0.44141,-0.75195 z"
     id="path959" />
  <path
     d="m 167.07617,335.58594 c 0.18597,-10e-4 0.38722,0.0374 0.60547,0.12109 1.064,0.408 1.15436,0.77597 0.31836,1.29297 -0.838,0.518 -0.75131,0.88016 0.30469,1.28516 1.682,0.646 2.88465,8.92692 1.22265,8.41992 -0.565,-0.173 -1.80009,-1.87049 -2.74609,-3.77149 -1.76719,-3.55612 -1.5028,-7.33506 0.29492,-7.34765 z"
     id="path957" />
  <path
     d="m 201.47656,333.83984 c -0.26884,0.041 -0.67597,0.96283 -1.22656,2.77539 -1.727,5.687 -1.44253,8.79477 0.35547,3.88477 0.806,-2.2 1.33669,-4.9 1.17969,-6 -0.066,-0.46131 -0.16777,-0.68162 -0.3086,-0.66016 z"
     id="path955" />
  <path
     d="m 293.51172,331.87891 c 0.0534,0.005 0.11328,0.12037 0.17578,0.35937 0.25,0.956 0.25853,2.756 0.0195,4 -0.239,1.244 -0.44408,0.46172 -0.45508,-1.73828 -0.008,-1.65 0.0997,-2.63497 0.25977,-2.62109 z"
     id="path953" />
  <path
     d="m 191.69922,331.14258 c -0.8872,0.0257 -1.79875,0.35539 -2.5,1.05664 -0.66,0.66 -1.19922,1.79262 -1.19922,2.51562 0,0.722 -0.43956,2.09383 -0.97656,3.04883 -0.537,0.955 -1.44939,3.62555 -2.02539,5.93555 -0.694,2.781 -2.05344,4.91536 -4.02344,6.31836 -4.289,3.054 -3.67399,4.39812 0.66601,1.45312 2.00101,-1.359 4.53868,-2.4707 5.63868,-2.4707 1.1,0 2.59712,-0.788 3.32812,-1.75 0.811,-1.069 1.34233,-1.263 1.36133,-0.5 0.018,0.688 -0.86875,2.15 -1.96875,3.25 -1.1,1.1 -1.55,2 -1,2 1.596,0 5.13156,-3.97616 4.47656,-5.03516 -0.327,-0.53 -0.16086,-0.96484 0.36914,-0.96484 0.551,0 0.73378,-1.818 0.42578,-4.25 -0.869,-6.878 -1.96104,-7.63997 -2.74804,-1.91797 -0.776,5.646 -1.37727,6.50619 -3.57227,5.11719 -0.814,-0.515 -0.94959,-0.9246 -0.30859,-0.9336 0.629,-0.008 1.42644,-0.75425 1.77344,-1.65624 0.527,-1.373 0.38042,-1.43591 -0.89258,-0.37891 -2.022,1.678 -1.975,0.0359 0.125,-4.36914 1.676,-3.515 4.87261,-5.33286 5.72461,-3.25586 0.258,0.629 0.50583,0.40595 0.54883,-0.49805 0.082,-1.70297 -1.52892,-2.76388 -3.22266,-2.71484 z"
     id="path951" />
  <path
     d="m 150.62109,306 c -0.483,0 0.23094,1.43831 1.58594,3.19531 1.355,1.758 3.05534,3.39282 3.77735,3.63281 0.72199,0.24101 0.008,-1.19731 -1.58594,-3.19531 -1.595,-1.998 -3.29435,-3.63281 -3.77735,-3.63281 z"
     id="path949" />
  <path
     d="m 213.80664,304.03906 c -0.932,-0.022 -2.88961,0.98814 -4.34961,2.24414 -1.931,1.662 -2.79673,3.54588 -3.17773,6.92188 -0.436,3.868 -0.92522,4.74005 -2.94922,5.24804 -3.118,0.78301 -6.38992,8.14291 -6.16992,13.87891 0.142,3.687 0.2065,3.79397 0.5625,0.91797 0.222,-1.788 0.82484,-3.25 1.33984,-3.25 0.516,0 0.9375,-1.25034 0.9375,-2.77734 0,-4.331 2.49063,-7.05907 6.76562,-7.41407 3.34201,-0.276 3.76382,-0.62459 4.00782,-3.30859 0.251,-2.762 0.1587,-2.85545 -1.1543,-1.18945 -1.013,1.285 -1.63639,1.46872 -2.15039,0.63672 C 207.07075,315.30327 207.309,314.427 208,314 c 0.691,-0.427 0.95303,-1.26619 0.58203,-1.86719 -0.999,-1.615 1.09036,-4.89022 4.19336,-6.57422 1.862,-1.011 2.18825,-1.49253 1.03125,-1.51953 z"
     id="path947" />
  <path
     d="m 147.51172,277.87891 c -0.16008,-0.0139 -0.26802,0.97109 -0.25977,2.62109 0.011,2.2 0.21608,2.98228 0.45508,1.73828 0.239,-1.244 0.23047,-3.044 -0.0195,-4 -0.0625,-0.239 -0.12242,-0.35475 -0.17578,-0.35937 z"
     id="path945" />
  <path
     d="m 154.58984,277.42773 c -0.2399,0.003 -0.25336,0.28649 -0.0371,0.84961 0.466,1.215 9.44727,6.2616 9.44727,5.3086 0,-0.214 -1.687,-1.43771 -3.75,-2.72071 -2.062,-1.283 -4.30538,-2.69467 -4.98438,-3.13867 -0.30674,-0.20062 -0.53183,-0.30067 -0.67578,-0.29883 z"
     id="path943" />
  <path
     d="m 239.30859,273.01562 c -0.655,-0.008 -1.54737,0.54738 -1.98437,1.23438 -0.436,0.688 -0.7996,3.28634 -0.8086,5.77734 -0.012,3.52 -0.73862,5.51127 -3.26562,8.94727 -2.325,3.162 -3.22144,5.43066 -3.14844,7.97266 l 0.10352,3.55273 0.7207,-3.00586 c 0.397,-1.652 2.03844,-4.99378 3.64844,-7.42578 2.316,-3.5 2.9285,-5.54306 2.9375,-9.78906 0.007,-3.655 0.486,-5.66564 1.5,-6.30664 0.897,-0.567 1.01387,-0.94704 0.29687,-0.95704 z"
     id="path941" />
  <path
     d="m 151.0625,269.0332 c -0.20828,0.009 0.10438,0.265 0.9375,0.875 1.783,1.306 11.16737,4.25646 11.73438,3.68946 0.32799,-0.328 -5.36738,-2.43289 -11.73438,-4.33789 -0.49988,-0.14963 -0.81253,-0.23224 -0.9375,-0.22657 z"
     id="path939" />
  <path
     d="m 138.08984,246.5 -0.0449,3.19141 C 138.01992,251.44641 137.55,253.16 137,253.5 c -0.55,0.34 -1,1.09764 -1,1.68164 0,0.727 0.4258,0.71022 1.3418,-0.0508 2.022,-1.678 2.79004,-0.15734 1.12304,2.22266 -1.794,2.561 -1.89784,6.22235 -0.21484,7.56836 0.688,0.549 3.35288,2.86829 5.92188,5.15429 l 4.67187,4.15821 -0.17187,7.80078 c -0.094,4.291 0.0218,7.60809 0.25781,7.37109 0.658,-0.66 6.04461,8.89175 5.97461,10.59375 -0.055,1.333 -0.12596,1.333 -0.62696,0 -0.31,-0.825 -2.29792,-3.40252 -4.41992,-5.72852 C 146.02742,290.07348 145.082,288 147,288 c 0.55,0 1,-0.63325 1,-1.40625 0,-0.912 -0.70023,-1.22472 -1.99023,-0.88672 -1.437,0.375 -2.22957,-0.12664 -2.85157,-1.80664 -1.006,-2.719 -0.29953,-6.74791 0.85547,-4.87891 0.561,0.909 0.90794,0.91258 1.46094,0.0176 0.406,-0.657 -0.089,-1.78164 -1.125,-2.55664 -1.715,-1.283 -1.66761,-1.34087 0.65039,-0.79687 1.728,0.405 2.191,0.26211 1.5,-0.46289 -0.55,-0.578 -2.10408,-1.20072 -3.45508,-1.38672 -2.357,-0.322 -2.44678,-0.13194 -2.17578,4.66406 0.265,4.713 1.98864,8.82994 6.68164,15.96094 1.072,1.629 1.48406,2.67522 0.91406,2.32422 -1.666,-1.027 -1.66795,8.91957 -0.002,12.14257 1.449,2.802 7.43606,8.50535 8.16406,7.77735 0.207,-0.207 -1.36228,-2.20346 -3.48828,-4.43946 -4.334,-4.555 -5.1739,-7.19245 -3.8789,-12.18945 l 0.88671,-3.42383 2.34375,2.92383 c 1.289,1.608 2.59349,4.14658 2.89649,5.64258 0.303,1.495 1.38053,3.5485 2.39453,4.5625 1.014,1.014 1.66908,2.49025 1.45508,3.28125 -0.325,1.204 -0.22319,1.1998 0.63281,-0.0332 1.449,-2.086 2.34827,-0.74239 1.57227,2.34961 -0.361,1.438 -1.84483,3.182 -3.29883,3.875 -3.163,1.509 -3.90322,5.41117 -2.07422,10.95117 1.196,3.624 4.93164,8.21164 4.93164,6.05664 0,-0.576 -0.675,-1.30605 -1.5,-1.62305 -0.825,-0.316 -1.5,-1.02617 -1.5,-1.57617 0,-0.55 0.65217,-0.74936 1.45117,-0.44336 0.799,0.306 2.036,0.19405 2.75,-0.25195 2.694,-1.682 4.01874,-1.29797 3.30274,0.95703 -1.555,4.897 -1.61805,7.55597 -0.24805,10.29297 1.567,3.128 4.36262,15.25981 3.89062,16.88281 -0.159,0.55 0.28243,0.438 0.98243,-0.25 1.56,-1.534 3.23931,-1.65597 2.32031,-0.16797 -0.368,0.595 -2.74044,1.97164 -5.27344,3.05664 -5.412,2.32 -13.77278,1.91647 -23.67578,-1.14453 -3.3,-1.02 -7.575,-2.16492 -9.5,-2.54492 -1.925,-0.379 -4.85,-1.35974 -6.5,-2.17774 -2.798,-1.388 -2.89139,-1.3764 -1.40039,0.1836 0.88,0.92 5.1255,2.57569 9.4375,3.67969 4.311,1.105 9.11773,2.66956 10.67773,3.47656 1.561,0.807 4.51155,1.36995 6.56055,1.25195 2.048,-0.118 4.66731,0.29406 5.82031,0.91406 1.724,0.929 3.232,0.59071 8.5,-1.90429 24.24,-11.48 65.48824,-28.0731 76.74024,-30.8711 11.185,-2.782 11.41472,-3.30939 9.51172,-21.65039 -0.847,-8.169 -1.86758,-26.77656 -2.26758,-41.35156 -0.4,-14.575 -0.80535,-25.02561 -0.90235,-23.22461 -0.134,2.468 -0.77995,3.50308 -2.62695,4.20508 -2.46,0.935 -3.503,3.49558 -5,12.26758 -0.473,2.768 -1.38981,4.13447 -3.50781,5.23047 -3.873,2.003 -7.03964,6.22325 -7.05664,9.40625 -0.027,5.301 -1.06556,7.03912 -4.60156,7.70312 -4.452,0.835 -8.38477,5.48883 -8.38477,9.92383 0,4.189 -1.57531,8.45781 -3.69531,10.00781 -1.327,0.97 -1.47875,2.15403 -0.84375,6.58203 0.426,2.97 0.83325,6.41044 0.90625,7.64844 0.073,1.238 0.43378,2.25 0.80078,2.25 1.385,0 1.44711,-2.62944 0.16211,-6.89844 -1.725,-5.733 -1.5751,-8.46056 0.2539,-4.60156 l 1.42188,3 -0.61133,-3.73828 c -0.475,-2.9 -0.25191,-3.87942 0.99609,-4.35742 0.88501,-0.34 1.60938,-1.66913 1.60938,-2.95313 0,-1.284 0.51648,-2.65201 1.14648,-3.04101 0.812,-0.502 0.94218,0.0986 0.45118,2.05859 -0.382,1.521 -0.88896,4.17444 -1.12696,5.89844 -0.38,2.738 -0.25729,2.62881 0.97071,-0.86719 1.71,-4.868 1.88245,-8.52033 0.56445,-11.98633 -0.837,-2.202 -0.60692,-3.00245 1.45508,-5.06445 1.347,-1.347 3.60839,-2.44922 5.02539,-2.44922 1.417,0 2.83539,-0.67214 3.15039,-1.49414 0.316,-0.822 0.933,-1.27005 1.375,-0.99805 0.441,0.273 0.56534,-0.40486 0.27734,-1.50586 -0.288,-1.1 -0.0658,-2.00195 0.49219,-2.00195 0.557,0 0.9358,-1.62909 0.8418,-3.62109 -0.14,-2.983 0.38026,-4.042 2.94726,-6 3.349,-2.554 6.87139,-3.09261 8.02539,-1.22461 0.426,0.689 0.27591,0.88537 -0.37109,0.48437 -0.597,-0.369 -1.41255,-0.144 -1.81055,0.5 -0.452,0.731 -0.28936,0.90303 0.43164,0.45703 2.009,-1.241 1.2503,1.13666 -1.3457,4.22266 -1.375,1.634 -2.4715,3.80617 -2.4375,4.82617 0.059,1.703 0.13181,1.69047 0.88281,-0.14453 0.451,-1.1 1.75063,-2.83828 2.89063,-3.86328 2.897,-2.606 4.71148,-11.28786 3.39648,-16.25586 -0.798,-3.016 -1.05253,-3.32386 -1.14453,-1.38086 -0.065,1.375 -0.55489,3.175 -1.08789,4 -0.803,1.243 -0.97052,1.157 -0.97852,-0.5 -0.018,-3.724 2.08897,-9.62947 3.29297,-9.23047 0.811,0.269 1.42446,5.73555 1.93946,17.31055 0.414,9.305 1.5969,25.46992 2.6289,35.91992 1.64,16.611 1.69446,19.28978 0.43946,21.30078 -1.055,1.692 -2.01391,2.13659 -3.62891,1.6836 -1.8,-0.505 -1.92436,-0.40875 -0.69336,0.53124 1.193,0.91201 0.886,1.02116 -1.5,0.53516 -2.211,-0.451 -2.605,-0.34566 -1.5,0.40234 1.249,0.84601 1.15812,1.01826 -0.54688,1.03126 -3.442,0.025 -23.85757,7.34425 -45.76757,16.40624 -11.449,4.735 -22.09235,8.60938 -23.65235,8.60938 -2.283,0 -3.05254,-0.61444 -3.93554,-3.14844 C 169.73266,350.93656 169.701,349 171,349 c 0.55,0 1,0.75097 1,1.66797 0,0.916 0.31708,1.34794 0.70508,0.96094 0.387,-0.388 1.4,0.58325 2.25,2.15625 1.29,2.39 1.95692,2.74267 4.04492,2.13867 l 2.5,-0.72461 -2.5,-0.11524 c -2.285,-0.105 -2.78392,-1.03861 -5.79492,-10.8496 -1.812,-5.903 -3.274,-11.20997 -3.25,-11.79297 0.025,-0.582 -0.6225,-1.932 -1.4375,-3 -1.381,-1.808 -1.44752,-1.70141 -0.97852,1.55859 0.448,3.112 0.3351,3.001 -1.0039,-1 -0.22833,-0.68251 -0.44338,-1.45484 -0.63868,-2.25586 h -2.98242 c -0.96856,3.01672 -2.95767,4.6267 -3.68945,2.42969 -0.218,-0.653 -0.75908,-0.96055 -1.20508,-0.68555 -0.445,0.276 -0.98522,-1.33608 -1.19922,-3.58008 -0.347,-3.634 -0.0855,-4.23753 2.39453,-5.51953 1.702,-0.88 2.82472,-2.30506 2.88672,-3.66406 0.07,-1.514 0.38061,-1.10661 0.97461,1.27539 0.14652,0.58761 0.26076,1.32531 0.33789,2.13281 h 1.51758 c -0.38857,-4.33635 -2.12835,-8.49295 -4.95703,-11.76562 -1.49,-1.723 -3.02602,-4.83316 -3.41602,-6.91016 -0.39,-2.078 -2.02481,-6.24281 -3.63281,-9.25781 -2.276,-4.265 -2.91228,-6.72485 -2.86328,-11.08984 0.05,-4.376 0.26375,-5.11538 0.96875,-3.35938 1.209,3.007 2.81156,2.87731 2.22656,-0.17969 -0.268,-1.401 -3.06733,-4.62433 -6.61133,-7.61133 -7.221,-6.088 -8.03303,-7.28026 -7.20703,-10.57226 0.88,-3.508 2.49077,-2.00305 2.00977,1.87695 -0.29,2.339 -0.13245,2.82033 0.56055,1.73633 1.618,-2.527 1.01923,-7.276 -1.50977,-12 z"
     id="path641" />
  <path
     d="m 229.5,242.34375 c -4.4,0.003 -6.07661,0.17767 -3.72461,0.38867 2.352,0.212 5.952,0.20914 8,-0.006 2.048,-0.215 0.12461,-0.38681 -4.27539,-0.38281 z"
     id="path639" />
  <path
     d="m 124.63867,501.1543 c -0.52828,0.0154 -0.84403,0.36956 -1.20703,0.95703 -0.378,0.611 -0.26786,1.399 0.24414,1.75 0.512,0.351 1.95599,2.32667 3.20899,4.38867 2.225,3.661 2.41985,3.75 8.25585,3.75 3.73001,0 5.74538,-0.376 5.35938,-1 -0.34,-0.55 -1.04822,-1 -1.57422,-1 -0.526,0 -3.74058,-2.025 -7.14258,-4.5 -4.35553,-3.16969 -6.136,-4.37511 -7.14453,-4.3457 z"
     id="path933" />
  <path
     d="m 221,424.23242 c 1.925,0 2.713,0.20603 1.75,0.45703 -0.963,0.252 -2.537,0.252 -3.5,0 -0.963,-0.251 -0.175,-0.45703 1.75,-0.45703 z"
     id="path931" />
  <path
     d="m 133,420.14258 v 10.67773 c 0,10.681 -2.06145,24.89153 -4.06445,28.01953 -0.815,1.274 -0.94188,0.72716 -0.54688,-2.33984 0.283,-2.2 0.77008,-6.475 1.08008,-9.5 l 0.5625,-5.5 -1.45117,4.38867 c -0.799,2.415 -1.76067,6.24 -2.13867,8.5 -0.558,3.337 -6.80694,17.61133 -7.71094,17.61133 -0.134,0 -0.0837,-5.0772 0.11328,-11.2832 0.239,-7.542 -0.17219,-14.11613 -1.24219,-19.82813 -1.874,-10 -1.99501,-12.88867 -0.54101,-12.88867 1.272,0 10.03604,-6.56523 9.49804,-7.11523 -0.207,-0.211 1.15921,-0.46646 3.03321,-0.56446 z"
     id="path929" />
  <path
     d="m 135.10742,419.17383 c 0.52174,-0.0512 1.18467,1.2788 1.89649,4.07617 2.988,11.743 5.21853,17.75705 8.01953,21.62305 3.633,5.015 1.54542,4.33059 -4.39258,-1.44141 -5.125,-4.981 -6.63086,-8.93139 -6.63086,-17.40039 0,-4.44375 0.43662,-6.79159 1.10742,-6.85742 z"
     id="path927" />
  <path
     d="m 44.652344,412.51953 c -0.261371,0.0277 -0.927188,0.89399 -1.921875,2.62695 -0.972,1.694 -1.675469,4.8426 -1.605469,7.1836 l 0.125,4.16992 0.728516,-4 c 0.4,-2.2 1.255343,-5.29967 1.902343,-6.88867 0.845219,-2.07772 1.067705,-3.12316 0.771485,-3.0918 z"
     id="path925" />
  <path
     d="m 27.945312,409.11914 c -0.738931,0.005 -2.149156,0.26477 -4.097656,0.85352 -7.472,2.258 -12.407031,6.25201 -16.582031,13.41601 -2.28,3.911 -4.5423437,8.91133 -5.0273438,11.11133 -1.2369999,5.623 0.3302813,22.32378 2.7382813,29.17578 1.113,3.165 2.05575,6.67006 2.09375,7.78906 0.069,1.988 0.087891,1.98932 0.8378906,0.0703 0.704,-1.798 0.8210157,-1.745 1.4160157,0.625 1.4120002,5.626 12.5830312,13.76836 18.9570312,13.81836 3.817,0.03 4.705438,2.76821 1.648438,5.07421 -1.31,0.988 -2.61825,1.75699 -2.90625,1.70899 -0.288001,-0.049 -1.747188,0.25478 -3.242188,0.67578 -2.004,0.563 -3.621344,0.20462 -6.152344,-1.35938 -4.472,-2.764 -10.6255779,-9.60503 -10.6425779,-11.83203 C 6.9793281,479.28509 6.0527344,475.575 4.9277344,472 3.8027344,468.425 2.5125,463.025 2.0625,460 c -0.706,-4.744 -0.8364063,-4.9807 -0.9414062,-1.7207 -0.19900005,6.179 4.8039531,24.31754 7.8769531,28.56054 3.4430001,4.752 12.5612031,9.73894 16.1582031,8.83594 1.398,-0.35 5.375797,-2.90383 8.841797,-5.67383 3.465,-2.77 10.622344,-7.60323 15.902344,-10.74023 11.106,-6.597 18.824609,-13.96827 31.099609,-29.69727 10.69,-13.697 14.311781,-16.69603 20.92578,-17.33203 l 5.00586,-0.48047 -0.96484,3.36719 c -0.531,1.852 -0.9535,4.27005 -0.9375,5.37305 0.051,3.328 1.62418,-0.35019 2.24218,-5.24219 l 0.53907,-4.25 h -5.25586 c -8.003003,0 -13.395956,4.51809 -27.001956,22.62109 -10.28,13.678 -13.485234,16.45644 -31.615234,27.39844 -8.041,4.853 -10.326438,5.19238 -19.273438,2.85938 C 19.945063,482.64791 10,473.39342 10,470.23242 c 0,-1.185 -0.8649219,-2.95936 -1.9199219,-3.94336 -2.892,-2.695 -5.4636875,-16.86942 -4.8046875,-26.48242 0.412,-6.019 1.1597188,-8.89759 3.2617188,-12.55859 4.9959996,-8.701 10.5813906,-13.54186 18.9003906,-16.38086 3.106875,-1.06063 3.739365,-1.7572 2.507812,-1.74805 z"
     id="path923" />
  <path
     d="m 171,408.30078 c 3.025,0 4.262,0.18702 2.75,0.41602 -1.512,0.229 -3.988,0.229 -5.5,0 -1.512,-0.229 -0.275,-0.41602 2.75,-0.41602 z"
     id="path921" />
  <path
     d="m 254.35742,405.11719 c -0.0828,0.001 -0.10195,1.34453 -0.13476,3.88281 -0.039,3.025 0.54297,9.325 1.29296,14 1.36001,8.471 1.36058,8.476 0.76758,1.5 -0.327,-3.85 -0.90897,-10.15 -1.29297,-14 -0.36496,-3.66138 -0.53894,-5.38411 -0.63281,-5.38281 z"
     id="path919" />
  <path
     d="m 251.54883,401.02539 c -0.13327,0.0529 -0.22358,1.70742 -0.22071,4.47461 0.005,3.85 0.18535,5.30252 0.40235,3.22852 0.216,-2.075 0.21319,-5.225 -0.008,-7 -0.0622,-0.4995 -0.12168,-0.72382 -0.17383,-0.70313 z"
     id="path917" />
  <path
     d="M 97.306641,397.45508 C 97.111998,397.45735 97,397.57392 97,397.81055 c 0,1.556 3.75073,3.41014 5.80273,2.86914 1.421,-0.374 1.3824,-0.46746 -0.22461,-0.56446 -1.05699,-0.064 -2.743995,-0.85953 -3.749995,-1.76953 -0.644375,-0.58312 -1.19708,-0.89441 -1.521484,-0.89062 z"
     id="path915" />
  <path
     d="m 130.85547,397.24805 c -3.0985,0.01 -2.7835,0.12076 0.125,0.79101 1.914,0.442 4.11558,0.44672 4.89258,0.0117 0.847,-0.474 -0.54752,-0.79573 -3.47852,-0.80273 -0.58437,-0.001 -1.09642,-0.001 -1.53906,0 z"
     id="path913" />
  <path
     d="m 183.70898,391.5293 c 0.47923,0.0287 0.21691,0.89553 -1.20312,2.46484 -0.999,1.103 -2.27398,2.00586 -2.83398,2.00586 -0.561,0 0.0352,-1.12309 1.32421,-2.49609 1.29,-1.37297 2.29005,-1.99994 2.71289,-1.97461 z"
     id="path911" />
  <path
     d="m 150.26758,376.8418 c -0.17186,0.007 -0.26758,0.0606 -0.26758,0.16406 0,0.845 5.86802,3.47791 6.41602,2.87891 0.194,-0.212 -1.17025,-1.11482 -3.03125,-2.00782 -1.39575,-0.669 -2.60161,-1.05747 -3.11719,-1.03515 z"
     id="path909" />
  <path
     d="m 371.07617,353.5 0.56445,5.30664 c 0.642,6.046 2.15952,11.96936 2.22852,8.69336 0.024,-1.1 -0.595,-4.7 -1.375,-8 z"
     id="path907" />
  <path
     d="m 369.49219,342.83984 c -0.15306,-0.0191 -0.25977,0.77657 -0.25977,2.16016 0,1.925 0.20603,2.712 0.45703,1.75 0.252,-0.962 0.252,-2.538 0,-3.5 -0.0706,-0.27056 -0.13737,-0.4027 -0.19726,-0.41016 z"
     id="path905" />
  <path
     d="m 202.2793,327.1543 c -0.18337,-0.0186 -0.22672,0.41645 -0.20703,1.3457 0.023,1.1 0.41609,3.8 0.87109,6 l 0.82617,4 0.0996,-4.5 c 0.055,-2.475 -0.33614,-5.175 -0.86914,-6 -0.35044,-0.54206 -0.57808,-0.83126 -0.7207,-0.8457 z"
     id="path903" />
  <path
     d="m 307.41406,324.25195 c -0.20974,-0.0224 -0.12595,0.33624 0.16992,1.10743 0.71,1.849 7.99302,2.12085 16.91602,0.63085 3.57,-0.596 2.21109,-0.67996 -4.75391,-0.29296 -7.061,0.392 -10.17343,0.19325 -11.27343,-0.71875 -0.55475,-0.46069 -0.89546,-0.70918 -1.0586,-0.72657 z"
     id="path901" />
  <path
     d="m 212.43945,317.58984 c -0.21583,0.0245 -0.48734,0.65063 -0.80859,1.875 -0.427,1.631 -1.64313,4.86932 -2.70313,7.19532 -1.06,2.327 -1.91443,4.81715 -1.89843,5.53515 0.017,0.718 1.39645,-1.75604 3.06445,-5.49804 1.668,-3.741 2.87183,-7.566 2.67383,-8.5 -0.0889,-0.42038 -0.19863,-0.62211 -0.32813,-0.60743 z"
     id="path899" />
  <path
     d="m 291.51758,314.22266 c 0.0569,0.01 0.12028,0.17915 0.1875,0.52734 0.238,1.238 0.238,3.262 0,4.5 -0.239,1.238 -0.4336,0.225 -0.4336,-2.25 0,-1.77891 0.10069,-2.80194 0.2461,-2.77734 z"
     id="path897" />
  <path
     d="m 296.24023,306.69336 c 0.21657,-0.005 0.70402,0.86289 1.25977,2.30664 0.741,1.925 1.34675,3.95 1.34375,4.5 -0.003,0.55 -0.62391,-0.35 -1.37891,-2 -0.756,-1.65 -1.36075,-3.675 -1.34375,-4.5 0.004,-0.20625 0.047,-0.30508 0.11914,-0.30664 z"
     id="path895" />
  <path
     d="m 275.51172,259.87891 c 0.0534,0.005 0.11328,0.12037 0.17578,0.35937 0.25,0.956 0.25853,2.756 0.0195,4 -0.239,1.244 -0.44408,0.46172 -0.45508,-1.73828 -0.008,-1.65 0.0997,-2.63497 0.25977,-2.62109 z"
     id="path893" />
  <path
     d="m 350.17188,241.28906 c -0.0355,0.006 -0.0287,0.0734 0.0273,0.21094 1.611,3.97 6.91087,14.5 7.29687,14.5 0.722,0 -4.15682,-10.69386 -6.04882,-13.25586 -0.6825,-0.9255 -1.16889,-1.47176 -1.27539,-1.45508 z"
     id="path891" />
  <path
     d="m 335.66992,238.1582 c -0.58595,0.0378 -2.17856,0.84991 -6.46484,2.96485 -3.462,1.708 -8.73194,5.33268 -11.71094,8.05468 -5.12,4.68 -13.49414,15.88179 -13.49414,18.05079 0,0.55 1.82655,-1.73804 4.06055,-5.08204 C 314.59155,252.36548 329.4087,240 334.5957,240 c 0.773,0 1.4043,-0.45 1.4043,-1 0,-0.53016 0.0708,-0.86765 -0.33008,-0.8418 z"
     id="path889" />
  <path
     d="m 346.24805,236.96094 c -2.96198,0.0424 -7.38227,0.47086 -8.22852,1.00586 -0.962,0.608 0.615,0.7297 4.5,0.3457 3.29,-0.324 6.16944,-0.75217 6.39844,-0.95117 0.36,-0.31275 -0.89274,-0.42585 -2.66992,-0.40039 z"
     id="path887" />
  <path
     d="m 142.30664,229.12109 c -0.25744,0.0157 -0.19083,0.22063 0.19336,0.61719 0.55,0.568 5.05,2.49144 10,4.27344 4.95,1.783 10.31869,3.72255 11.92969,4.31055 1.612,0.588 4.818,2.51048 7.125,4.27148 5.065,3.866 8.44219,5.74336 9.11719,5.06836 0.275,-0.275 -0.55194,-1.05633 -1.83594,-1.73633 -1.285,-0.681 -4.17011,-2.73255 -6.41211,-4.56055 -2.605,-2.124 -8.2,-4.74653 -15.5,-7.26953 -6.283,-2.171 -12.32383,-4.27292 -13.42383,-4.66992 -0.59719,-0.21525 -0.99312,-0.31693 -1.19336,-0.30469 z"
     id="path885" />
  <path
     d="m 322.23438,222 c -2.49901,0 -3.83891,0.97 -7.25391,5.25 -6.924,8.676 -14.85583,26.93561 -13.67383,31.47461 0.365,1.404 0.48613,1.31694 0.57813,-0.41406 0.064,-1.205 1.27535,-5.40785 2.69335,-9.33985 4.335,-12.019 12.57697,-24.47054 16.91797,-25.56054 2.6,-0.652 10.16722,2.3554 14.94922,5.9414 4.809,3.606 6.40489,4.11903 2.58789,0.83203 C 334.2442,226.05859 325.91138,222 322.23438,222 Z"
     id="path883" />
  <path
     d="m 296,211.05078 c -0.87,0.011 -0.44995,0.60034 0.99805,1.40234 1.375,0.76 2.71265,1.17016 2.97265,0.91016 0.672,-0.673 -2.1847,-2.3365 -3.9707,-2.3125 z"
     id="path881" />
  <path
     d="m 298.48828,208.12891 c -0.11701,-0.002 -0.23673,0.002 -0.35742,0.008 -2.251,0.117 -2.31517,0.19659 -0.45117,0.55859 1.198,0.234 3.72995,2.31124 5.62695,4.61524 2.429,2.952 4.98906,4.72867 8.66406,6.01367 7.225,2.527 7.33007,1.50058 0.16407,-1.60742 -3.77,-1.634 -6.90654,-3.86263 -8.64454,-6.14063 -1.87593,-2.45906 -3.24675,-3.41931 -5.00195,-3.44726 z"
     id="path879" />
  <path
     d="m 284.26758,193 c 0.182,0 0.10417,1.688 -0.17383,3.75 -0.372,2.759 -0.60491,3.13673 -0.87891,1.42773 -0.343,-2.14 0.27374,-5.17773 1.05274,-5.17773 z"
     id="path877" />
  <path
     d="m 288.46289,187 c -0.889,0 -2.90828,1.29109 -4.48828,2.87109 -3.528,3.528 -3.48822,3.32591 -5.44922,26.62891 -2.306,27.382 -6.03314,58.39331 -10.11914,84.19531 -1.324,8.358 -2.40625,16.76941 -2.40625,18.69141 0,3.599 1.61634,5.77534 2.52734,3.40234 0.593,-1.548 8.09957,-1.20303 9.10157,0.41797 0.338,0.547 -0.80225,3.00303 -2.53125,5.45703 -1.916,2.718 -2.48413,4.09263 -1.45313,3.51563 1.261,-0.706 2.34224,-0.34594 4.24024,1.41406 2.505,2.323 2.52018,2.42881 0.99218,6.63281 -2.041,5.619 -4.47462,5.96217 -9.39062,1.32617 -2.072,-1.954 -3.97071,-3.55273 -4.22071,-3.55273 -0.776,0 0.82243,9.82864 4.35743,26.80664 4.847,23.275 6.3807,35.63319 6.3457,51.11719 -0.029,12.403 -2.682,34.12145 -4.375,35.81445 -0.327,0.327 -0.59375,-1.68565 -0.59375,-4.47266 0,-2.787 -0.93131,-11.29801 -2.07031,-18.91601 -1.139,-7.617 -2.65519,-19.92461 -3.36719,-27.34961 -0.924,-9.625 -1.33269,-11.778 -1.42969,-7.5 -0.074,3.3 0.37881,10.74683 1.00781,16.54883 0.97001,8.96 0.89405,11.894 -0.50195,19.5 -0.904,4.923 -1.7062,13.67617 -1.7832,19.45117 -0.109,8.164 -0.31655,9.61 -0.93555,6.5 -0.586,-2.943 -0.70336,-1.886 -0.44336,4 0.194,4.4 1.09405,9.73542 1.99805,11.85742 2.683,6.3 1.18051,5.08924 -2.64649,-2.13476 -3.47399,-6.557 -5.16989,-13.04343 -6.33789,-24.23243 -0.316,-3.029 -1.03465,-6.179 -1.59765,-7 -0.823,-1.199 -0.92458,-1.09823 -0.51758,0.50977 0.977,3.859 1.86783,13.99284 1.17383,13.33984 -0.386,-0.363 -1.60403,-3.963 -2.70703,-8 -1.724,-6.311 -2.58627,-16.61381 -2.82227,-33.75781 -0.011,-0.779 -0.26731,-1.16628 -0.57031,-0.86328 -1.246,1.245 -2.31913,29.11852 -1.32813,34.47852 1.485,8.031 0.34427,7.6142 -2.30273,-0.8418 -1.967,-6.282 -2.2993,-9.47247 -2.2793,-21.85547 0.021,-13.574 0.39044,-16.352 5.77344,-43.5 3.162,-15.95 6.65472,-31.475 7.76172,-34.5 l 2.01367,-5.5 -3.08984,3.7168 c -1.7,2.044 -6.89297,6.22315 -11.54297,9.28515 -4.65,3.063 -8.45508,5.7886 -8.45508,6.0586 0,0.805 5.82064,-2.45152 11.80664,-6.60352 6.377,-4.425 8.27286,-4.38841 3.13086,0.0586 -2.228,1.928 -2.7345,2.73579 -1.4375,2.30079 1.1,-0.369 2.33037,-1.15414 2.73438,-1.74414 1.40499,-2.053 0.76242,2.40229 -2.76758,19.15429 -1.944,9.228 -4.20721,17.44253 -5.03321,18.26953 -1.174,1.177 -4.85159,1.57322 -16.93359,1.82422 -14.583,0.302 -16.1098,0.14574 -27.7168,-2.82226 -13.253,-3.39 -18.07795,-5.56988 -18.62695,-8.42188 -0.213,-1.108 0.0743,-1.55258 0.73633,-1.14258 0.675,0.416 0.86023,0.0841 0.49023,-0.88086 -0.468,-1.218 0.14547,-1.55273 2.85547,-1.55273 1.9,0 4.95506,-0.74711 6.78906,-1.66211 1.833,-0.915 4.71435,-2.03147 6.40235,-2.48047 2.279,-0.607 1.91031,-0.66551 -1.42969,-0.22851 -7.283,0.952 -17.08014,1.05168 -17.61914,0.17968 -0.274,-0.445 0.0383,-0.80859 0.69531,-0.80859 0.658,0 7.77355,-3.54395 15.81055,-7.87695 8.038,-4.332 21.9595,-11.57475 30.9375,-16.09375 8.977,-4.519 16.11347,-8.4266 15.85547,-8.6836 -0.257,-0.257 -6.00449,2.30822 -12.77149,5.69922 -6.766,3.392 -16.14951,7.893 -20.85351,10 -39.301,17.605 -37.14566,16.48169 -33.97266,17.67969 1.605,0.606 2.91797,1.8145 2.91797,2.6875 0,2.145 -0.92058,2.00452 -5.01758,-0.77149 -1.915,-1.297 -4.60742,-2.67168 -5.98242,-3.05468 -1.428,-0.398 -0.15616,0.83123 2.96484,2.86523 7.928,5.168 13.03516,10.46172 13.03516,13.51172 0,3.031 -4.30897,8.03711 -6.91797,8.03711 -1.01,0 -2.35714,-0.62753 -2.99414,-1.39453 -0.637,-0.768 -2.83005,-1.72591 -4.87305,-2.12891 -2.043,-0.403 -3.14522,-0.93936 -2.44922,-1.19336 0.696,-0.253 3.36374,0.25396 5.92774,1.12696 5.511,1.878 5.30664,1.85584 5.30664,0.58984 0,-0.55 -1.09841,-1 -2.44141,-1 -1.343,0 -2.69014,-0.40253 -2.99414,-0.89453 -0.818,-1.323 2.59674,-2.34467 3.80274,-1.13867 0.568,0.568 1.45851,1.0332 1.97851,1.0332 0.52,0 -0.267,-1.125 -1.75,-2.5 -3.188,-2.954 -2.1877,-3.31 1.4043,-0.5 1.375,1.076 3.12467,1.96652 3.88867,1.97852 1.572,0.025 -4.98812,-5.44632 -9.07812,-7.57032 -1.479,-0.768 -5.66574,-3.64934 -9.30274,-6.40234 -4.358,-3.298 -7.53354,-4.97692 -9.31054,-4.91992 l -2.69727,0.0859 2.5,0.76757 c 2.435,0.749 12,6.80661 12,7.59961 0,0.218 -1.238,1.1038 -2.75,1.9668 -2.23,1.271 -2.324,1.45289 -0.5,0.96289 1.486,-0.399 2.27431,-0.15616 2.32031,0.71484 0.039,0.724 0.45669,0.41641 0.92969,-0.68359 0.843,-1.963 0.86069,-1.9603 0.92969,0.0957 0.084,2.514 -2.85128,5.4043 -5.48828,5.4043 -2.418,0 -11.73013,-5.66131 -21.70313,-13.19531 -8.659,-6.542 -11.40873,-7.8595 -16.05273,-7.6875 -2.519,0.093 -2.1791,0.28773 1.6289,0.92773 3.883,0.652 6.99355,2.46786 16.06055,9.38086 6.185,4.716 11.59639,8.57422 12.02539,8.57422 0.43,0 2.56038,1.52377 4.73438,3.38477 2.175,1.861 5.35345,3.66385 7.06445,4.00585 4.261,0.85201 5.80078,2.35416 5.80078,5.66016 0,4.996 -3.14202,7.03266 -14.41602,9.34766 -7.151,1.468 -8.41823,2.10097 -13.11523,6.54297 -3.763,3.559 -6.27198,5.08353 -9.08398,5.51953 -5.991,0.928 -14.66577,3.62881 -16.88477,5.25781 -1.921,1.409 -1.901,1.43791 0.5,0.75391 1.375,-0.392 4.01609,-1.3328 5.87109,-2.0918 4.264,-1.745 4.66391,-1.73086 3.12891,0.11914 -0.685,0.825 -1.87644,1.5 -2.64844,1.5 -0.773,0 -2.8559,1.38041 -4.6289,3.06641 l -3.22266,3.0664 0.35156,16.98242 c 0.462,22.331 0.21596,23.5241 -5.37304,25.9961 -5.522,2.443 -6.26466,5.42383 -4.47266,17.92383 1.218,8.496 0.8473,12.96993 -1.5957,19.33593 -0.557,1.453 0.75461,1.62891 12.09961,1.62891 h 12.72265 l -3.61719,-4.00391 c -2.528,-2.798 -3.61523,-4.942 -3.61523,-7.125 0,-2.954 0.16603,-3.08886 3.08203,-2.50586 2.489,0.498 13.846,7.80596 19.625,12.62696 0.664,0.555 2.014,1.004 3,1 1.337,-0.005 1.03197,-0.52922 -1.20703,-2.07422 -2.782,-1.919 -2.818,-2.01919 -0.5,-1.36719 1.375,0.386 3.71422,1.32017 5.19922,2.07617 2.215,1.126 15.486,1.37305 73.75,1.37305 H 294 v -4.5 c 0,-3.25 -0.556,-4.986 -2,-6.25 -6.675,-5.84 -6.30305,-5.07408 -5.62305,-11.58008 0.627,-6.002 0.59049,-6.11834 -3.10351,-9.90234 -3.51,-3.594 -3.75966,-4.26688 -4.09766,-11.04688 -0.334,-6.693 0.0534,-8.38478 5.31836,-23.17578 3.124,-8.776 6.71642,-18.001 7.98242,-20.5 4.684,-9.244 15.79896,-41.44569 19.00196,-55.05469 L 313.24219,362.5 310,348.5 c -6.17,-26.636 -8.03369,-36.008 -7.55469,-38 0.511,-2.125 2.34469,-3.34655 23.55469,-15.68555 14.527,-8.45 26.104,-13.42765 32.5,-13.97265 l 4,-0.33985 2.12109,17 c 2.469,19.788 3.70225,17.26872 -11.09375,22.63672 -5.516,2.001 -16.91026,6.164 -25.32226,9.25 -8.412,3.087 -16.26322,5.61133 -17.44922,5.61133 -1.474,0 -1.83191,0.32434 -1.12891,1.02734 1.056,1.056 12.77905,-2.64117 30.37305,-9.57617 4.675,-1.843 12.41712,-4.67873 17.20312,-6.30273 l 8.70313,-2.95313 0.53516,4.15235 c 0.294,2.284 0.94812,7.75234 1.45312,12.15234 0.798,6.95 0.85264,6.228 0.43164,-5.5 -0.267,-7.425 -0.90211,-16.875 -1.41211,-21 -0.51,-4.125 -1.39193,-11.325 -1.96094,-16 -0.56799,-4.675 -1.64934,-11.875 -2.40234,-16 l -1.37109,-7.5 -0.0899,5.51367 -0.0898,5.51367 -4.9375,1.17188 c -2.715,0.645 -8.227,2.60637 -12.25,4.35937 -10.919,4.759 -41.65425,22.88897 -42.03125,24.79297 -0.18,0.907 -1.15592,-3.06612 -2.16992,-8.82812 -1.415,-8.046 -1.72489,-13.499 -1.33789,-23.5 0.278,-7.163 0.1935,-10.54844 -0.1875,-7.52344 l -0.69532,5.5 -0.55859,-4.5 c -0.307,-2.475 -0.35351,1.575 -0.10351,9 0.386,11.487 1.40184,20.214 3.83984,33 0.458,2.4 0.43809,2.41139 -0.50391,0.27539 -1.341,-3.039 -6.63247,-29.41739 -8.48047,-42.27539 -2.204,-15.339 -2.95142,-31.79669 -2.10742,-46.42969 0.816,-14.138 0.27057,-12.92797 8.97656,-19.91797 4.06401,-3.264 4.4169,-5.62053 1.4629,-9.76953 C 297.77202,190.87181 291.32989,187 288.46289,187 Z"
     id="path637" />
  <path
     d="m 169.0625,187 c -0.437,0 -0.13131,2.813 0.67969,6.25 1.401,5.943 1.25451,21.517 -0.27149,28.75 l -0.52734,2.5 1.15625,-2.5 c 2.746,-5.945 1.88589,-35 -1.03711,-35 z"
     id="path635" />
  <path
     d="m 135.40625,179.11133 c -0.93005,0.003 -1.77859,0.46109 -3.03906,1.34375 -1.912,1.339 -2.131,2.791 -2.75,18.25 -0.37,9.237 -1.11049,25.34492 -1.64649,35.79492 -0.536,10.45 -1.41698,38.25602 -1.95898,61.79102 -0.603,26.228 -1.39969,43.646 -2.05469,45 -0.987,2.04 -0.95533,2.07129 0.38867,0.40429 1.638,-2.03 2.23142,-11.9874 3.23242,-54.1914 0.339,-14.299 1.07091,-26.899 1.62891,-28 0.557,-1.102 2.61903,-3.39475 4.58203,-5.09375 l 3.57032,-3.08789 0.42968,-11.91211 c 0.338,-9.377 0.83232,-12.57235 2.32032,-15.02735 C 142.48237,220.46981 142.455,216.98 140,210 c -2.61,-7.421 -2.44536,-10.47748 0.93164,-17.27148 3.334,-6.707 3.06078,-9.15218 -1.32422,-11.82618 -1.98687,-1.21125 -3.14712,-1.79396 -4.20117,-1.79101 z"
     id="path633" />
  <path
     d="m 281.58984,163.66602 c -0.11728,-0.0737 -0.19726,2.99726 -0.19726,8.33398 0,7.425 0.15661,10.463 0.34961,6.75 0.192,-3.713 0.192,-9.787 0,-13.5 -0.0543,-1.04428 -0.10645,-1.55514 -0.15235,-1.58398 z"
     id="path631" />
  <path
     d="m 333.32227,162.5 -0.0254,23.5 c -0.017,15.452 0.22507,21.103 0.70507,16.5 0.402,-3.85 0.41144,-14.425 0.0234,-23.5 z"
     id="path629" />
  <path
     d="m 192.50781,156.5 c -7.293,0 -9.86064,0.29323 -8.68164,0.99023 0.921,0.544 4.82383,0.98829 8.67383,0.98829 3.85,0 7.75664,-0.44429 8.68164,-0.98829 1.185,-0.698 -1.37683,-0.99023 -8.67383,-0.99023 z"
     id="path627" />
  <path
     d="m 140.22656,156.05859 c -0.13712,-0.009 -0.17048,0.13691 -0.084,0.44141 0.157,0.55 -0.5588,4.95316 -1.5918,9.78516 -1.374,6.428 -1.58148,9.08453 -0.77148,9.89453 0.811,0.811 0.97161,0.58611 0.59961,-0.83789 -0.28,-1.072 0.42159,-5.50175 1.55859,-9.84375 1.471,-5.615 1.75814,-8.19632 0.99414,-8.94532 -0.327,-0.32 -0.56795,-0.48501 -0.70508,-0.49414 z"
     id="path625" />
  <path
     d="m 104.51758,152.22266 c -0.14541,-0.0246 -0.2461,0.99843 -0.2461,2.77734 0,2.475 0.1946,3.488 0.4336,2.25 0.238,-1.238 0.238,-3.262 0,-4.5 -0.0672,-0.34819 -0.1306,-0.51772 -0.1875,-0.52734 z"
     id="path623" />
  <path
     d="m 198.9082,149.25781 c -5.83121,-0.0114 -12.36558,0.40086 -15.9082,1.18555 l -5.5,1.2168 9.79492,0.79296 c 5.387,0.43501 10.07402,0.50997 10.41602,0.16797 0.342,-0.342 -2.03897,-0.64959 -5.29297,-0.68359 -4.939,-0.053 -5.50841,-0.22773 -3.44141,-1.05273 1.394,-0.557 7.075,-0.76552 13,-0.47852 6.499,0.316 9.37644,0.18892 7.52344,-0.33008 -1.94644,-0.54556 -6.05641,-0.8095 -10.5918,-0.81836 z"
     id="path621" />
  <path
     d="m 242.26953,147.99805 c -0.127,0.001 -0.51528,1.13553 -0.86328,2.51953 -1.357,5.407 0.20494,22.77995 2.58594,28.75195 1.265,3.174 2.47169,5.59963 2.67969,5.39063 0.209,-0.208 -0.79924,-4.033 -2.24024,-8.5 -2.265,-7.024 -2.57339,-9.47858 -2.27539,-18.14258 0.189,-5.511 0.24028,-10.02053 0.11328,-10.01953 z"
     id="path619" />
  <path
     d="m 103.49219,134.83984 c -0.15306,-0.0191 -0.25977,0.77657 -0.25977,2.16016 0,1.925 0.20603,2.713 0.45703,1.75 0.252,-0.963 0.252,-2.537 0,-3.5 -0.0706,-0.27084 -0.13737,-0.40267 -0.19726,-0.41016 z"
     id="path617" />
  <path
     d="m 282.60156,118.11133 c -0.10315,0.10209 -0.17383,5.1875 -0.17383,13.88867 0,12.375 0.14236,17.438 0.31836,11.25 0.175,-6.187 0.175,-16.312 0,-22.5 -0.0522,-1.83677 -0.10097,-2.68178 -0.14453,-2.63867 z"
     id="path615" />
  <path
     d="m 181.25195,116.07812 c -0.0709,0.0105 -0.11062,0.14688 -0.10937,0.42188 0.01,2.086 2.65862,9.75 2.76562,8 0.033,-0.55 -0.57547,-3.025 -1.35547,-5.5 -0.585,-1.85625 -1.08801,-2.95352 -1.30078,-2.92188 z"
     id="path613" />
  <path
     d="m 130.37109,113.13477 c -3.4254,0.0165 -4.25875,0.28353 -3.15625,0.92578 1.101,0.642 3.423,0.67007 6.5,0.0801 l 4.78516,-0.91601 -6.5,-0.082 c -0.597,-0.007 -1.13956,-0.0102 -1.62891,-0.008 z"
     id="path611" />
  <path
     d="m 323.62891,106.72461 c -0.0925,-0.26833 -0.15625,15.49883 -0.15625,42.77539 0,37.95 0.12534,53.33073 0.27734,34.17773 0.152,-19.153 0.15105,-50.203 -0.002,-69 -0.0427,-5.28665 -0.083,-7.84812 -0.11914,-7.95312 z"
     id="path847" />
  <path
     d="m 248.41016,104.19531 c -0.537,-0.008 -2.12716,0.42569 -4.41016,1.30469 -1.925,0.741 -2.825,1.36191 -2,1.37891 0.825,0.017 2.85,-0.58775 4.5,-1.34375 1.931,-0.884 2.44716,-1.3321 1.91016,-1.33985 z"
     id="path845" />
  <path
     d="m 183.20508,103.47656 c -0.0719,0.0249 -0.11883,0.1946 -0.13477,0.53125 -0.039,0.828 0.37778,3.06657 0.92578,4.97657 0.547,1.909 1.27614,6.18214 1.61914,9.49414 0.779,7.516 1.39561,8.40345 1.34961,1.93945 -0.029,-4.02375 -3.06444,-17.18253 -3.75976,-16.94141 z"
     id="path609" />
  <path
     d="m 119.64258,102.13477 c -0.49038,-0.0169 0.35301,0.83171 2.42383,2.57421 2.452,2.063 4.43917,2.76265 8.32617,2.93164 4.513,0.197 4.68867,0.13661 1.51367,-0.52539 -1.976,-0.412 -5.4763,-1.73064 -7.7793,-2.93164 -2.58093,-1.34484 -4.05169,-2.03395 -4.48437,-2.04882 z"
     id="path607" />
  <path
     d="m 257.85352,99.09375 c -0.30832,-0.02442 -1.26096,0.472547 -4.19727,2.02148 -2.115,1.116 -3.63495,2.24005 -3.37695,2.49805 0.475,0.476 7.7207,-3.47689 7.7207,-4.212889 0,-0.177188 -0.006,-0.295542 -0.14648,-0.306641 z"
     id="path605" />
  <path
     d="m 164.78711,174.54883 c -0.35175,-0.0362 -0.10242,1.07864 0.76367,3.95508 0.801,2.661 1.73994,5.09701 2.08594,5.41601 1.284,1.183 -0.83411,-7.47389 -2.16211,-8.83789 -0.32119,-0.32962 -0.54986,-0.51904 -0.6875,-0.5332 z"
     id="path837" />
  <path
     d="m 113.30469,173.27734 c -0.0422,0.009 -0.0804,0.24141 -0.10938,0.72266 -0.115,1.925 -0.44156,6.65 -0.72656,10.5 -0.406,5.475 -0.28803,6.4695 0.54297,4.5625 0.585,-1.341 0.91251,-6.066 0.72851,-10.5 -0.138,-3.3255 -0.30907,-5.31202 -0.43554,-5.28516 z"
     id="path835" />
  <path
     d="m 114.49219,164.83984 c -0.15306,-0.0191 -0.25977,0.77657 -0.25977,2.16016 0,1.925 0.20603,2.713 0.45703,1.75 0.252,-0.963 0.252,-2.537 0,-3.5 -0.0706,-0.27084 -0.13737,-0.40267 -0.19726,-0.41016 z"
     id="path833" />
  <path
     d="m 116.61719,144.29492 c -0.25549,-0.008 -0.75597,3.52866 -1.13281,8.05078 -0.388,4.668 -0.50477,9.08632 -0.25977,9.82032 0.246,0.734 0.76525,-2.88211 1.15625,-8.03711 0.39,-5.154 0.50677,-9.57427 0.25976,-9.82227 -0.008,-0.008 -0.0152,-0.0115 -0.0234,-0.0117 z"
     id="path831" />
  <path
     d="m 113.8125,113.58789 c -0.39436,-0.0351 0.12142,0.59974 1.54492,1.89649 l 2.85938,2.60546 -0.53321,12.20508 -0.53125,12.20508 1.25782,-12 c 1.359,-12.953 1.05056,-14.27134 -3.89844,-16.65234 -0.33375,-0.1605 -0.56777,-0.24807 -0.69922,-0.25977 z"
     id="path829" />
  <path
     d="m 271.75391,102.00195 c -0.27229,-0.13217 -4.0758,21.42774 -8.55274,48.49805 -4.547,27.5 -8.45645,52.25 -8.68945,55 -0.396,4.688 -0.35724,4.626 0.63476,-1 1.424,-8.07 11.37818,-67.29156 14.45118,-85.97656 1.354,-8.236 2.32997,-15.661 2.16796,-16.5 -0.003,-0.0131 -0.007,-0.0194 -0.0117,-0.0215 z"
     id="path827" />
  <path
     d="m 103.04297,99.203125 c -0.0258,0.01003 -0.0388,0.04266 -0.0391,0.09766 -0.008,1.658995 2.90475,6.292215 5.46875,8.699215 1.464,1.375 4.71656,3.19588 7.22656,4.04688 4.469,1.515 4.658,1.756 9,11.5 2.439,5.47399 4.90456,11.07812 5.47656,12.45312 1.123,2.696 1.17864,11.925 0.18164,29.75 -0.592,10.582 -0.51814,11.24837 1.25586,11.23438 1.15,-0.01 1.45144,-0.30201 0.77344,-0.75 -0.78,-0.51501 -0.96424,-6.02277 -0.61524,-18.38477 l 0.4961,-17.65234 3.45703,4.65234 c 1.901,2.558 6.28991,7.35039 9.75391,10.65039 l 6.29687,6 -0.47461,14.5 c -0.427,12.999 -0.68175,14.655 -2.46875,16 -1.096,0.825 -3.21975,2.625 -4.71875,4 -1.499,1.375 -2.02397,1.96931 -1.16797,1.32031 0.857,-0.65 2.68264,-1.67148 4.05664,-2.27148 7.247,-3.162 18.47152,-9.73983 18.85352,-11.04883 0.366,-1.255 0.12701,-1.23409 -1.45899,0.12891 -2.718,2.336 -8.11718,4.93586 -9.61718,4.63086 -0.704,-0.143 -1.1673,0.30323 -1.0293,0.99023 0.137,0.688 -0.2,1.25 -0.75,1.25 -0.591,0 -0.99523,-3.578 -0.99023,-8.75 0.011,-11.528 0.96018,-19.0847 2.36718,-18.8457 1.765,0.3 5.87467,2.68689 8.76367,5.08789 1.452,1.207 6.40201,3.68962 11,5.51562 4.59701,1.826 10.93408,4.59725 14.08008,6.15625 6.174,3.06 9.65871,3.50392 13.09571,1.66992 1.201,-0.641 8.25859,-5.64228 15.68359,-11.11328 13.489,-9.939 22,-17.3154 22,-19.0664 0,-0.511 -2.16359,1.09536 -4.80859,3.56836 -4.814,4.504 -30.0288,23.5502 -33.9668,25.6582 -1.151,0.616 -2.78109,1.11914 -3.62109,1.11914 -3.436,0 -36.44052,-17.1868 -44.10352,-22.9668 -13.095,-9.876 -16.57861,-14.83431 -28.84961,-41.07031 -2.146,-4.588 -3.23909,-5.76709 -6.37109,-6.87109 -5,-1.762 -10.00138,-5.58903 -12.35938,-9.45703 -0.9205,-1.5085 -1.69643,-2.50186 -1.87695,-2.431641 z"
     id="path825" />
  <path
     d="M 96.412109,97.972656 C 96.14088,97.943443 96,98.256953 96,98.927734 c 0,0.511 1.598734,3.612576 3.552734,6.892576 l 3.550786,5.96289 1.3789,20.35742 c 1.731,25.54901 2.96989,66.86068 2.08789,69.63868 -0.704,2.219 -4.15253,3.62729 -11.394529,4.65429 -5.483,0.778 -16.155047,5.59039 -21.123047,9.52539 -3.874,3.068 -9.752593,13.11802 -14.058593,24.04102 -4.593,11.65 -9.21036,38.73094 -8.81836,51.71094 0.157,5.211 0.208531,5.34006 0.519531,1.28906 1.065,-13.887 3.612344,-31.741 5.777344,-40.5 3.278,-13.262 12.037578,-31.15834 17.267578,-35.27734 7.374,-5.808 15.344,-8.88019 27.874996,-10.74219 5.238,-0.778 5.30882,-0.53747 5.50782,18.51953 l 0.15234,14.5 0.94727,-9.49414 c 0.626,-6.281 0.59611,-11.8577 -0.0879,-16.4707 -0.57,-3.836 -1.29343,-19.36386 -1.60743,-34.50586 -0.313,-15.141 -1.19112,-36.57767 -1.95312,-47.63868 -1.346,-19.56699 -1.47352,-20.28821 -4.72852,-26.69921 -2.197934,-4.32903 -3.740449,-6.644098 -4.433591,-6.718754 z"
     id="path603" />
  <path
     d="m 284.41016,87.300781 c -0.14821,0.0044 -0.40713,0.937969 -0.77735,2.789063 -0.348,1.738 -0.56828,6.366156 -0.48828,10.285156 0.141,6.888 0.1722,6.793 0.9082,-2.875 0.51975,-6.830906 0.64037,-10.207527 0.35743,-10.199219 z"
     id="path601" />
  <path
     d="m 271.63281,85.896484 c -0.29268,0.03085 -0.66429,0.34711 -1.07617,1.013672 -0.309,0.5 -0.29384,1.738 0.0352,2.75 0.406,1.249 0.30731,1.43975 -0.30469,0.59375 -0.67,-0.928 -1.71684,-0.405031 -4.08984,2.042969 -2.35,2.425 -3.46986,4.806594 -4.25586,9.058595 -0.971,5.252 -8.89871,30.14823 -10.34571,32.49023 -0.335,0.541 -0.23248,1.13336 0.22852,1.31836 0.81,0.324 -0.29486,50.63961 -1.13086,51.47461 -0.228,0.228 -0.7188,-3.30933 -1.0918,-7.86133 -0.372,-4.552 -1.48751,-13.36407 -2.47851,-19.58007 l -1.80274,-11.30079 2.79883,-5.19921 c 3.939,-7.31 3.54738,-7.92857 -1.01562,-1.60157 -2.143,2.972 -3.70089,5.72614 -3.4629,6.11914 0.238,0.392 1.53196,8.942 2.87696,19 1.344,10.057 2.92095,20.08516 3.50195,22.28516 0.646,2.443 0.94553,13.345 0.76953,28 l -0.28906,24 -6,0.58203 -6,0.58203 6.23047,0.16797 c 5.724,0.154 6.2695,-0.015 6.6875,-2.08203 0.251,-1.238 0.77025,-22.275 1.15625,-46.75 0.994,-62.941 0.62422,-58.15803 5.82422,-74.95703 2.475,-7.998 4.96706,-16.37142 5.53906,-18.607423 1.021,-3.994 6.0625,-10.18236 6.0625,-7.443359 0,2.040999 0.95594,0.648531 1.96094,-2.855469 0.572,-1.995125 0.31578,-3.308106 -0.32813,-3.240235 z"
     id="path599" />
  <path
     d="m 148.93945,85.166016 c -1.01702,-9.16e-4 -1.97551,0.484671 -2.24414,1.185546 -0.828,2.157 0.27931,5.425282 2.07031,6.113282 2.23401,0.857 3.4435,-0.76075 3.0625,-4.09375 -0.23199,-2.033 -0.94817,-2.958828 -2.45117,-3.173828 -0.14587,-0.02075 -0.29221,-0.03112 -0.4375,-0.03125 z"
     id="path597" />
  <path
     d="m 81.427734,84.142578 c -0.02216,0.0014 -0.04645,0.0055 -0.07031,0.0098 -0.472,0.084 -3.996031,1.772 -7.832031,3.75 -6.45,3.327 -7.634047,3.597656 -15.748047,3.597656 -4.826,0 -8.774391,0.338 -8.775391,0.75 -0.002,1.36 14.085203,0.781266 19.533203,-0.802734 2.938,-0.854 6.945297,-2.641704 8.904297,-3.970704 C 79.397453,86.147562 81,85.407031 81,85.832031 c 0,1.773 -6.351828,9.222266 -9.548828,11.197266 C 69.553172,98.202297 68,99.315953 68,99.501953 c 0,0.590997 7.394703,-1.668047 10.220703,-3.123047 1.497,-0.77 3.231469,-2.354484 3.855469,-3.521484 0.974,-1.82 0.5925,-1.711281 -2.6875,0.761719 L 75.568359,96.5 78.205078,93 c 2.670609,-3.542766 4.619006,-8.9479 3.222656,-8.857422 z"
     id="path595" />
  <path
     d="m 269.70508,94.851562 c -0.3686,-0.02777 -1.36291,1.644891 -2.39453,4.087891 -1.18,2.791997 -1.74391,4.828387 -1.25391,4.525387 1.348,-0.833 4.18563,-7.235137 3.76563,-8.494137 -0.0254,-0.07613 -0.0645,-0.115174 -0.11719,-0.119141 z"
     id="path813" />
  <path
     d="M 187.30469,91.361328 C 187.10618,91.37405 187,91.524797 187,91.818359 c 0,0.584 0.45663,1.346407 1.01562,1.691407 0.559,0.346 0.80021,0.981109 0.53321,1.412109 -0.492,0.796 5.88117,5.721175 10.45117,8.076175 1.533,0.79 0.76,-0.29846 -2,-2.81446 -2.475,-2.255996 -5.062,-4.119574 -5.75,-4.142574 -0.687,-0.023 -1.25,-0.661922 -1.25,-1.419922 0,-0.757 -0.675,-1.936094 -1.5,-2.621094 -0.53213,-0.441563 -0.94008,-0.655028 -1.19531,-0.638672 z"
     id="path811" />
  <path
     d="m 179.58203,81.03125 c -0.27223,0.0056 -0.6925,0.339687 -1.11719,1.027344 -0.651,1.052 3.5173,7.852015 6.1543,10.041015 2.449,2.032 1.47163,-0.15164 -1.98437,-4.43164 -1.852,-2.292 -3.16497,-4.729969 -2.91797,-5.417969 0.29059,-0.808563 0.17376,-1.225055 -0.13477,-1.21875 z"
     id="path593" />
  <path
     d="m 204.06641,81 c -0.587,0 -1.07208,0.563 -1.08008,1.25 -0.007,0.688 -0.26336,2.375 -0.56836,3.75 -0.405,1.823 -0.29842,2.094 0.39258,1 1.685,-2.666 2.38186,-6 1.25586,-6 z"
     id="path591" />
  <path
     d="m 143.61328,79.804688 c -0.4973,0.05367 -1.16326,1.110687 -1.97851,3.148437 -1.365,3.412 -1.45268,4.884281 -0.51368,8.613281 1.325,5.262 3.92907,7.433594 8.91407,7.433594 2.684,0 4.31584,-0.757 6.46484,-3 1.581,-1.65 2.4098,-3 1.8418,-3 -0.568,0 -1.8468,0.9 -2.8418,2 -2.62,2.895 -8.97991,2.749 -10.87891,-0.25 -2.409,-3.805 -2.96687,-8.575047 -1.29687,-11.123047 0.829,-1.265 1.15647,-2.849062 0.73047,-3.539062 -0.1275,-0.206 -0.27564,-0.301094 -0.44141,-0.283203 z"
     id="path589" />
  <path
     d="m 227.67773,79.148438 c -0.95534,0.0037 -1.83459,0.296296 -2.11328,0.748046 -0.91,1.472 0.45497,6.105891 1.79297,6.087891 2.093,-0.028 3.24041,-1.459375 3.19141,-3.984375 -0.034,-1.779 -0.67008,-2.588641 -2.20508,-2.806641 -0.22219,-0.03169 -0.44555,-0.04578 -0.66602,-0.04492 z"
     id="path587" />
  <path
     d="m 242.57617,75.875 c -0.29325,0.0046 -0.81017,0.870531 -1.32617,2.300781 -1.709,4.74 -1.56008,5.944672 0.29492,2.388672 0.842,-1.615 1.40119,-3.594484 1.24219,-4.396484 -0.0395,-0.20075 -0.11319,-0.2945 -0.21094,-0.292969 z"
     id="path585" />
  <path
     d="m 258.45117,70.953125 c -0.18392,0.05346 -0.41522,1.054922 -0.75781,3.115234 -1.11,6.664 -5.772,15.744641 -10.875,21.181641 -2.452,2.612 -4.01652,4.75 -3.47852,4.75 0.539,0 2.9428,-2.138 5.3418,-4.75 4.829,-5.257 10.66161,-18.605328 10.09961,-23.111328 -0.10156,-0.814125 -0.20424,-1.222126 -0.33008,-1.185547 z"
     id="path583" />
  <path
     d="m 325.77539,71.078125 c -0.008,-4.5e-4 -0.0168,-8.59e-4 -0.0254,0.002 -0.137,0.044 -2.05,0.933609 -4.25,1.97461 -2.2,1.040999 -4.73291,1.904921 -5.62891,1.919921 -0.895,0.014 -2.245,0.784891 -3,1.712891 -1.22,1.5 -1.14909,1.602063 0.62891,0.914062 1.1,-0.424999 4.363,-1.667765 7.25,-2.759765 2.887,-1.092 5.25,-2.403063 5.25,-2.914063 0,-0.478125 -0.0993,-0.842852 -0.22461,-0.849609 z"
     id="path797" />
  <path
     d="m 288.73633,70.5 1.29883,2.134766 c 2.299,3.774 6.79728,5.634359 14.36328,5.943359 L 311.5,78.867188 305,78.115234 C 298.12,77.318234 294.99114,76.08 291.11914,72.625 Z"
     id="path581" />
  <path
     d="M 122.73047,69.009766 C 122.30647,69.004766 122.878,70.8 124,73 c 2.63,5.154 3.33878,5.159766 1.17578,0.0098 -0.922,-2.194 -2.02231,-3.994 -2.44531,-4 z"
     id="path579" />
  <path
     d="m 66.535156,67 c -0.272,0 -1.462484,1.912 -2.646484,4.25 -1.184,2.338 -4.388141,7.175 -7.119141,10.75 l -4.964843,6.5 4.675781,-4.933594 C 60.498469,79.327406 67.980156,67 66.535156,67 Z"
     id="path577" />
  <path
     d="m 189.31641,67.810547 c -0.0866,0.0357 -0.14121,0.606453 -0.17383,1.689453 -0.163,5.438 0.91487,11.5 2.04687,11.5 0.51,0 0.63821,-0.469922 0.28321,-1.044922 -0.355,-0.575 -0.99774,-4.063 -1.42774,-7.75 -0.3525,-3.02625 -0.58417,-4.454023 -0.72851,-4.394531 z"
     id="path789" />
  <path
     d="m 165.56055,63.457031 c -0.10796,-0.01711 -0.11857,0.15625 -0.0156,0.542969 0.802,3.02 5.09189,10.658859 6.46289,11.505859 1.78,1.1 5.05922,1.414782 4.44922,0.425782 -0.328,-0.53 -0.95458,-0.741704 -1.39258,-0.470703 -1.123,0.694 -3.52837,-2.189485 -7.10937,-8.521485 -1.21613,-2.1505 -2.11866,-3.438704 -2.39453,-3.482422 z"
     id="path575" />
  <path
     d="m 145.73242,61.523438 c -0.23526,-0.03215 -0.19603,0.921281 0.27735,3.019531 0.459,2.036 1.2897,4.15689 1.8457,4.71289 0.595,0.595 0.5185,-0.66664 -0.1875,-3.05664 -0.87525,-2.964375 -1.63307,-4.634447 -1.93555,-4.675781 z"
     id="path573" />
  <path
     d="m 137.11328,73.330078 c -0.0733,0.0074 -0.11328,0.05095 -0.11328,0.134766 0,0.448 0.787,1.411578 1.75,2.142578 1.617,1.227 1.57422,1.332328 -0.55078,1.361328 -3.997,0.055 -7.61674,2.701406 -10.17774,7.441406 -1.364,2.524 -2.939,4.597469 -3.5,4.605469 -0.667,0.01 -0.65675,0.271 0.0312,0.75 0.579,0.404 2.11416,2.534375 3.41016,4.734375 4.827,8.194 11.89903,13.44591 20.20703,15.00391 3.678,0.69 12.58578,-2.30075 14.80078,-4.96875 0.568,-0.685 -1.30787,-0.12391 -4.17187,1.24609 -6.571,3.145 -10.83944,3.10141 -17.89844,-0.18359 C 133.15439,101.99266 129,96.576984 129,90.083984 c 0,-4.133 5.11317,-9.827062 9.57617,-10.664062 C 142.66217,78.652922 142.782,78.083 139.5,75 c -1.11719,-1.04975 -2.06894,-1.701962 -2.38672,-1.669922 z"
     id="path783" />
  <path
     d="m 141.22852,71.865234 2.13476,4.521485 c 1.718,3.637 2.67472,4.554406 4.88672,4.691406 1.512,0.094 3.27692,0.227875 3.91992,0.296875 0.644,0.069 2.219,2.10725 3.5,4.53125 2.132,4.031 2.33008,4.174828 2.33008,1.673828 0,-1.688 -1.11883,-3.85125 -2.92383,-5.65625 C 152.66717,79.515828 152.47289,79 153.96289,79 c 2.028,0 5.02974,3.987844 5.05273,6.714844 0.013,1.463 0.17879,1.52475 0.92579,0.34375 0.587,-0.927 0.41739,-2.397047 -0.47461,-4.123047 -0.763,-1.475 -1.18074,-2.888578 -0.92774,-3.142578 0.253,-0.253 -0.10106,-0.516891 -0.78906,-0.587891 -5.175,-0.53 -12.61472,-2.810156 -14.38672,-4.410156 z"
     id="path781" />
  <path
     d="m 127.20508,60.373047 c -0.15383,0.0194 -0.19703,0.435015 -0.19922,1.212891 -0.003,1.146999 1.65555,4.217265 3.68555,6.822265 2.736,3.513 3.36101,4.941391 2.41601,5.525391 -0.992,0.613 -0.9379,0.917093 0.2461,1.371094 2.705,1.038999 2.38931,-2.647891 -0.55469,-6.462891 -1.553,-2.013 -3.48969,-4.938 -4.30469,-6.5 -0.71044,-1.362375 -1.09128,-1.993698 -1.28906,-1.96875 z"
     id="path571" />
  <path
     d="m 252.27734,57.244141 c -0.0742,0.01698 -0.12929,0.21164 -0.16211,0.58789 -0.064,0.734 -1.49559,4.783047 -3.18359,8.998047 -2.934,7.327 -2.99841,7.787828 -1.44141,10.423828 1.22,2.066 1.45741,3.950953 0.94141,7.501953 -0.819,5.643 -0.20591,5.395141 1.87109,-0.755859 1.463,-4.335 1.43499,-4.612734 -0.79101,-7.552734 l -2.31055,-3.050782 2.9375,-6.884765 c 1.615,-3.787 2.74567,-7.589219 2.51367,-8.449219 -0.15243,-0.567 -0.27959,-0.840191 -0.375,-0.818359 z"
     id="path569" />
  <path
     d="m 305.75391,51.623047 c -1.63619,0.01028 -2.75391,0.201 -2.75391,0.523437 0,0.469 2.813,0.818391 6.25,0.775391 7.101,-0.09 6.708,-0.560313 -1,-1.195313 -0.90219,-0.07438 -1.75237,-0.108187 -2.49609,-0.103515 z"
     id="path567" />
  <path
     d="m 234.56836,51.302734 c -0.25769,0.05515 -0.67605,0.985704 -0.99805,2.267578 -0.367,1.466001 -0.47523,2.857751 -0.24023,3.09375 0.236,0.235 0.73161,-0.769375 1.09961,-2.234374 0.367,-1.466001 0.47523,-2.857751 0.24023,-3.09375 -0.0295,-0.02938 -0.0648,-0.04108 -0.10156,-0.0332 z"
     id="path565" />
  <path
     d="m 333.54883,51.025391 c -0.13327,0.05287 -0.22358,1.707422 -0.22071,4.474609 0.005,3.85 0.18535,5.302516 0.40235,3.228516 0.216,-2.075 0.21319,-5.225 -0.008,-7 -0.0622,-0.4995 -0.12168,-0.723812 -0.17383,-0.703125 z"
     id="path563" />
  <path
     d="m 75.441406,44.660156 c -0.191083,0.03934 -0.462156,0.963016 -0.941406,2.916016 -0.785,3.202 -2.574078,5.510953 -8.330078,10.751953 -4.031,3.671 -8.531,6.964313 -10,7.320313 -3.155,0.763999 -12.909,7.295046 -13.625,9.123046 -0.274,0.699 2.078515,-0.455406 5.228516,-2.566406 3.149999,-2.11 7.265531,-4.45689 9.144531,-5.21289 1.879,-0.756001 6.221437,-3.997126 9.648437,-7.203126 6.2,-5.8 6.2285,-5.812593 5.4375,-2.558593 -2.465,10.146 -8.000328,20.569422 -14.861328,27.982422 C 54.196578,88.395891 52.283531,91 52.894531,91 c 1.707,0 8.181047,-7.479875 12.373047,-14.296875 4.209,-6.841 11.002156,-26.573656 10.535156,-30.597656 -0.112875,-0.97125 -0.212708,-1.475907 -0.361328,-1.445313 z"
     id="path561" />
  <path
     d="M 143.55078,49 C 143.24778,49 143,51.186375 143,53.859375 c 0,2.674 -0.28672,6.949 -0.63672,9.5 -0.394,2.874 -0.25195,4.640625 0.37305,4.640625 0.595,0 1.0825,-3.896 1.1875,-9.5 0.097,-5.225 -0.0711,-9.5 -0.37305,-9.5 z"
     id="path767" />
  <path
     d="m 124.25977,44.138672 c -0.15234,0.06461 -0.23594,1.482422 -0.20118,4.443359 0.031,2.705 0.43825,6.717969 0.90625,8.917969 0.592,2.792 0.68369,1.433 0.30469,-4.5 -0.36989,-5.768344 -0.77213,-8.962119 -1.00976,-8.861328 z"
     id="path559" />
  <path
     d="m 222.57227,43.136719 c -0.1256,-0.0518 -0.21289,2.107812 -0.21289,5.863281 0,5.225 0.16899,7.362 0.375,4.75 0.20599,-2.612 0.206,-6.888 0,-9.5 -0.0579,-0.734625 -0.11297,-1.09301 -0.16211,-1.113281 z"
     id="path557" />
  <path
     d="m 284.68359,57 c -0.277,0 -0.82861,3.889531 -1.22461,8.644531 -0.553,6.64 -0.36454,9.714 0.81446,13.25 1.019,3.058 1.56786,3.840172 1.63086,2.326172 l 0.0957,-2.28125 2.75,2 c 1.512,1.101 5.43294,2.69025 8.71094,3.53125 6.983,1.793 10.17186,1.890219 6.50586,0.199219 -1.394,-0.643 -4.094,-2.222813 -6,-3.507813 -2.461,-1.659 -2.8138,-1.75589 -1.2168,-0.33789 1.238,1.098 2.25,2.230625 2.25,2.515625 0,0.803 -5.22759,-0.881922 -9.05859,-2.919922 -1.893,-1.007 -3.83732,-1.719031 -4.32032,-1.582031 -0.483,0.136 -0.63579,-0.672875 -0.34179,-1.796875 0.33,-1.263 0.13904,-1.798344 -0.50196,-1.402344 -0.706,0.436 -0.8055,-2.431 -0.3125,-9 C 284.86184,61.337672 284.96059,57 284.68359,57 Z"
     id="path761" />
  <path
     d="m 297.65039,49.910156 c -0.0991,-0.0112 -0.11144,0.177344 -0.0234,0.589844 1.302,6.107 6.81849,15.887891 10.27149,18.212891 1.869,1.258 3.894,2.283297 4.5,2.279297 0.606,-0.003 -0.10317,-0.799532 -1.57617,-1.769532 -3.838,-2.532 -6.44096,-6.154406 -10.37696,-14.441406 -1.42725,-3.00375 -2.49759,-4.837484 -2.79492,-4.871094 z"
     id="path759" />
  <path
     d="m 254.35938,41.5 -0.17969,5 c -0.178,4.922 2.68392,21.969375 3.54492,21.109375 0.242,-0.243 -0.25924,-3.967391 -1.11523,-8.275391 -0.857,-4.309 -1.7143,-10.083984 -1.9043,-12.833984 z"
     id="path555" />
  <path
     d="m 69.537109,38 c -0.277,0 -1.595687,2.153109 -2.929687,4.787109 -1.335,2.633 -5.464688,8.595 -9.179688,13.25 C 53.712734,60.691109 52.1415,63.15 53.9375,61.5 59.2505,56.619 71.610109,38 69.537109,38 Z"
     id="path553" />
  <path
     d="m 476.63281,37.125 c -2.46613,0.02756 -6.22898,0.891094 -10.49023,2.496094 -7.055,2.657 -13.1662,6.538015 -11.2832,7.166015 0.66399,0.221 1.78237,-0.07425 2.48437,-0.65625 2.542,-2.11 16.23484,-7.122953 19.46484,-7.126953 C 478.75959,39.001906 479.864,38.589 479.5,38 c -0.375,-0.60675 -1.38751,-0.891535 -2.86719,-0.875 z"
     id="path551" />
  <path
     d="m 447.5,32.251953 c -2.2,0.011 -2.98228,0.216078 -1.73828,0.455078 1.244,0.239 3.044,0.230469 4,-0.01953 0.956,-0.25 -0.0617,-0.446547 -2.26172,-0.435548 z"
     id="path549" />
  <path
     d="m 253.89062,29.5 0.98047,2 c 0.54,1.1 1.71533,2.9 2.61133,4 l 1.62696,2 -0.98047,-2 c -0.54,-1.1 -1.71533,-2.9 -2.61133,-4 z"
     id="path547" />
  <path
     d="m 85.197266,75.5 0.242187,14 c 0.246,14.172 1.513735,20.44847 5.302735,26.23047 2.564,3.914 2.538937,1.76414 -0.03906,-3.38086 -3.067,-6.117 -3.794188,-9.93861 -4.742187,-24.84961 z"
     id="path747" />
  <path
     d="m 161.58203,74.121094 c -0.38651,0.02368 -0.26336,0.545937 0.11914,1.542968 0.388,1.011 0.23628,1.414297 -0.38672,1.029297 -1.815,-1.122 -0.13098,4.639938 2.29102,7.835938 1.263,1.666 2.73925,4.141 3.28125,5.5 0.845,2.115 0.99492,2.183703 1.04492,0.470703 0.033,-1.1 -1.28664,-4.025 -2.93164,-6.5 -1.645,-2.475 -2.99309,-5.062 -2.99609,-5.75 -0.005,-1.515 1.68868,-1.670219 2.17968,-0.199219 0.495,1.485 10.81641,2.4995 10.81641,1.0625 0,-0.612 -1.463,-1.115187 -3.25,-1.117187 -1.787,-0.002 -4.72244,-0.902 -6.52344,-2 -2.11331,-1.288281 -3.20648,-1.901842 -3.64453,-1.875 z"
     id="path745" />
  <path
     d="m 68.654297,60.242188 c -0.359345,0.04458 -1.706234,1.206 -4.654297,3.796874 -4.428,3.891 -4.570703,5.449344 -0.220703,2.402344 1.224,-0.857 2.742953,-1.23575 3.376953,-0.84375 0.706,0.436 0.880172,0.273125 0.451172,-0.421875 -0.385,-0.623 -0.214141,-2.043297 0.380859,-3.154297 0.626938,-1.172062 0.945507,-1.813967 0.666016,-1.779296 z"
     id="path743" />
  <path
     d="m 89.181641,59.5 0.474609,8 c 0.262,4.4 1.087938,11.825 1.835938,16.5 0.747999,4.675 1.496109,14.575 1.662109,22 0.293,13.094 0.385219,13.59916 3.074219,16.78516 1.525,1.806 2.771484,3.79401 2.771484,4.41601 0,0.623 0.258266,0.87555 0.572266,0.56055 0.315,-0.315 -0.65811,-3.20297 -2.16211,-6.41797 -2.424,-5.182 -2.774031,-7.24398 -3.082031,-18.20898 -0.191,-6.801004 -1.001688,-16.026004 -1.804687,-20.500004 C 91.721438,78.160766 90.641047,71.125 90.123047,67 Z"
     id="path741" />
  <path
     d="m 154.08008,58.5 0.63281,4.5 c 0.348,2.475 0.65083,5.254734 0.67383,6.177734 0.023,0.922 0.39612,1.456454 0.82812,1.189454 1.102,-0.681 0.86005,-3.206188 -0.75195,-7.867188 z"
     id="path739" />
  <path
     d="m 160.00586,46.5 0.48828,5.5 c 0.269,3.025 0.55286,9.1 0.63086,13.5 l 0.14258,8 0.95312,-7.173828 c 0.753,-5.676 0.62214,-8.494 -0.63086,-13.5 z"
     id="path737" />
  <path
     d="m 200.64844,43.382812 c -0.34618,0.09326 -0.57864,2.331 -0.90039,7.617188 -0.319,5.225 -1.34525,13.460734 -2.28125,18.302734 -1.473,7.611 -1.87385,8.559 -2.96485,7 -0.693,-0.992 -1.48762,-2.702734 -1.76562,-3.802734 -0.468,-1.858 -0.5131,-1.843594 -0.6211,0.191406 C 192.05123,73.896406 192.45,75.16 193,75.5 c 0.55,0.34 1,1.884594 1,3.433594 0,4.445 -1.15909,9.086187 -2.12109,8.492187 -0.483,-0.299 -0.87891,0.158625 -0.87891,1.015625 0,0.857 0.49842,1.558594 1.10742,1.558594 0.609,0 0.9185,0.563 0.6875,1.25 -0.232,0.688 1.60027,3.05 4.07227,5.25 4.736,4.215 4.68422,3.421641 -0.17578,-2.693359 -2.586,-3.253 -2.85468,-4.206 -2.26368,-8 0.638,-4.09 3.03419,-9.782672 3.74219,-8.888672 0.854,1.077 9.65017,-1.284266 14.70117,-3.947266 3.096,-1.632 6.15488,-2.96775 6.79688,-2.96875 2.3,-0.004 5.4785,-6.733703 5.0625,-10.720703 L 224.33594,55.5 l -0.16797,4.029297 c -0.133,3.192 -0.89497,4.717031 -3.66797,7.332031 L 217,70.162109 216.9414,59.830078 C 216.91041,54.148078 216.49648,47.7 216.02148,45.5 c -0.57,-2.644 -0.67268,-0.222422 -0.30468,7.142578 0.305,6.128 0.26039,12.315047 -0.0996,13.748047 -0.782,3.114 -6.61053,7.201859 -13.01953,9.130859 -4.491,1.352 -4.59813,1.331688 -4.57813,-0.820312 0.01,-1.211 0.68791,-5.801172 1.50391,-10.201172 2.273,-12.256 2.6515,-16.728 1.6875,-20 -0.22344,-0.75875 -0.40515,-1.159579 -0.5625,-1.117188 z"
     id="path735" />
  <path
     d="m 146.15234,27.390625 c -0.0373,-0.0042 -0.0605,0.06278 -0.0664,0.207031 -0.047,1.154 0.80744,6.329 1.89844,11.5 1.23999,5.874 1.99099,13.314219 2,19.824219 0.012,8.038 0.37403,10.815391 1.58203,12.150391 1.383,1.528 0.859,1.484812 -4.5,-0.367188 C 143.73041,69.552078 141,68.021687 141,67.304688 141,66.586687 140.52341,66 139.94141,66 c -0.582,0 -0.80038,0.419641 -0.48438,0.931641 0.904,1.463 -1.11323,2.18964 -2.24023,0.80664 -0.556,-0.681 -1.57844,-3.15314 -2.27344,-5.49414 -1.669,-5.623 -2.35395,-4.761485 -0.87695,1.103515 1.268,5.035 2.64876,6.644391 6.13476,7.150391 1.264,0.184 5.78683,1.676406 10.04883,3.316406 4.262,1.641 7.75,2.536234 7.75,1.990235 0,-0.546001 -0.787,-1.204844 -1.75,-1.464844 -3.512,-0.952 -5.24606,-6.73586 -5.28906,-17.63086 -0.028,-7.004 -0.78507,-13.504984 -2.41406,-20.708984 -1.14275,-5.053125 -2.13331,-8.579803 -2.39454,-8.609375 z"
     id="path545" />
  <path
     d="m 333.60352,8.875 c -0.10182,0.1111087 -0.17188,5.650391 -0.17188,15.125 0,13.475 0.14145,18.987 0.31445,12.25 0.173,-6.738 0.173,-17.763 0,-24.5 -0.0514,-2.0003438 -0.0996,-2.9219126 -0.14257,-2.875 z"
     id="path543" />
  <path
     d="m 122.79688,2.4960938 c -0.30751,0.011382 -1.42657,1.5425 -2.59376,3.5703124 C 118.95813,8.2294063 118.14167,10 118.38867,10 c 0.689,0 4.89099,-7.0543281 4.45899,-7.4863281 -0.0131,-0.013062 -0.0303,-0.018337 -0.0508,-0.017578 z"
     id="path729" />
  <path
     d="M 290.51172,0.87890625 C 290.35164,0.86503125 290.2437,1.85 290.25195,3.5 c 0.011,2.2 0.21608,2.9822812 0.45508,1.7382812 0.239,-1.244 0.23047,-3.044 -0.0195,-4 -0.0625,-0.23899995 -0.12242,-0.35474995 -0.17578,-0.35937495 z"
     id="path727" />
  <path
     d="M 81.529297,0.06640625 C 81.356621,0.0445383 81.105281,0.482375 80.773438,1.5 c -0.359,1.1 -1.153579,5.6 -1.767579,10 -2.257,16.171 -10.058171,34.653062 -19.326171,45.789062 -6.135001,7.372001 -5.526344,8.641766 0.722656,1.509766 8.715,-9.946 16.330187,-27.543328 20.117187,-46.486328 1.246875,-6.2367188 1.626466,-12.16799393 1.009766,-12.24609375 z"
     id="path541" />
  <path
     d="m 118.34375,24 c -0.086,0 -0.4107,2.137 -0.7207,4.75 -0.938,7.907 -0.55677,54.398 0.49023,59.75 1.082,5.533 5.04072,11.93514 8.88672,14.36914 1.765,1.118 1.29081,0.24444 -1.61719,-2.976562 -5.233,-5.796 -6.74789,-10.396578 -6.71289,-20.392578 0.088,-24.994 -0.0912,-55.5 -0.32617,-55.5 z"
     id="path723" />
  <path
     d="M 212.66406,23.345703 C 212.3328,23.276281 212.17612,26.55175 212.10938,34 c -0.066,7.425 -0.79324,17.962016 -1.61524,23.416016 -0.822,5.454 -1.27014,10.141015 -0.99414,10.416015 0.275,0.275 0.50286,0.314938 0.50586,0.08594 C 210.00786,67.688969 210.905,61.425 212,54 c 2.106,-14.28 2.41564,-22.932 1.05664,-29.5 -0.152,-0.7355 -0.28216,-1.131156 -0.39258,-1.154297 z"
     id="path721" />
  <path
     d="m 233.08203,18.996094 c -0.0293,0.0027 -0.0464,0.0223 -0.0488,0.06055 -0.018,0.305 1.00444,1.96164 2.27344,3.68164 2.152,2.917 2.2542,3.68436 1.5332,11.44336 -0.426,4.575 -1.03356,9.780359 -1.35156,11.568359 -0.329,1.847 -0.15561,3.25 0.40039,3.25 0.539,0 1.1285,-1.237 1.3125,-2.75 0.233,-1.918 0.74264,-0.704234 1.68164,4.009766 1.424,7.146 0.71852,9.740234 -2.64648,9.740234 -3.386,0 -10.53663,4.560063 -12.01563,7.664062 -1.063,2.229 -2.81142,3.670985 -5.85742,4.833985 -2.389,0.912 -5.18675,2.733875 -6.21875,4.046875 -1.033,1.313 -2.23487,2.065875 -2.67187,1.671875 -0.436,-0.394 -0.49963,-0.201266 -0.14063,0.427734 0.36,0.629 -0.0596,2.879 -0.93164,5 -1.732,4.209 -1.57667,4.097032 3.98633,-2.917969 2.083,-2.625 5.5994,-5.699078 7.8164,-6.830078 2.539,-1.296 4.44444,-3.151578 5.14844,-5.017578 0.818,-2.167 2.59881,-3.65039 6.63282,-5.52539 3.03299,-1.41 6.52767,-3.041953 7.76367,-3.626954 1.237,-0.584999 2.54901,-0.762531 2.91601,-0.394531 0.368,0.367 0.10692,0.667969 -0.58008,0.667969 -0.902,0 -1.07957,1.237891 -0.64257,4.462891 l 0.60547,4.46289 -6.54297,-0.04883 c -5.966,-0.046 -6.87044,0.232828 -10.27344,3.173828 -2.052,1.773 -4.26302,4.437875 -4.91602,5.921875 -2.488,5.663 2.42672,15.027344 7.88672,15.027344 3.533,0 10.8172,-5.015828 10.78321,-7.423828 -0.011,-0.725 -0.25501,-0.711125 -0.75,0.04687 -1.27001,1.943 -7.63538,5.369047 -9.98438,5.373047 C 224.511,91.002094 222,87.589 222,82.5 c 0,-10.66 9.81014,-11.387 13.49414,-1 1.291,3.641 1.42094,3.746594 1.46094,1.183594 0.055,-3.537 -1.47299,-6.535375 -4.83399,-9.484375 L 229.5,70.900391 l 6.24023,0.363281 6.24024,0.363281 0.62305,-3.326172 c 0.343,-1.829 0.41611,-4.119797 0.1621,-5.091797 -0.55899,-2.138 1.12466,-3.875375 4.34766,-4.484375 1.524,-0.289 0.93147,-0.50089 -1.64453,-0.58789 -3.634,-0.123 -4.05381,-0.407047 -4.25781,-2.873047 -0.125,-1.505 -0.89875,-5.985031 -1.71875,-9.957031 -0.821,-3.972 -1.48456,-9.827672 -1.47657,-13.013672 L 238.0293,26.5 l 3.23632,3.587891 c 4.04201,4.482 12.90032,11.505922 12.19532,9.669921 -0.287,-0.748999 -1.85066,-2.147468 -3.47266,-3.105468 -2.585,-1.527 -8.45844,-7.697344 -14.89844,-15.652344 -0.97387,-1.203125 -1.80281,-2.022623 -2.00781,-2.003906 z"
     id="path719" />
  <path
     d="m 323.61133,12.320312 c -0.097,0.151935 -0.16406,7.72461 -0.16406,20.679688 0,18.425 0.13578,25.963 0.30078,16.75 0.165,-9.213 0.165,-24.287 0,-33.5 -0.049,-2.735109 -0.0958,-3.993837 -0.13672,-3.929688 z"
     id="path717" />
  <path
     d="M 327.99219,-0.00195313 C 327.95653,-0.0019043 327.92084,0 327.88281,0 c -0.82,0 -0.96039,19.294 -0.52539,72.25 0.327,39.737 0.60514,89.53797 0.61914,110.66797 0.013,21.129 0.27403,38.16347 0.58203,37.85547 0.307,-0.307 0.55293,-37.84402 0.54493,-83.41602 -0.0233,-135.2723731 -0.006,-137.3608868 -1.11133,-137.35937313 z"
     id="path715" />
  <path
     d="M 296.16797,-0.00195313 C 295.80097,-0.00295312 295.725,7.7600469 296,17.248047 296.416,31.611047 296.81572,35.086 298.38672,38 c 2.642,4.9 7.56876,11 8.88476,11 0.607,0 -0.05,-1.237 -1.45898,-2.75 -1.409,-1.512 -3.8565,-4.740828 -5.4375,-7.173828 -2.844,-4.375 -2.87803,-4.611 -3.20703,-21.75 -0.183,-9.5290001 -0.633,-17.327125125 -1,-17.32812513 z"
     id="path539" />
</svg>
